%FSLAX45Y45*%
G04 Gerber Fmt 4.5, Leading zero omitted, Abs format (unit mm)*
G04 Created by KiCad (PCBNEW (6.0.0-0)) date 2022-07-31 01:09:14*
%MOMM*%
%LPD*%
G01*
G04 APERTURE LIST*
%TA.AperFunction,Profile*%
%ADD10C,0.100000*%
%TD*%
%ADD11C,0.200000*%
%ADD12C,0.040000*%
%ADD13C,0.102000*%
G04 APERTURE END LIST*
D10*
X10251440Y-5740400D02*
X17025620Y-5740400D01*
X17025620Y-5740400D02*
X17025620Y-12214860D01*
X17025620Y-12214860D02*
X10251440Y-12214860D01*
X10251440Y-12214860D02*
X10251440Y-5740400D01*
D11*
D12*
X11309670Y-6887530D02*
X11349670Y-6927530D01*
X11349670Y-6887530D02*
X11309670Y-6927530D01*
X11631030Y-7094590D02*
X11671030Y-7134590D01*
X11671030Y-7094590D02*
X11631030Y-7134590D01*
X11744010Y-6554790D02*
X11784010Y-6594790D01*
X11784010Y-6554790D02*
X11744010Y-6594790D01*
X11789730Y-6956110D02*
X11829730Y-6996110D01*
X11829730Y-6956110D02*
X11789730Y-6996110D01*
X11963720Y-8880160D02*
X12003720Y-8920160D01*
X12003720Y-8880160D02*
X11963720Y-8920160D01*
X12018330Y-7375210D02*
X12058330Y-7415210D01*
X12058330Y-7375210D02*
X12018330Y-7415210D01*
X12028490Y-6328730D02*
X12068490Y-6368730D01*
X12068490Y-6328730D02*
X12028490Y-6368730D01*
X12079290Y-7103430D02*
X12119290Y-7143430D01*
X12119290Y-7103430D02*
X12079290Y-7143430D01*
X12084370Y-6737670D02*
X12124370Y-6777670D01*
X12124370Y-6737670D02*
X12084370Y-6777670D01*
X12088130Y-6923090D02*
X12128130Y-6963090D01*
X12128130Y-6923090D02*
X12088130Y-6963090D01*
X12252010Y-7532690D02*
X12292010Y-7572690D01*
X12292010Y-7532690D02*
X12252010Y-7572690D01*
X12254550Y-6067110D02*
X12294550Y-6107110D01*
X12294550Y-6067110D02*
X12254550Y-6107110D01*
X12316780Y-9728520D02*
X12356780Y-9768520D01*
X12356780Y-9728520D02*
X12316780Y-9768520D01*
X12363770Y-6498910D02*
X12403770Y-6538910D01*
X12403770Y-6498910D02*
X12363770Y-6538910D01*
X12376470Y-6648770D02*
X12416470Y-6688770D01*
X12416470Y-6648770D02*
X12376470Y-6688770D01*
X12377690Y-7730810D02*
X12417690Y-7770810D01*
X12417690Y-7730810D02*
X12377690Y-7770810D01*
X12399330Y-7052630D02*
X12439330Y-7092630D01*
X12439330Y-7052630D02*
X12399330Y-7092630D01*
X12406950Y-7260910D02*
X12446950Y-7300910D01*
X12446950Y-7260910D02*
X12406950Y-7300910D01*
X12447590Y-6892610D02*
X12487590Y-6932610D01*
X12487590Y-6892610D02*
X12447590Y-6932610D01*
X12551730Y-7319330D02*
X12591730Y-7359330D01*
X12591730Y-7319330D02*
X12551730Y-7359330D01*
X12630470Y-6864670D02*
X12670470Y-6904670D01*
X12670470Y-6864670D02*
X12630470Y-6904670D01*
X12635550Y-6410010D02*
X12675550Y-6450010D01*
X12675550Y-6410010D02*
X12635550Y-6450010D01*
X14661200Y-6817680D02*
X14701200Y-6857680D01*
X14701200Y-6817680D02*
X14661200Y-6857680D01*
X14750100Y-6380800D02*
X14790100Y-6420800D01*
X14790100Y-6380800D02*
X14750100Y-6420800D01*
X14770420Y-7307900D02*
X14810420Y-7347900D01*
X14810420Y-7307900D02*
X14770420Y-7347900D01*
X14905040Y-7724460D02*
X14945040Y-7764460D01*
X14945040Y-7724460D02*
X14905040Y-7764460D01*
X14960920Y-6891340D02*
X15000920Y-6931340D01*
X15000920Y-6891340D02*
X14960920Y-6931340D01*
X15006640Y-6472240D02*
X15046640Y-6512240D01*
X15046640Y-6472240D02*
X15006640Y-6512240D01*
X15037120Y-6617020D02*
X15077120Y-6657020D01*
X15077120Y-6617020D02*
X15037120Y-6657020D01*
X15037120Y-7048820D02*
X15077120Y-7088820D01*
X15077120Y-7048820D02*
X15037120Y-7088820D01*
X15042200Y-7297740D02*
X15082200Y-7337740D01*
X15082200Y-7297740D02*
X15042200Y-7337740D01*
X15115860Y-7473000D02*
X15155860Y-7513000D01*
X15155860Y-7473000D02*
X15115860Y-7513000D01*
X15120940Y-6060760D02*
X15160940Y-6100760D01*
X15160940Y-6060760D02*
X15120940Y-6100760D01*
X15321600Y-6695760D02*
X15361600Y-6735760D01*
X15361600Y-6695760D02*
X15321600Y-6735760D01*
X15324140Y-7058980D02*
X15364140Y-7098980D01*
X15364140Y-7058980D02*
X15324140Y-7098980D01*
X15329220Y-6848160D02*
X15369220Y-6888160D01*
X15369220Y-6848160D02*
X15329220Y-6888160D01*
X15367320Y-6276660D02*
X15407320Y-6316660D01*
X15407320Y-6276660D02*
X15367320Y-6316660D01*
X15377480Y-7292660D02*
X15417480Y-7332660D01*
X15417480Y-7292660D02*
X15377480Y-7332660D01*
X15555280Y-6449380D02*
X15595280Y-6489380D01*
X15595280Y-6449380D02*
X15555280Y-6489380D01*
X15626400Y-6855780D02*
X15666400Y-6895780D01*
X15666400Y-6855780D02*
X15626400Y-6895780D01*
X15661960Y-6980240D02*
X15701960Y-7020240D01*
X15701960Y-6980240D02*
X15661960Y-7020240D01*
X16116620Y-6817680D02*
X16156620Y-6857680D01*
X16156620Y-6817680D02*
X16116620Y-6857680D01*
D13*
X11115620Y-11206480D02*
G75*
G03*
X11115620Y-11206480I-51000J0D01*
G01*
X16314620Y-11206480D02*
G75*
G03*
X16314620Y-11206480I-51000J0D01*
G01*
D11*
X10504059Y-12530336D02*
X10504059Y-12330336D01*
X10551678Y-12330336D01*
X10580250Y-12339860D01*
X10599297Y-12358908D01*
X10608821Y-12377955D01*
X10618345Y-12416050D01*
X10618345Y-12444622D01*
X10608821Y-12482717D01*
X10599297Y-12501765D01*
X10580250Y-12520812D01*
X10551678Y-12530336D01*
X10504059Y-12530336D01*
X10704059Y-12530336D02*
X10704059Y-12397003D01*
X10704059Y-12435098D02*
X10713583Y-12416050D01*
X10723107Y-12406527D01*
X10742154Y-12397003D01*
X10761202Y-12397003D01*
X10827869Y-12530336D02*
X10827869Y-12397003D01*
X10827869Y-12330336D02*
X10818345Y-12339860D01*
X10827869Y-12349384D01*
X10837392Y-12339860D01*
X10827869Y-12330336D01*
X10827869Y-12349384D01*
X10951678Y-12530336D02*
X10932630Y-12520812D01*
X10923107Y-12501765D01*
X10923107Y-12330336D01*
X11056440Y-12530336D02*
X11037392Y-12520812D01*
X11027869Y-12501765D01*
X11027869Y-12330336D01*
X11285011Y-12530336D02*
X11285011Y-12330336D01*
X11351678Y-12473193D01*
X11418345Y-12330336D01*
X11418345Y-12530336D01*
X11599297Y-12530336D02*
X11599297Y-12425574D01*
X11589773Y-12406527D01*
X11570726Y-12397003D01*
X11532630Y-12397003D01*
X11513583Y-12406527D01*
X11599297Y-12520812D02*
X11580249Y-12530336D01*
X11532630Y-12530336D01*
X11513583Y-12520812D01*
X11504059Y-12501765D01*
X11504059Y-12482717D01*
X11513583Y-12463669D01*
X11532630Y-12454146D01*
X11580249Y-12454146D01*
X11599297Y-12444622D01*
X11694535Y-12397003D02*
X11694535Y-12597003D01*
X11694535Y-12406527D02*
X11713583Y-12397003D01*
X11751678Y-12397003D01*
X11770726Y-12406527D01*
X11780249Y-12416050D01*
X11789773Y-12435098D01*
X11789773Y-12492241D01*
X11780249Y-12511288D01*
X11770726Y-12520812D01*
X11751678Y-12530336D01*
X11713583Y-12530336D01*
X11694535Y-12520812D01*
X11875488Y-12511288D02*
X11885011Y-12520812D01*
X11875488Y-12530336D01*
X11865964Y-12520812D01*
X11875488Y-12511288D01*
X11875488Y-12530336D01*
X11875488Y-12406527D02*
X11885011Y-12416050D01*
X11875488Y-12425574D01*
X11865964Y-12416050D01*
X11875488Y-12406527D01*
X11875488Y-12425574D01*
D12*
X10206440Y-12839860D02*
X10246440Y-12879860D01*
X10246440Y-12839860D02*
X10206440Y-12879860D01*
D11*
X10542154Y-12750336D02*
X10561202Y-12750336D01*
X10580250Y-12759860D01*
X10589773Y-12769384D01*
X10599297Y-12788431D01*
X10608821Y-12826527D01*
X10608821Y-12874146D01*
X10599297Y-12912241D01*
X10589773Y-12931288D01*
X10580250Y-12940812D01*
X10561202Y-12950336D01*
X10542154Y-12950336D01*
X10523107Y-12940812D01*
X10513583Y-12931288D01*
X10504059Y-12912241D01*
X10494535Y-12874146D01*
X10494535Y-12826527D01*
X10504059Y-12788431D01*
X10513583Y-12769384D01*
X10523107Y-12759860D01*
X10542154Y-12750336D01*
X10694535Y-12931288D02*
X10704059Y-12940812D01*
X10694535Y-12950336D01*
X10685011Y-12940812D01*
X10694535Y-12931288D01*
X10694535Y-12950336D01*
X10875488Y-12817003D02*
X10875488Y-12950336D01*
X10827869Y-12740812D02*
X10780250Y-12883669D01*
X10904059Y-12883669D01*
X11018345Y-12750336D02*
X11037392Y-12750336D01*
X11056440Y-12759860D01*
X11065964Y-12769384D01*
X11075488Y-12788431D01*
X11085011Y-12826527D01*
X11085011Y-12874146D01*
X11075488Y-12912241D01*
X11065964Y-12931288D01*
X11056440Y-12940812D01*
X11037392Y-12950336D01*
X11018345Y-12950336D01*
X10999297Y-12940812D01*
X10989773Y-12931288D01*
X10980250Y-12912241D01*
X10970726Y-12874146D01*
X10970726Y-12826527D01*
X10980250Y-12788431D01*
X10989773Y-12769384D01*
X10999297Y-12759860D01*
X11018345Y-12750336D01*
X11208821Y-12750336D02*
X11227868Y-12750336D01*
X11246916Y-12759860D01*
X11256440Y-12769384D01*
X11265964Y-12788431D01*
X11275488Y-12826527D01*
X11275488Y-12874146D01*
X11265964Y-12912241D01*
X11256440Y-12931288D01*
X11246916Y-12940812D01*
X11227868Y-12950336D01*
X11208821Y-12950336D01*
X11189773Y-12940812D01*
X11180250Y-12931288D01*
X11170726Y-12912241D01*
X11161202Y-12874146D01*
X11161202Y-12826527D01*
X11170726Y-12788431D01*
X11180250Y-12769384D01*
X11189773Y-12759860D01*
X11208821Y-12750336D01*
X11361202Y-12950336D02*
X11361202Y-12817003D01*
X11361202Y-12836050D02*
X11370726Y-12826527D01*
X11389773Y-12817003D01*
X11418345Y-12817003D01*
X11437392Y-12826527D01*
X11446916Y-12845574D01*
X11446916Y-12950336D01*
X11446916Y-12845574D02*
X11456440Y-12826527D01*
X11475488Y-12817003D01*
X11504059Y-12817003D01*
X11523107Y-12826527D01*
X11532630Y-12845574D01*
X11532630Y-12950336D01*
X11627868Y-12950336D02*
X11627868Y-12817003D01*
X11627868Y-12836050D02*
X11637392Y-12826527D01*
X11656440Y-12817003D01*
X11685011Y-12817003D01*
X11704059Y-12826527D01*
X11713583Y-12845574D01*
X11713583Y-12950336D01*
X11713583Y-12845574D02*
X11723107Y-12826527D01*
X11742154Y-12817003D01*
X11770726Y-12817003D01*
X11789773Y-12826527D01*
X11799297Y-12845574D01*
X11799297Y-12950336D01*
X12189773Y-12740812D02*
X12018345Y-12997955D01*
X12446916Y-12750336D02*
X12465964Y-12750336D01*
X12485011Y-12759860D01*
X12494535Y-12769384D01*
X12504059Y-12788431D01*
X12513583Y-12826527D01*
X12513583Y-12874146D01*
X12504059Y-12912241D01*
X12494535Y-12931288D01*
X12485011Y-12940812D01*
X12465964Y-12950336D01*
X12446916Y-12950336D01*
X12427868Y-12940812D01*
X12418345Y-12931288D01*
X12408821Y-12912241D01*
X12399297Y-12874146D01*
X12399297Y-12826527D01*
X12408821Y-12788431D01*
X12418345Y-12769384D01*
X12427868Y-12759860D01*
X12446916Y-12750336D01*
X12599297Y-12931288D02*
X12608821Y-12940812D01*
X12599297Y-12950336D01*
X12589773Y-12940812D01*
X12599297Y-12931288D01*
X12599297Y-12950336D01*
X12732630Y-12750336D02*
X12751678Y-12750336D01*
X12770726Y-12759860D01*
X12780249Y-12769384D01*
X12789773Y-12788431D01*
X12799297Y-12826527D01*
X12799297Y-12874146D01*
X12789773Y-12912241D01*
X12780249Y-12931288D01*
X12770726Y-12940812D01*
X12751678Y-12950336D01*
X12732630Y-12950336D01*
X12713583Y-12940812D01*
X12704059Y-12931288D01*
X12694535Y-12912241D01*
X12685011Y-12874146D01*
X12685011Y-12826527D01*
X12694535Y-12788431D01*
X12704059Y-12769384D01*
X12713583Y-12759860D01*
X12732630Y-12750336D01*
X12989773Y-12950336D02*
X12875488Y-12950336D01*
X12932630Y-12950336D02*
X12932630Y-12750336D01*
X12913583Y-12778908D01*
X12894535Y-12797955D01*
X12875488Y-12807479D01*
X13170726Y-12750336D02*
X13075488Y-12750336D01*
X13065964Y-12845574D01*
X13075488Y-12836050D01*
X13094535Y-12826527D01*
X13142154Y-12826527D01*
X13161202Y-12836050D01*
X13170726Y-12845574D01*
X13180249Y-12864622D01*
X13180249Y-12912241D01*
X13170726Y-12931288D01*
X13161202Y-12940812D01*
X13142154Y-12950336D01*
X13094535Y-12950336D01*
X13075488Y-12940812D01*
X13065964Y-12931288D01*
X13246916Y-12750336D02*
X13380249Y-12750336D01*
X13294535Y-12950336D01*
X13446916Y-12750336D02*
X13446916Y-12788431D01*
X13523107Y-12750336D02*
X13523107Y-12788431D01*
X13818345Y-13026527D02*
X13808821Y-13017003D01*
X13789773Y-12988431D01*
X13780249Y-12969384D01*
X13770726Y-12940812D01*
X13761202Y-12893193D01*
X13761202Y-12855098D01*
X13770726Y-12807479D01*
X13780249Y-12778908D01*
X13789773Y-12759860D01*
X13808821Y-12731288D01*
X13818345Y-12721765D01*
X13980249Y-12817003D02*
X13980249Y-12950336D01*
X13932630Y-12740812D02*
X13885011Y-12883669D01*
X14008821Y-12883669D01*
X14075488Y-12769384D02*
X14085011Y-12759860D01*
X14104059Y-12750336D01*
X14151678Y-12750336D01*
X14170726Y-12759860D01*
X14180249Y-12769384D01*
X14189773Y-12788431D01*
X14189773Y-12807479D01*
X14180249Y-12836050D01*
X14065964Y-12950336D01*
X14189773Y-12950336D01*
X14427868Y-12950336D02*
X14427868Y-12750336D01*
X14513583Y-12950336D02*
X14513583Y-12845574D01*
X14504059Y-12826527D01*
X14485011Y-12817003D01*
X14456440Y-12817003D01*
X14437392Y-12826527D01*
X14427868Y-12836050D01*
X14637392Y-12950336D02*
X14618345Y-12940812D01*
X14608821Y-12931288D01*
X14599297Y-12912241D01*
X14599297Y-12855098D01*
X14608821Y-12836050D01*
X14618345Y-12826527D01*
X14637392Y-12817003D01*
X14665964Y-12817003D01*
X14685011Y-12826527D01*
X14694535Y-12836050D01*
X14704059Y-12855098D01*
X14704059Y-12912241D01*
X14694535Y-12931288D01*
X14685011Y-12940812D01*
X14665964Y-12950336D01*
X14637392Y-12950336D01*
X14818345Y-12950336D02*
X14799297Y-12940812D01*
X14789773Y-12921765D01*
X14789773Y-12750336D01*
X14970726Y-12940812D02*
X14951678Y-12950336D01*
X14913583Y-12950336D01*
X14894535Y-12940812D01*
X14885011Y-12921765D01*
X14885011Y-12845574D01*
X14894535Y-12826527D01*
X14913583Y-12817003D01*
X14951678Y-12817003D01*
X14970726Y-12826527D01*
X14980249Y-12845574D01*
X14980249Y-12864622D01*
X14885011Y-12883669D01*
X15056440Y-12940812D02*
X15075488Y-12950336D01*
X15113583Y-12950336D01*
X15132630Y-12940812D01*
X15142154Y-12921765D01*
X15142154Y-12912241D01*
X15132630Y-12893193D01*
X15113583Y-12883669D01*
X15085011Y-12883669D01*
X15065964Y-12874146D01*
X15056440Y-12855098D01*
X15056440Y-12845574D01*
X15065964Y-12826527D01*
X15085011Y-12817003D01*
X15113583Y-12817003D01*
X15132630Y-12826527D01*
X15208821Y-13026527D02*
X15218345Y-13017003D01*
X15237392Y-12988431D01*
X15246916Y-12969384D01*
X15256440Y-12940812D01*
X15265964Y-12893193D01*
X15265964Y-12855098D01*
X15256440Y-12807479D01*
X15246916Y-12778908D01*
X15237392Y-12759860D01*
X15218345Y-12731288D01*
X15208821Y-12721765D01*
D13*
X10246440Y-13123860D02*
G75*
G03*
X10246440Y-13123860I-51000J0D01*
G01*
D11*
X10608821Y-13214336D02*
X10494535Y-13214336D01*
X10551678Y-13214336D02*
X10551678Y-13014336D01*
X10532630Y-13042908D01*
X10513583Y-13061955D01*
X10494535Y-13071479D01*
X10694535Y-13195288D02*
X10704059Y-13204812D01*
X10694535Y-13214336D01*
X10685011Y-13204812D01*
X10694535Y-13195288D01*
X10694535Y-13214336D01*
X10827869Y-13014336D02*
X10846916Y-13014336D01*
X10865964Y-13023860D01*
X10875488Y-13033384D01*
X10885011Y-13052431D01*
X10894535Y-13090527D01*
X10894535Y-13138146D01*
X10885011Y-13176241D01*
X10875488Y-13195288D01*
X10865964Y-13204812D01*
X10846916Y-13214336D01*
X10827869Y-13214336D01*
X10808821Y-13204812D01*
X10799297Y-13195288D01*
X10789773Y-13176241D01*
X10780250Y-13138146D01*
X10780250Y-13090527D01*
X10789773Y-13052431D01*
X10799297Y-13033384D01*
X10808821Y-13023860D01*
X10827869Y-13014336D01*
X10970726Y-13033384D02*
X10980250Y-13023860D01*
X10999297Y-13014336D01*
X11046916Y-13014336D01*
X11065964Y-13023860D01*
X11075488Y-13033384D01*
X11085011Y-13052431D01*
X11085011Y-13071479D01*
X11075488Y-13100050D01*
X10961202Y-13214336D01*
X11085011Y-13214336D01*
X11208821Y-13014336D02*
X11227868Y-13014336D01*
X11246916Y-13023860D01*
X11256440Y-13033384D01*
X11265964Y-13052431D01*
X11275488Y-13090527D01*
X11275488Y-13138146D01*
X11265964Y-13176241D01*
X11256440Y-13195288D01*
X11246916Y-13204812D01*
X11227868Y-13214336D01*
X11208821Y-13214336D01*
X11189773Y-13204812D01*
X11180250Y-13195288D01*
X11170726Y-13176241D01*
X11161202Y-13138146D01*
X11161202Y-13090527D01*
X11170726Y-13052431D01*
X11180250Y-13033384D01*
X11189773Y-13023860D01*
X11208821Y-13014336D01*
X11361202Y-13214336D02*
X11361202Y-13081003D01*
X11361202Y-13100050D02*
X11370726Y-13090527D01*
X11389773Y-13081003D01*
X11418345Y-13081003D01*
X11437392Y-13090527D01*
X11446916Y-13109574D01*
X11446916Y-13214336D01*
X11446916Y-13109574D02*
X11456440Y-13090527D01*
X11475488Y-13081003D01*
X11504059Y-13081003D01*
X11523107Y-13090527D01*
X11532630Y-13109574D01*
X11532630Y-13214336D01*
X11627868Y-13214336D02*
X11627868Y-13081003D01*
X11627868Y-13100050D02*
X11637392Y-13090527D01*
X11656440Y-13081003D01*
X11685011Y-13081003D01*
X11704059Y-13090527D01*
X11713583Y-13109574D01*
X11713583Y-13214336D01*
X11713583Y-13109574D02*
X11723107Y-13090527D01*
X11742154Y-13081003D01*
X11770726Y-13081003D01*
X11789773Y-13090527D01*
X11799297Y-13109574D01*
X11799297Y-13214336D01*
X12189773Y-13004812D02*
X12018345Y-13261955D01*
X12446916Y-13014336D02*
X12465964Y-13014336D01*
X12485011Y-13023860D01*
X12494535Y-13033384D01*
X12504059Y-13052431D01*
X12513583Y-13090527D01*
X12513583Y-13138146D01*
X12504059Y-13176241D01*
X12494535Y-13195288D01*
X12485011Y-13204812D01*
X12465964Y-13214336D01*
X12446916Y-13214336D01*
X12427868Y-13204812D01*
X12418345Y-13195288D01*
X12408821Y-13176241D01*
X12399297Y-13138146D01*
X12399297Y-13090527D01*
X12408821Y-13052431D01*
X12418345Y-13033384D01*
X12427868Y-13023860D01*
X12446916Y-13014336D01*
X12599297Y-13195288D02*
X12608821Y-13204812D01*
X12599297Y-13214336D01*
X12589773Y-13204812D01*
X12599297Y-13195288D01*
X12599297Y-13214336D01*
X12732630Y-13014336D02*
X12751678Y-13014336D01*
X12770726Y-13023860D01*
X12780249Y-13033384D01*
X12789773Y-13052431D01*
X12799297Y-13090527D01*
X12799297Y-13138146D01*
X12789773Y-13176241D01*
X12780249Y-13195288D01*
X12770726Y-13204812D01*
X12751678Y-13214336D01*
X12732630Y-13214336D01*
X12713583Y-13204812D01*
X12704059Y-13195288D01*
X12694535Y-13176241D01*
X12685011Y-13138146D01*
X12685011Y-13090527D01*
X12694535Y-13052431D01*
X12704059Y-13033384D01*
X12713583Y-13023860D01*
X12732630Y-13014336D01*
X12970726Y-13081003D02*
X12970726Y-13214336D01*
X12923107Y-13004812D02*
X12875488Y-13147669D01*
X12999297Y-13147669D01*
X13113583Y-13014336D02*
X13132630Y-13014336D01*
X13151678Y-13023860D01*
X13161202Y-13033384D01*
X13170726Y-13052431D01*
X13180249Y-13090527D01*
X13180249Y-13138146D01*
X13170726Y-13176241D01*
X13161202Y-13195288D01*
X13151678Y-13204812D01*
X13132630Y-13214336D01*
X13113583Y-13214336D01*
X13094535Y-13204812D01*
X13085011Y-13195288D01*
X13075488Y-13176241D01*
X13065964Y-13138146D01*
X13065964Y-13090527D01*
X13075488Y-13052431D01*
X13085011Y-13033384D01*
X13094535Y-13023860D01*
X13113583Y-13014336D01*
X13256440Y-13033384D02*
X13265964Y-13023860D01*
X13285011Y-13014336D01*
X13332630Y-13014336D01*
X13351678Y-13023860D01*
X13361202Y-13033384D01*
X13370726Y-13052431D01*
X13370726Y-13071479D01*
X13361202Y-13100050D01*
X13246916Y-13214336D01*
X13370726Y-13214336D01*
X13446916Y-13014336D02*
X13446916Y-13052431D01*
X13523107Y-13014336D02*
X13523107Y-13052431D01*
X13818345Y-13290527D02*
X13808821Y-13281003D01*
X13789773Y-13252431D01*
X13780249Y-13233384D01*
X13770726Y-13204812D01*
X13761202Y-13157193D01*
X13761202Y-13119098D01*
X13770726Y-13071479D01*
X13780249Y-13042908D01*
X13789773Y-13023860D01*
X13808821Y-12995288D01*
X13818345Y-12985765D01*
X13885011Y-13033384D02*
X13894535Y-13023860D01*
X13913583Y-13014336D01*
X13961202Y-13014336D01*
X13980249Y-13023860D01*
X13989773Y-13033384D01*
X13999297Y-13052431D01*
X13999297Y-13071479D01*
X13989773Y-13100050D01*
X13875488Y-13214336D01*
X13999297Y-13214336D01*
X14237392Y-13214336D02*
X14237392Y-13014336D01*
X14323107Y-13214336D02*
X14323107Y-13109574D01*
X14313583Y-13090527D01*
X14294535Y-13081003D01*
X14265964Y-13081003D01*
X14246916Y-13090527D01*
X14237392Y-13100050D01*
X14446916Y-13214336D02*
X14427868Y-13204812D01*
X14418345Y-13195288D01*
X14408821Y-13176241D01*
X14408821Y-13119098D01*
X14418345Y-13100050D01*
X14427868Y-13090527D01*
X14446916Y-13081003D01*
X14475488Y-13081003D01*
X14494535Y-13090527D01*
X14504059Y-13100050D01*
X14513583Y-13119098D01*
X14513583Y-13176241D01*
X14504059Y-13195288D01*
X14494535Y-13204812D01*
X14475488Y-13214336D01*
X14446916Y-13214336D01*
X14627868Y-13214336D02*
X14608821Y-13204812D01*
X14599297Y-13185765D01*
X14599297Y-13014336D01*
X14780249Y-13204812D02*
X14761202Y-13214336D01*
X14723107Y-13214336D01*
X14704059Y-13204812D01*
X14694535Y-13185765D01*
X14694535Y-13109574D01*
X14704059Y-13090527D01*
X14723107Y-13081003D01*
X14761202Y-13081003D01*
X14780249Y-13090527D01*
X14789773Y-13109574D01*
X14789773Y-13128622D01*
X14694535Y-13147669D01*
X14865964Y-13204812D02*
X14885011Y-13214336D01*
X14923107Y-13214336D01*
X14942154Y-13204812D01*
X14951678Y-13185765D01*
X14951678Y-13176241D01*
X14942154Y-13157193D01*
X14923107Y-13147669D01*
X14894535Y-13147669D01*
X14875488Y-13138146D01*
X14865964Y-13119098D01*
X14865964Y-13109574D01*
X14875488Y-13090527D01*
X14894535Y-13081003D01*
X14923107Y-13081003D01*
X14942154Y-13090527D01*
X15018345Y-13290527D02*
X15027868Y-13281003D01*
X15046916Y-13252431D01*
X15056440Y-13233384D01*
X15065964Y-13204812D01*
X15075488Y-13157193D01*
X15075488Y-13119098D01*
X15065964Y-13071479D01*
X15056440Y-13042908D01*
X15046916Y-13023860D01*
X15027868Y-12995288D01*
X15018345Y-12985765D01*
M02*
