%TF.GenerationSoftware,KiCad,Pcbnew,(6.0.0-0)*%
%TF.CreationDate,2022-07-31T01:07:44-04:00*%
%TF.ProjectId,sam-bday-21,73616d2d-6264-4617-992d-32312e6b6963,v1*%
%TF.SameCoordinates,Original*%
%TF.FileFunction,Copper,L2,Bot*%
%TF.FilePolarity,Positive*%
%FSLAX46Y46*%
G04 Gerber Fmt 4.6, Leading zero omitted, Abs format (unit mm)*
G04 Created by KiCad (PCBNEW (6.0.0-0)) date 2022-07-31 01:07:44*
%MOMM*%
%LPD*%
G01*
G04 APERTURE LIST*
G04 Aperture macros list*
%AMRoundRect*
0 Rectangle with rounded corners*
0 $1 Rounding radius*
0 $2 $3 $4 $5 $6 $7 $8 $9 X,Y pos of 4 corners*
0 Add a 4 corners polygon primitive as box body*
4,1,4,$2,$3,$4,$5,$6,$7,$8,$9,$2,$3,0*
0 Add four circle primitives for the rounded corners*
1,1,$1+$1,$2,$3*
1,1,$1+$1,$4,$5*
1,1,$1+$1,$6,$7*
1,1,$1+$1,$8,$9*
0 Add four rect primitives between the rounded corners*
20,1,$1+$1,$2,$3,$4,$5,0*
20,1,$1+$1,$4,$5,$6,$7,0*
20,1,$1+$1,$6,$7,$8,$9,0*
20,1,$1+$1,$8,$9,$2,$3,0*%
%AMFreePoly0*
4,1,9,3.862500,-0.866500,0.737500,-0.866500,0.737500,-0.450000,-0.737500,-0.450000,-0.737500,0.450000,0.737500,0.450000,0.737500,0.866500,3.862500,0.866500,3.862500,-0.866500,3.862500,-0.866500,$1*%
G04 Aperture macros list end*
%TA.AperFunction,SMDPad,CuDef*%
%ADD10RoundRect,0.200000X0.200000X0.275000X-0.200000X0.275000X-0.200000X-0.275000X0.200000X-0.275000X0*%
%TD*%
%TA.AperFunction,SMDPad,CuDef*%
%ADD11RoundRect,0.200000X-0.275000X0.200000X-0.275000X-0.200000X0.275000X-0.200000X0.275000X0.200000X0*%
%TD*%
%TA.AperFunction,SMDPad,CuDef*%
%ADD12RoundRect,0.218750X-0.381250X0.218750X-0.381250X-0.218750X0.381250X-0.218750X0.381250X0.218750X0*%
%TD*%
%TA.AperFunction,SMDPad,CuDef*%
%ADD13R,1.300000X0.900000*%
%TD*%
%TA.AperFunction,SMDPad,CuDef*%
%ADD14FreePoly0,0.000000*%
%TD*%
%TA.AperFunction,SMDPad,CuDef*%
%ADD15RoundRect,0.225000X0.250000X-0.225000X0.250000X0.225000X-0.250000X0.225000X-0.250000X-0.225000X0*%
%TD*%
%TA.AperFunction,SMDPad,CuDef*%
%ADD16RoundRect,0.225000X-0.250000X0.225000X-0.250000X-0.225000X0.250000X-0.225000X0.250000X0.225000X0*%
%TD*%
%TA.AperFunction,SMDPad,CuDef*%
%ADD17RoundRect,0.200000X-0.200000X-0.275000X0.200000X-0.275000X0.200000X0.275000X-0.200000X0.275000X0*%
%TD*%
%TA.AperFunction,SMDPad,CuDef*%
%ADD18R,0.400000X0.650000*%
%TD*%
%TA.AperFunction,ComponentPad*%
%ADD19C,2.000000*%
%TD*%
%TA.AperFunction,ComponentPad*%
%ADD20R,2.000000X2.000000*%
%TD*%
%TA.AperFunction,SMDPad,CuDef*%
%ADD21RoundRect,0.150000X0.825000X0.150000X-0.825000X0.150000X-0.825000X-0.150000X0.825000X-0.150000X0*%
%TD*%
%TA.AperFunction,SMDPad,CuDef*%
%ADD22RoundRect,0.150000X0.512500X0.150000X-0.512500X0.150000X-0.512500X-0.150000X0.512500X-0.150000X0*%
%TD*%
%TA.AperFunction,ViaPad*%
%ADD23C,0.800000*%
%TD*%
%TA.AperFunction,Conductor*%
%ADD24C,0.250000*%
%TD*%
%TA.AperFunction,Conductor*%
%ADD25C,0.500000*%
%TD*%
G04 APERTURE END LIST*
D10*
%TO.P,R17,2*%
%TO.N,Net-(Q2-Pad3)*%
X145885400Y-77444600D03*
%TO.P,R17,1*%
%TO.N,Net-(D14-Pad1)*%
X147535400Y-77444600D03*
%TD*%
D11*
%TO.P,R20,2*%
%TO.N,/DIS*%
X115836400Y-90080600D03*
%TO.P,R20,1*%
%TO.N,+5V*%
X115836400Y-88430600D03*
%TD*%
D12*
%TO.P,L1,2*%
%TO.N,/LX*%
X158154387Y-93953719D03*
%TO.P,L1,1*%
%TO.N,Net-(BT1-Pad1)*%
X158154387Y-91828719D03*
%TD*%
D11*
%TO.P,R15,2*%
%TO.N,Net-(Q2-Pad3)*%
X152552400Y-77673200D03*
%TO.P,R15,1*%
%TO.N,Net-(D12-Pad1)*%
X152552400Y-76023200D03*
%TD*%
D13*
%TO.P,Q2,3,D*%
%TO.N,Net-(Q2-Pad3)*%
X146025600Y-80719800D03*
D14*
%TO.P,Q2,2,S*%
%TO.N,GND*%
X146113100Y-82219800D03*
D13*
%TO.P,Q2,1,G*%
%TO.N,Net-(Q2-Pad1)*%
X146025600Y-83719800D03*
%TD*%
D11*
%TO.P,R11,2*%
%TO.N,Net-(Q2-Pad3)*%
X151993600Y-72668400D03*
%TO.P,R11,1*%
%TO.N,Net-(D10-Pad1)*%
X151993600Y-71018400D03*
%TD*%
D10*
%TO.P,R19,2*%
%TO.N,Net-(Q2-Pad3)*%
X144666200Y-73279000D03*
%TO.P,R19,1*%
%TO.N,Net-(D16-Pad1)*%
X146316200Y-73279000D03*
%TD*%
D15*
%TO.P,C2,2*%
%TO.N,GND*%
X156286200Y-95999000D03*
%TO.P,C2,1*%
%TO.N,+5V*%
X156286200Y-97549000D03*
%TD*%
D16*
%TO.P,C4,2*%
%TO.N,GND*%
X118351000Y-97841400D03*
%TO.P,C4,1*%
%TO.N,/CV*%
X118351000Y-96291400D03*
%TD*%
D15*
%TO.P,C3,2*%
%TO.N,GND*%
X114122200Y-92138400D03*
%TO.P,C3,1*%
%TO.N,/THR*%
X114122200Y-93688400D03*
%TD*%
%TO.P,C5,2*%
%TO.N,GND*%
X118351000Y-87451600D03*
%TO.P,C5,1*%
%TO.N,+5V*%
X118351000Y-89001600D03*
%TD*%
D17*
%TO.P,R13,2*%
%TO.N,Net-(Q2-Pad1)*%
X144252600Y-83718400D03*
%TO.P,R13,1*%
%TO.N,LED_R*%
X142602600Y-83718400D03*
%TD*%
D15*
%TO.P,C1,2*%
%TO.N,GND*%
X162599387Y-96011119D03*
%TO.P,C1,1*%
%TO.N,Net-(BT1-Pad1)*%
X162599387Y-97561119D03*
%TD*%
D18*
%TO.P,U3,5,VCC*%
%TO.N,+5V*%
X125994400Y-96403200D03*
%TO.P,U3,4*%
%TO.N,LED_R*%
X127294400Y-96403200D03*
%TO.P,U3,3,GND*%
%TO.N,GND*%
X127294400Y-94503200D03*
%TO.P,U3,2*%
%TO.N,LED_L*%
X126644400Y-94503200D03*
%TO.P,U3,1*%
%TO.N,N/C*%
X125994400Y-94503200D03*
%TD*%
D11*
%TO.P,R4,2*%
%TO.N,Net-(Q2-Pad3)*%
X155473400Y-75678800D03*
%TO.P,R4,1*%
%TO.N,Net-(D4-Pad1)*%
X155473400Y-74028800D03*
%TD*%
%TO.P,R21,2*%
%TO.N,/THR*%
X115824000Y-93751400D03*
%TO.P,R21,1*%
%TO.N,/DIS*%
X115824000Y-92101400D03*
%TD*%
%TO.P,R7,2*%
%TO.N,Net-(Q2-Pad3)*%
X155041600Y-70180200D03*
%TO.P,R7,1*%
%TO.N,Net-(D6-Pad1)*%
X155041600Y-68530200D03*
%TD*%
%TO.P,R5,2*%
%TO.N,/CE*%
X160440387Y-93711919D03*
%TO.P,R5,1*%
%TO.N,Net-(BT1-Pad1)*%
X160440387Y-92061919D03*
%TD*%
%TO.P,R2,2*%
%TO.N,Net-(Q2-Pad3)*%
X158115000Y-72351400D03*
%TO.P,R2,1*%
%TO.N,Net-(D2-Pad1)*%
X158115000Y-70701400D03*
%TD*%
D19*
%TO.P,BT1,2,-*%
%TO.N,GND*%
X110646200Y-112064800D03*
D20*
%TO.P,BT1,1,+*%
%TO.N,Net-(BT1-Pad1)*%
X162636200Y-112064800D03*
%TD*%
D11*
%TO.P,R9,2*%
%TO.N,Net-(Q2-Pad3)*%
X151765000Y-68922400D03*
%TO.P,R9,1*%
%TO.N,Net-(D8-Pad1)*%
X151765000Y-67272400D03*
%TD*%
D10*
%TO.P,R25,2*%
%TO.N,Net-(Q2-Pad3)*%
X144488400Y-64058800D03*
%TO.P,R25,1*%
%TO.N,Net-(D20-Pad1)*%
X146138400Y-64058800D03*
%TD*%
%TO.P,R23,2*%
%TO.N,Net-(Q2-Pad3)*%
X143662400Y-68376800D03*
%TO.P,R23,1*%
%TO.N,Net-(D18-Pad1)*%
X145312400Y-68376800D03*
%TD*%
D21*
%TO.P,U2,8,VCC*%
%TO.N,+5V*%
X118351000Y-90779600D03*
%TO.P,U2,7,DIS*%
%TO.N,/DIS*%
X118351000Y-92049600D03*
%TO.P,U2,6,THR*%
%TO.N,/THR*%
X118351000Y-93319600D03*
%TO.P,U2,5,CV*%
%TO.N,/CV*%
X118351000Y-94589600D03*
%TO.P,U2,4,R*%
%TO.N,+5V*%
X123301000Y-94589600D03*
%TO.P,U2,3,Q*%
%TO.N,LED_L*%
X123301000Y-93319600D03*
%TO.P,U2,2,TR*%
%TO.N,/THR*%
X123301000Y-92049600D03*
%TO.P,U2,1,GND*%
%TO.N,GND*%
X123301000Y-90779600D03*
%TD*%
D22*
%TO.P,U1,5,LX*%
%TO.N,/LX*%
X158159887Y-95645319D03*
%TO.P,U1,4,VOUT*%
%TO.N,+5V*%
X158159887Y-97545319D03*
%TO.P,U1,3,BAT*%
%TO.N,Net-(BT1-Pad1)*%
X160434887Y-97545319D03*
%TO.P,U1,2,GND*%
%TO.N,GND*%
X160434887Y-96595319D03*
%TO.P,U1,1,CE*%
%TO.N,/CE*%
X160434887Y-95645319D03*
%TD*%
D11*
%TO.P,R14,2*%
%TO.N,Net-(Q1-Pad3)*%
X121424700Y-78358500D03*
%TO.P,R14,1*%
%TO.N,Net-(D11-Pad1)*%
X121424700Y-76708500D03*
%TD*%
%TO.P,R10,2*%
%TO.N,Net-(Q1-Pad3)*%
X122872500Y-73329300D03*
%TO.P,R10,1*%
%TO.N,Net-(D9-Pad1)*%
X122872500Y-71679300D03*
%TD*%
D17*
%TO.P,R12,2*%
%TO.N,Net-(Q1-Pad1)*%
X125500900Y-84467700D03*
%TO.P,R12,1*%
%TO.N,LED_L*%
X123850900Y-84467700D03*
%TD*%
D11*
%TO.P,R6,2*%
%TO.N,Net-(Q1-Pad3)*%
X119037100Y-76567300D03*
%TO.P,R6,1*%
%TO.N,Net-(D5-Pad1)*%
X119037100Y-74917300D03*
%TD*%
D17*
%TO.P,R24,2*%
%TO.N,Net-(Q1-Pad3)*%
X128053100Y-77533500D03*
%TO.P,R24,1*%
%TO.N,Net-(D19-Pad1)*%
X126403100Y-77533500D03*
%TD*%
%TO.P,R22,2*%
%TO.N,Net-(Q1-Pad3)*%
X129412500Y-73113900D03*
%TO.P,R22,1*%
%TO.N,Net-(D17-Pad1)*%
X127762500Y-73113900D03*
%TD*%
D11*
%TO.P,R3,2*%
%TO.N,Net-(Q1-Pad3)*%
X119545100Y-71258700D03*
%TO.P,R3,1*%
%TO.N,Net-(D3-Pad1)*%
X119545100Y-69608700D03*
%TD*%
D13*
%TO.P,Q1,3,D*%
%TO.N,Net-(Q1-Pad3)*%
X127267700Y-81469100D03*
D14*
%TO.P,Q1,2,S*%
%TO.N,GND*%
X127355200Y-82969100D03*
D13*
%TO.P,Q1,1,G*%
%TO.N,Net-(Q1-Pad1)*%
X127267700Y-84469100D03*
%TD*%
D11*
%TO.P,R8,1*%
%TO.N,Net-(D7-Pad1)*%
X122491500Y-66789300D03*
%TO.P,R8,2*%
%TO.N,Net-(Q1-Pad3)*%
X122491500Y-68439300D03*
%TD*%
D17*
%TO.P,R16,2*%
%TO.N,Net-(Q1-Pad3)*%
X130009900Y-63944500D03*
%TO.P,R16,1*%
%TO.N,Net-(D13-Pad1)*%
X128359900Y-63944500D03*
%TD*%
%TO.P,R18,2*%
%TO.N,Net-(Q1-Pad3)*%
X130060700Y-68846700D03*
%TO.P,R18,1*%
%TO.N,Net-(D15-Pad1)*%
X128410700Y-68846700D03*
%TD*%
D11*
%TO.P,R1,2*%
%TO.N,Net-(Q1-Pad3)*%
X116522500Y-74497700D03*
%TO.P,R1,1*%
%TO.N,Net-(D1-Pad1)*%
X116522500Y-72847700D03*
%TD*%
D23*
%TO.N,+5V*%
X123367800Y-97485200D03*
X119837200Y-89001600D03*
X161366200Y-68376800D03*
%TO.N,Net-(D2-Pad1)*%
X156819600Y-70002400D03*
%TO.N,Net-(D4-Pad1)*%
X153974800Y-73126600D03*
%TO.N,+5V*%
X156464000Y-68757800D03*
%TO.N,Net-(D6-Pad1)*%
X153492200Y-68681600D03*
%TO.N,+5V*%
X155752800Y-64693800D03*
X153873200Y-62966600D03*
%TO.N,Net-(D8-Pad1)*%
X150571200Y-66370200D03*
%TO.N,+5V*%
X153416000Y-67157600D03*
%TO.N,Net-(D10-Pad1)*%
X150571200Y-70688200D03*
%TO.N,+5V*%
X153441400Y-70789800D03*
%TO.N,Net-(D12-Pad1)*%
X151358600Y-74930000D03*
%TO.N,Net-(D14-Pad1)*%
X149250400Y-77444600D03*
%TO.N,+5V*%
X150622000Y-73177400D03*
%TO.N,Net-(D16-Pad1)*%
X147904200Y-73279000D03*
%TO.N,+5V*%
X149809200Y-69113400D03*
%TO.N,Net-(D18-Pad1)*%
X146812000Y-68376800D03*
%TO.N,+5V*%
X150266400Y-64922400D03*
%TO.N,Net-(D20-Pad1)*%
X147701000Y-64008000D03*
%TO.N,+5V*%
X151409400Y-60807600D03*
X120484900Y-63487300D03*
X124675900Y-69126100D03*
X124269500Y-72809100D03*
X123837700Y-65189100D03*
X118097300Y-69761100D03*
X122745500Y-60871100D03*
X120992900Y-71234300D03*
X121043700Y-67576700D03*
X117640100Y-65747900D03*
X113296700Y-69075300D03*
%TO.N,Net-(D1-Pad1)*%
X116510300Y-71145900D03*
%TO.N,Net-(D3-Pad1)*%
X121081300Y-69430900D03*
%TO.N,Net-(D5-Pad1)*%
X120383300Y-73952100D03*
%TO.N,Net-(D7-Pad1)*%
X123964700Y-66687700D03*
%TO.N,Net-(D9-Pad1)*%
X124193300Y-70726300D03*
%TO.N,Net-(D11-Pad1)*%
X122720100Y-75526900D03*
%TO.N,Net-(D13-Pad1)*%
X126555500Y-64300100D03*
%TO.N,Net-(D15-Pad1)*%
X126504700Y-68846700D03*
%TO.N,Net-(D17-Pad1)*%
X125717300Y-73393300D03*
%TO.N,Net-(D19-Pad1)*%
X123976900Y-77508100D03*
%TD*%
D24*
%TO.N,+5V*%
X125994400Y-96403200D02*
X124449800Y-96403200D01*
X124449800Y-96403200D02*
X123367800Y-97485200D01*
X123301000Y-94589600D02*
X123301000Y-97418400D01*
D25*
X123431600Y-97549000D02*
X156286200Y-97549000D01*
X123431600Y-97549000D02*
X123367800Y-97485200D01*
D24*
X118351000Y-89001600D02*
X119837200Y-89001600D01*
%TO.N,/THR*%
X121285000Y-85318600D02*
X115087400Y-85318600D01*
X112191800Y-88214200D02*
X112191800Y-92735400D01*
X125196600Y-89230200D02*
X121285000Y-85318600D01*
X113144800Y-93688400D02*
X114122200Y-93688400D01*
X125196600Y-91186000D02*
X125196600Y-89230200D01*
X123301000Y-92049600D02*
X124333000Y-92049600D01*
X124333000Y-92049600D02*
X125196600Y-91186000D01*
X115087400Y-85318600D02*
X112191800Y-88214200D01*
X112191800Y-92735400D02*
X113144800Y-93688400D01*
%TO.N,LED_L*%
X126161800Y-93319600D02*
X123301000Y-93319600D01*
%TO.N,/THR*%
X114122200Y-93688400D02*
X115761000Y-93688400D01*
X118351000Y-93319600D02*
X117144800Y-93319600D01*
X117144800Y-93319600D02*
X116713000Y-93751400D01*
X116713000Y-93751400D02*
X115824000Y-93751400D01*
%TO.N,/DIS*%
X115824000Y-92101400D02*
X115824000Y-90093000D01*
X115824000Y-92101400D02*
X118299200Y-92101400D01*
D25*
%TO.N,+5V*%
X156286200Y-97549000D02*
X158156206Y-97549000D01*
X161366200Y-68376800D02*
X161366200Y-80492600D01*
X161366200Y-80492600D02*
X153136600Y-88722200D01*
X153136600Y-95758000D02*
X154927600Y-97549000D01*
X153136600Y-88722200D02*
X153136600Y-95758000D01*
D24*
X118097300Y-69761100D02*
X113982500Y-69761100D01*
X113982500Y-69761100D02*
X113296700Y-69075300D01*
D25*
%TO.N,Net-(BT1-Pad1)*%
X159359600Y-92100400D02*
X160401906Y-92100400D01*
X158154387Y-91828719D02*
X159087919Y-91828719D01*
X159087919Y-91828719D02*
X159359600Y-92100400D01*
%TO.N,/CE*%
X160434887Y-95645319D02*
X160434887Y-93717419D01*
%TO.N,Net-(BT1-Pad1)*%
X162599387Y-97561119D02*
X164109681Y-97561119D01*
X163156519Y-92061919D02*
X160440387Y-92061919D01*
X164541200Y-97129600D02*
X164541200Y-93446600D01*
X164109681Y-97561119D02*
X164541200Y-97129600D01*
X164541200Y-93446600D02*
X163156519Y-92061919D01*
%TO.N,GND*%
X162599387Y-96011119D02*
X162002081Y-96011119D01*
X162002081Y-96011119D02*
X161417881Y-96595319D01*
X161417881Y-96595319D02*
X160434887Y-96595319D01*
%TO.N,+5V*%
X161366200Y-68376800D02*
X161366200Y-63347600D01*
X161366200Y-63347600D02*
X157480000Y-59461400D01*
X157480000Y-59461400D02*
X124155200Y-59461400D01*
X124155200Y-59461400D02*
X122745500Y-60871100D01*
D24*
%TO.N,LED_L*%
X126161800Y-93319600D02*
X127101600Y-92379800D01*
X127101600Y-88620600D02*
X123850900Y-85369900D01*
X127101600Y-92379800D02*
X127101600Y-88620600D01*
X123850900Y-85369900D02*
X123850900Y-84467700D01*
%TO.N,LED_R*%
X127294400Y-96403200D02*
X131003000Y-96403200D01*
X131003000Y-96403200D02*
X137414000Y-89992200D01*
X137414000Y-89992200D02*
X137414000Y-85775800D01*
X137414000Y-85775800D02*
X139471400Y-83718400D01*
X139471400Y-83718400D02*
X142602600Y-83718400D01*
%TO.N,LED_L*%
X126161800Y-93319600D02*
X126644400Y-93802200D01*
X126644400Y-93802200D02*
X126644400Y-94503200D01*
%TO.N,+5V*%
X115836400Y-88430600D02*
X116878600Y-88430600D01*
X116878600Y-88430600D02*
X117449600Y-89001600D01*
X117449600Y-89001600D02*
X118351000Y-89001600D01*
D25*
%TO.N,/LX*%
X158154387Y-93953719D02*
X158154387Y-95639819D01*
D24*
%TO.N,Net-(Q2-Pad1)*%
X144252600Y-83718400D02*
X146024200Y-83718400D01*
%TO.N,Net-(Q2-Pad3)*%
X146583400Y-79375000D02*
X146025600Y-79932800D01*
X146025600Y-79932800D02*
X146025600Y-80719800D01*
%TO.N,Net-(Q1-Pad1)*%
X125502300Y-84469100D02*
X127267700Y-84469100D01*
%TO.N,Net-(Q1-Pad3)*%
X127267700Y-80480900D02*
X127267700Y-81469100D01*
X126682500Y-79895700D02*
X127267700Y-80480900D01*
%TO.N,Net-(Q2-Pad3)*%
X151333200Y-74066400D02*
X148539200Y-74066400D01*
X145885400Y-76440800D02*
X149846689Y-72479511D01*
X148539200Y-74066400D02*
X148399500Y-73926700D01*
X151993600Y-72668400D02*
X151993600Y-73406000D01*
X151993600Y-73406000D02*
X151333200Y-74066400D01*
%TO.N,+5V*%
X150622000Y-73177400D02*
X150622000Y-72823217D01*
X150622000Y-72823217D02*
X151614017Y-71831200D01*
X151614017Y-71831200D02*
X152400000Y-71831200D01*
X152400000Y-71831200D02*
X153441400Y-70789800D01*
%TO.N,Net-(D4-Pad1)*%
X153974800Y-73126600D02*
X154914600Y-73126600D01*
X154914600Y-73126600D02*
X155473400Y-73685400D01*
X155473400Y-73685400D02*
X155473400Y-74028800D01*
%TO.N,Net-(D2-Pad1)*%
X156819600Y-70002400D02*
X157581600Y-70002400D01*
X157581600Y-70002400D02*
X158115000Y-70535800D01*
%TO.N,+5V*%
X153416000Y-67157600D02*
X152375720Y-68197880D01*
X152375720Y-68197880D02*
X150724720Y-68197880D01*
X150724720Y-68197880D02*
X149809200Y-69113400D01*
X158343600Y-64693800D02*
X159385000Y-64693800D01*
X155752800Y-64693800D02*
X158343600Y-64693800D01*
X158343600Y-64693800D02*
X156464000Y-66573400D01*
X156464000Y-66573400D02*
X156464000Y-68757800D01*
%TO.N,Net-(Q2-Pad3)*%
X151765000Y-68922400D02*
X151194000Y-68922400D01*
X151194000Y-68922400D02*
X149846689Y-70269711D01*
X149846689Y-70269711D02*
X149846689Y-72479511D01*
%TO.N,Net-(D10-Pad1)*%
X150571200Y-70688200D02*
X150901400Y-71018400D01*
X150901400Y-71018400D02*
X151993600Y-71018400D01*
%TO.N,Net-(D8-Pad1)*%
X150571200Y-66370200D02*
X151485600Y-66370200D01*
X151485600Y-66370200D02*
X151765000Y-66649600D01*
X151765000Y-66649600D02*
X151765000Y-67272400D01*
%TO.N,Net-(Q2-Pad3)*%
X145885400Y-76440800D02*
X145885400Y-77444600D01*
%TO.N,Net-(D12-Pad1)*%
X152552400Y-76023200D02*
X152552400Y-75285600D01*
X152552400Y-75285600D02*
X152196800Y-74930000D01*
X152196800Y-74930000D02*
X151358600Y-74930000D01*
%TO.N,Net-(Q2-Pad3)*%
X155041600Y-70214214D02*
X152587414Y-72668400D01*
X152587414Y-72668400D02*
X151993600Y-72668400D01*
%TO.N,Net-(D6-Pad1)*%
X155041600Y-68530200D02*
X153643600Y-68530200D01*
X153643600Y-68530200D02*
X153492200Y-68681600D01*
%TO.N,+5V*%
X155967080Y-69254720D02*
X154417680Y-69254720D01*
X153441400Y-70231000D02*
X153441400Y-70789800D01*
X156464000Y-68757800D02*
X155967080Y-69254720D01*
X154417680Y-69254720D02*
X153441400Y-70231000D01*
X155752800Y-64693800D02*
X154940000Y-64693800D01*
X154940000Y-64693800D02*
X153416000Y-66217800D01*
X153416000Y-66217800D02*
X153416000Y-67157600D01*
X153873200Y-62966600D02*
X151917400Y-64922400D01*
X151917400Y-64922400D02*
X150266400Y-64922400D01*
X159385000Y-64693800D02*
X161366200Y-66675000D01*
X153873200Y-62966600D02*
X155346400Y-62966600D01*
X155346400Y-62966600D02*
X155752800Y-63373000D01*
X155752800Y-63373000D02*
X155752800Y-64693800D01*
X151409400Y-60807600D02*
X152603200Y-60807600D01*
X152603200Y-60807600D02*
X153873200Y-62077600D01*
X153873200Y-62077600D02*
X153873200Y-62966600D01*
%TO.N,Net-(Q2-Pad3)*%
X158115000Y-72351400D02*
X158115000Y-74066400D01*
X158115000Y-74066400D02*
X156502600Y-75678800D01*
X156502600Y-75678800D02*
X155473400Y-75678800D01*
X152552400Y-77673200D02*
X154432000Y-77673200D01*
X154432000Y-77673200D02*
X155473400Y-76631800D01*
X155473400Y-76631800D02*
X155473400Y-75678800D01*
X145885400Y-77444600D02*
X145885400Y-78677000D01*
X151638000Y-79375000D02*
X152552400Y-78460600D01*
X146583400Y-79375000D02*
X151638000Y-79375000D01*
X145885400Y-78677000D02*
X146583400Y-79375000D01*
X152552400Y-78460600D02*
X152552400Y-77673200D01*
X143662400Y-68376800D02*
X143662400Y-72796400D01*
X143662400Y-72796400D02*
X144145000Y-73279000D01*
X144145000Y-73279000D02*
X144666200Y-73279000D01*
X144666200Y-73279000D02*
X144666200Y-76695800D01*
X144666200Y-76695800D02*
X145415000Y-77444600D01*
X145415000Y-77444600D02*
X145885400Y-77444600D01*
X143713200Y-67157600D02*
X143713200Y-68326000D01*
X144488400Y-64058800D02*
X144488400Y-66382400D01*
X144488400Y-66382400D02*
X143713200Y-67157600D01*
%TO.N,Net-(D14-Pad1)*%
X147535400Y-77444600D02*
X149250400Y-77444600D01*
%TO.N,Net-(D16-Pad1)*%
X146316200Y-73279000D02*
X147904200Y-73279000D01*
%TO.N,Net-(D18-Pad1)*%
X145312400Y-68376800D02*
X146812000Y-68376800D01*
%TO.N,Net-(D20-Pad1)*%
X146138400Y-64058800D02*
X147650200Y-64058800D01*
X147650200Y-64058800D02*
X147701000Y-64008000D01*
%TO.N,Net-(D15-Pad1)*%
X126504700Y-68846700D02*
X128410700Y-68846700D01*
%TO.N,Net-(Q1-Pad3)*%
X130009900Y-63944500D02*
X130009900Y-68795900D01*
X130060700Y-68846700D02*
X130060700Y-72465700D01*
X130060700Y-72465700D02*
X129412500Y-73113900D01*
%TO.N,+5V*%
X124689211Y-66040611D02*
X124689211Y-69112789D01*
X123837700Y-65189100D02*
X122288300Y-65189100D01*
X122288300Y-65189100D02*
X121043700Y-66433700D01*
X121043700Y-66433700D02*
X121043700Y-67576700D01*
X123837700Y-65189100D02*
X124689211Y-66040611D01*
X124689211Y-69112789D02*
X124675900Y-69126100D01*
%TO.N,Net-(D13-Pad1)*%
X128004300Y-64300100D02*
X128359900Y-63944500D01*
X126555500Y-64300100D02*
X128004300Y-64300100D01*
%TO.N,Net-(D17-Pad1)*%
X125717300Y-73393300D02*
X127483100Y-73393300D01*
X127483100Y-73393300D02*
X127762500Y-73113900D01*
%TO.N,+5V*%
X118351000Y-89001600D02*
X118351000Y-90779600D01*
X122262900Y-60871100D02*
X122745500Y-60871100D01*
X124675900Y-69126100D02*
X125895100Y-70345300D01*
X117640100Y-65036700D02*
X119189500Y-63487300D01*
X120484900Y-63487300D02*
X120484900Y-62649100D01*
X113296700Y-67144900D02*
X114693700Y-65747900D01*
X118097300Y-68186300D02*
X118097300Y-69761100D01*
X121907300Y-71234300D02*
X120992900Y-71234300D01*
X118706900Y-67576700D02*
X118097300Y-68186300D01*
X117640100Y-65747900D02*
X117640100Y-65036700D01*
X125895100Y-70345300D02*
X125895100Y-71412100D01*
X121043700Y-67576700D02*
X118706900Y-67576700D01*
X124498100Y-72809100D02*
X124269500Y-72809100D01*
X124675900Y-69126100D02*
X124015500Y-69126100D01*
X120484900Y-62649100D02*
X122262900Y-60871100D01*
X125895100Y-71412100D02*
X124498100Y-72809100D01*
X124015500Y-69126100D02*
X121907300Y-71234300D01*
X113296700Y-69075300D02*
X113296700Y-67144900D01*
X114693700Y-65747900D02*
X117640100Y-65747900D01*
X119189500Y-63487300D02*
X120484900Y-63487300D01*
%TO.N,Net-(D1-Pad1)*%
X116510300Y-71145900D02*
X116510300Y-72835500D01*
%TO.N,Net-(D3-Pad1)*%
X121081300Y-69430900D02*
X121081300Y-69469500D01*
X121081300Y-69469500D02*
X120942100Y-69608700D01*
X120942100Y-69608700D02*
X119545100Y-69608700D01*
%TO.N,Net-(D5-Pad1)*%
X119748300Y-74917300D02*
X119037100Y-74917300D01*
X120383300Y-73952100D02*
X120383300Y-74282300D01*
X120383300Y-74282300D02*
X119748300Y-74917300D01*
%TO.N,Net-(D7-Pad1)*%
X123964700Y-66687700D02*
X123812300Y-66840100D01*
X123812300Y-66840100D02*
X122542300Y-66840100D01*
%TO.N,Net-(D9-Pad1)*%
X124193300Y-71158100D02*
X123672100Y-71679300D01*
X123672100Y-71679300D02*
X122872500Y-71679300D01*
X124193300Y-70726300D02*
X124193300Y-71158100D01*
%TO.N,Net-(D11-Pad1)*%
X122720100Y-75526900D02*
X122720100Y-76161900D01*
X122173500Y-76708500D02*
X121424700Y-76708500D01*
X122720100Y-76161900D02*
X122173500Y-76708500D01*
%TO.N,Net-(D19-Pad1)*%
X123976900Y-77508100D02*
X126377700Y-77508100D01*
%TO.N,Net-(Q1-Pad3)*%
X121678700Y-70370700D02*
X120433100Y-70370700D01*
X117094500Y-74497700D02*
X116522500Y-74497700D01*
X121424700Y-78358500D02*
X121424700Y-79032100D01*
X122491500Y-69557900D02*
X121678700Y-70370700D01*
X120433100Y-70370700D02*
X119545100Y-71258700D01*
X129412500Y-73113900D02*
X129412500Y-76174100D01*
X122872500Y-73329300D02*
X122872500Y-74028300D01*
X126682500Y-79895700D02*
X128053100Y-78525100D01*
X119037100Y-76567300D02*
X119037100Y-77254100D01*
X129412500Y-76174100D02*
X128053100Y-77533500D01*
X128053100Y-78525100D02*
X128053100Y-77533500D01*
X121424700Y-79032100D02*
X122288300Y-79895700D01*
X117791500Y-76567300D02*
X119037100Y-76567300D01*
X122491500Y-68439300D02*
X122491500Y-69557900D01*
X118961900Y-71258700D02*
X117640100Y-72580500D01*
X117640100Y-73952100D02*
X117094500Y-74497700D01*
X119545100Y-71258700D02*
X118961900Y-71258700D01*
X116522500Y-74497700D02*
X116522500Y-75298300D01*
X116522500Y-75298300D02*
X117791500Y-76567300D01*
X120141500Y-78358500D02*
X121424700Y-78358500D01*
X122872500Y-74028300D02*
X120333500Y-76567300D01*
X117640100Y-72580500D02*
X117640100Y-73952100D01*
X120333500Y-76567300D02*
X119037100Y-76567300D01*
X122288300Y-79895700D02*
X126682500Y-79895700D01*
X119037100Y-77254100D02*
X120141500Y-78358500D01*
%TO.N,/CV*%
X118351000Y-96291400D02*
X118351000Y-94589600D01*
%TD*%
%TA.AperFunction,Conductor*%
%TO.N,Net-(BT1-Pad1)*%
G36*
X163615794Y-96869170D02*
G01*
X163636811Y-96886096D01*
X163649854Y-96899134D01*
X163662930Y-96912207D01*
X163696963Y-96974514D01*
X163699846Y-97001343D01*
X163698725Y-101919077D01*
X163697621Y-106765611D01*
X163696204Y-112980494D01*
X163676186Y-113048610D01*
X163659885Y-113068970D01*
X163632487Y-113096731D01*
X163570400Y-113131164D01*
X163544493Y-113134211D01*
X161707779Y-113158768D01*
X161639397Y-113139678D01*
X161617480Y-113122352D01*
X161605584Y-113110583D01*
X161592800Y-113097936D01*
X161558441Y-113035809D01*
X161555416Y-113008029D01*
X161571868Y-106815016D01*
X161583462Y-106765611D01*
X161582490Y-106765218D01*
X161584244Y-106760876D01*
X161586309Y-106756689D01*
X161669164Y-106497852D01*
X161712849Y-106229611D01*
X161716407Y-105957860D01*
X161679758Y-105688568D01*
X161666112Y-105641748D01*
X161605017Y-105432145D01*
X161603707Y-105427650D01*
X161587363Y-105392196D01*
X161575789Y-105339111D01*
X161595392Y-97960235D01*
X161595440Y-97942120D01*
X161595706Y-97842120D01*
X161485075Y-97842040D01*
X160771812Y-97841526D01*
X160680853Y-97841460D01*
X159918163Y-97840910D01*
X159850058Y-97820859D01*
X159829130Y-97803975D01*
X159802871Y-97777698D01*
X159768870Y-97715375D01*
X159766000Y-97688636D01*
X159766000Y-97529819D01*
X159786002Y-97461698D01*
X159839658Y-97415205D01*
X159892000Y-97403819D01*
X161013889Y-97403819D01*
X161016337Y-97403626D01*
X161016345Y-97403626D01*
X161044808Y-97401386D01*
X161044813Y-97401385D01*
X161051218Y-97400881D01*
X161057394Y-97399087D01*
X161057398Y-97399086D01*
X161195989Y-97358822D01*
X161231141Y-97353819D01*
X161350811Y-97353819D01*
X161369761Y-97355252D01*
X161383996Y-97357418D01*
X161384000Y-97357418D01*
X161391230Y-97358518D01*
X161398522Y-97357925D01*
X161398525Y-97357925D01*
X161443899Y-97354234D01*
X161454114Y-97353819D01*
X161462174Y-97353819D01*
X161475464Y-97352270D01*
X161490388Y-97350530D01*
X161494763Y-97350097D01*
X161560220Y-97344773D01*
X161560223Y-97344772D01*
X161567518Y-97344179D01*
X161574482Y-97341923D01*
X161580441Y-97340732D01*
X161586296Y-97339348D01*
X161593562Y-97338501D01*
X161662208Y-97313584D01*
X161666336Y-97312167D01*
X161728817Y-97291926D01*
X161728819Y-97291925D01*
X161735780Y-97289670D01*
X161742035Y-97285874D01*
X161747509Y-97283368D01*
X161752939Y-97280649D01*
X161759818Y-97278152D01*
X161820857Y-97238133D01*
X161824561Y-97235796D01*
X161886988Y-97197914D01*
X161895365Y-97190516D01*
X161895389Y-97190543D01*
X161898381Y-97187890D01*
X161901614Y-97185187D01*
X161907733Y-97181175D01*
X161961009Y-97124936D01*
X161963387Y-97122494D01*
X162091658Y-96994223D01*
X162153970Y-96960197D01*
X162199542Y-96960130D01*
X162199630Y-96959268D01*
X162300655Y-96969619D01*
X162898119Y-96969619D01*
X162901365Y-96969282D01*
X162901369Y-96969282D01*
X162935470Y-96965744D01*
X163000406Y-96959006D01*
X163140679Y-96912207D01*
X163155711Y-96907192D01*
X163155713Y-96907191D01*
X163162655Y-96904875D01*
X163221922Y-96868199D01*
X163288155Y-96849345D01*
X163537448Y-96849211D01*
X163547662Y-96849205D01*
X163615794Y-96869170D01*
G37*
%TD.AperFunction*%
%TD*%
%TA.AperFunction,Conductor*%
%TO.N,GND*%
G36*
X169898321Y-57724002D02*
G01*
X169944814Y-57777658D01*
X169956200Y-57830000D01*
X169956200Y-121722600D01*
X169936198Y-121790721D01*
X169882542Y-121837214D01*
X169830200Y-121848600D01*
X102940400Y-121848600D01*
X102872279Y-121828598D01*
X102825786Y-121774942D01*
X102814400Y-121722600D01*
X102814400Y-118059800D01*
X111780689Y-118059800D01*
X111800702Y-118314086D01*
X111860247Y-118562111D01*
X111957859Y-118797767D01*
X112091134Y-119015251D01*
X112256790Y-119209210D01*
X112450749Y-119374866D01*
X112668233Y-119508141D01*
X112672803Y-119510034D01*
X112672807Y-119510036D01*
X112899316Y-119603859D01*
X112903889Y-119605753D01*
X112989089Y-119626208D01*
X113147101Y-119664143D01*
X113147107Y-119664144D01*
X113151914Y-119665298D01*
X113252251Y-119673195D01*
X113340074Y-119680107D01*
X113340081Y-119680107D01*
X113342530Y-119680300D01*
X113469870Y-119680300D01*
X113472319Y-119680107D01*
X113472326Y-119680107D01*
X113560149Y-119673195D01*
X113660486Y-119665298D01*
X113665293Y-119664144D01*
X113665299Y-119664143D01*
X113823311Y-119626207D01*
X113908511Y-119605753D01*
X113913084Y-119603859D01*
X114139593Y-119510036D01*
X114139597Y-119510034D01*
X114144167Y-119508141D01*
X114361651Y-119374866D01*
X114555610Y-119209210D01*
X114721266Y-119015251D01*
X114854541Y-118797767D01*
X114952153Y-118562111D01*
X115011698Y-118314086D01*
X115031711Y-118059800D01*
X115011698Y-117805514D01*
X114952153Y-117557489D01*
X114854541Y-117321833D01*
X114721266Y-117104349D01*
X114555610Y-116910390D01*
X114361651Y-116744734D01*
X114144167Y-116611459D01*
X114139597Y-116609566D01*
X114139593Y-116609564D01*
X113913084Y-116515741D01*
X113913082Y-116515740D01*
X113908511Y-116513847D01*
X113823311Y-116493392D01*
X113665299Y-116455457D01*
X113665293Y-116455456D01*
X113660486Y-116454302D01*
X113560149Y-116446405D01*
X113472326Y-116439493D01*
X113472319Y-116439493D01*
X113469870Y-116439300D01*
X113342530Y-116439300D01*
X113340081Y-116439493D01*
X113340074Y-116439493D01*
X113252251Y-116446405D01*
X113151914Y-116454302D01*
X113147107Y-116455456D01*
X113147101Y-116455457D01*
X112989089Y-116493392D01*
X112903889Y-116513847D01*
X112899318Y-116515740D01*
X112899316Y-116515741D01*
X112672807Y-116609564D01*
X112672803Y-116609566D01*
X112668233Y-116611459D01*
X112450749Y-116744734D01*
X112256790Y-116910390D01*
X112091134Y-117104349D01*
X111957859Y-117321833D01*
X111860247Y-117557489D01*
X111800702Y-117805514D01*
X111780689Y-118059800D01*
X102814400Y-118059800D01*
X102814400Y-92802793D01*
X111766300Y-92802793D01*
X111773714Y-92825610D01*
X111778328Y-92844829D01*
X111782081Y-92868526D01*
X111786584Y-92877363D01*
X111786584Y-92877364D01*
X111792972Y-92889902D01*
X111800536Y-92908163D01*
X111804885Y-92921547D01*
X111804887Y-92921550D01*
X111807951Y-92930981D01*
X111819807Y-92947299D01*
X111822053Y-92950391D01*
X111832377Y-92967237D01*
X111843272Y-92988620D01*
X112891580Y-94036928D01*
X112912954Y-94047818D01*
X112929806Y-94058144D01*
X112949220Y-94072250D01*
X112958649Y-94075314D01*
X112958652Y-94075315D01*
X112972039Y-94079665D01*
X112990303Y-94087230D01*
X113011674Y-94098119D01*
X113021466Y-94099670D01*
X113021469Y-94099671D01*
X113035369Y-94101873D01*
X113054588Y-94106487D01*
X113067973Y-94110836D01*
X113067980Y-94110837D01*
X113077407Y-94113900D01*
X113304033Y-94113900D01*
X113372154Y-94133902D01*
X113409911Y-94173918D01*
X113410072Y-94173795D01*
X113497122Y-94288478D01*
X113611805Y-94375528D01*
X113745672Y-94428529D01*
X113831371Y-94438900D01*
X114122008Y-94438900D01*
X114413028Y-94438899D01*
X114416785Y-94438444D01*
X114416791Y-94438444D01*
X114490695Y-94429501D01*
X114498728Y-94428529D01*
X114506251Y-94425551D01*
X114506253Y-94425550D01*
X114597194Y-94389544D01*
X114632595Y-94375528D01*
X114747278Y-94288478D01*
X114834328Y-94173795D01*
X114834683Y-94174065D01*
X114881461Y-94128517D01*
X114940367Y-94113900D01*
X114988284Y-94113900D01*
X115056405Y-94133902D01*
X115098804Y-94179391D01*
X115102323Y-94185818D01*
X115105474Y-94194224D01*
X115110858Y-94201407D01*
X115110858Y-94201408D01*
X115161864Y-94269465D01*
X115191454Y-94308946D01*
X115198635Y-94314328D01*
X115298994Y-94389544D01*
X115298997Y-94389546D01*
X115306176Y-94394926D01*
X115387867Y-94425550D01*
X115433025Y-94442479D01*
X115433027Y-94442479D01*
X115440420Y-94445251D01*
X115448270Y-94446104D01*
X115448271Y-94446104D01*
X115498217Y-94451530D01*
X115501623Y-94451900D01*
X115823952Y-94451900D01*
X116146376Y-94451899D01*
X116149770Y-94451530D01*
X116149776Y-94451530D01*
X116199722Y-94446105D01*
X116199726Y-94446104D01*
X116207580Y-94445251D01*
X116341824Y-94394926D01*
X116349003Y-94389546D01*
X116349006Y-94389544D01*
X116449365Y-94314328D01*
X116456546Y-94308946D01*
X116517712Y-94227334D01*
X116574571Y-94184820D01*
X116618537Y-94176900D01*
X116780393Y-94176900D01*
X116803210Y-94169486D01*
X116822429Y-94164872D01*
X116846126Y-94161119D01*
X116858640Y-94154743D01*
X116867502Y-94150228D01*
X116885763Y-94142664D01*
X116899147Y-94138315D01*
X116899150Y-94138313D01*
X116908581Y-94135249D01*
X116916603Y-94129420D01*
X116925438Y-94124919D01*
X116926572Y-94127145D01*
X116979997Y-94108076D01*
X117049150Y-94124149D01*
X117098636Y-94175057D01*
X117112743Y-94244638D01*
X117106087Y-94275617D01*
X117088102Y-94326833D01*
X117078481Y-94354231D01*
X117075500Y-94385766D01*
X117075500Y-94793434D01*
X117078481Y-94824969D01*
X117123366Y-94952784D01*
X117128958Y-94960354D01*
X117128959Y-94960357D01*
X117158915Y-95000913D01*
X117203850Y-95061750D01*
X117211421Y-95067342D01*
X117305243Y-95136641D01*
X117305246Y-95136642D01*
X117312816Y-95142234D01*
X117440631Y-95187119D01*
X117448277Y-95187842D01*
X117448278Y-95187842D01*
X117454248Y-95188406D01*
X117472166Y-95190100D01*
X117799500Y-95190100D01*
X117867621Y-95210102D01*
X117914114Y-95263758D01*
X117925500Y-95316100D01*
X117925500Y-95485030D01*
X117905498Y-95553151D01*
X117854886Y-95594780D01*
X117856077Y-95596893D01*
X117848599Y-95601107D01*
X117840605Y-95604272D01*
X117725922Y-95691322D01*
X117638872Y-95806005D01*
X117585871Y-95939872D01*
X117575500Y-96025571D01*
X117575501Y-96557228D01*
X117575956Y-96560985D01*
X117575956Y-96560991D01*
X117584370Y-96630526D01*
X117585871Y-96642928D01*
X117588849Y-96650451D01*
X117588850Y-96650453D01*
X117616841Y-96721149D01*
X117638872Y-96776795D01*
X117725922Y-96891478D01*
X117840605Y-96978528D01*
X117974472Y-97031529D01*
X118060171Y-97041900D01*
X118350808Y-97041900D01*
X118641828Y-97041899D01*
X118645585Y-97041444D01*
X118645591Y-97041444D01*
X118719495Y-97032501D01*
X118727528Y-97031529D01*
X118735051Y-97028551D01*
X118735053Y-97028550D01*
X118810951Y-96998500D01*
X118861395Y-96978528D01*
X118976078Y-96891478D01*
X119063128Y-96776795D01*
X119116129Y-96642928D01*
X119126500Y-96557229D01*
X119126499Y-96025572D01*
X119126044Y-96021806D01*
X119117101Y-95947905D01*
X119116129Y-95939872D01*
X119106728Y-95916126D01*
X119066292Y-95813997D01*
X119063128Y-95806005D01*
X118976078Y-95691322D01*
X118861395Y-95604272D01*
X118853401Y-95601107D01*
X118845923Y-95596893D01*
X118846965Y-95595043D01*
X118800139Y-95558503D01*
X118776500Y-95485030D01*
X118776500Y-95316100D01*
X118796502Y-95247979D01*
X118850158Y-95201486D01*
X118902500Y-95190100D01*
X119229834Y-95190100D01*
X119247752Y-95188406D01*
X119253722Y-95187842D01*
X119253723Y-95187842D01*
X119261369Y-95187119D01*
X119389184Y-95142234D01*
X119396754Y-95136642D01*
X119396757Y-95136641D01*
X119490579Y-95067342D01*
X119498150Y-95061750D01*
X119543085Y-95000913D01*
X119573041Y-94960357D01*
X119573042Y-94960354D01*
X119578634Y-94952784D01*
X119623519Y-94824969D01*
X119626500Y-94793434D01*
X119626500Y-94385766D01*
X119623519Y-94354231D01*
X119578634Y-94226416D01*
X119573042Y-94218846D01*
X119573041Y-94218843D01*
X119503742Y-94125021D01*
X119498150Y-94117450D01*
X119490579Y-94111858D01*
X119490576Y-94111855D01*
X119414888Y-94055951D01*
X119371977Y-93999390D01*
X119366457Y-93928608D01*
X119400081Y-93866079D01*
X119414888Y-93853249D01*
X119490576Y-93797345D01*
X119490579Y-93797342D01*
X119498150Y-93791750D01*
X119530480Y-93747979D01*
X119573041Y-93690357D01*
X119573042Y-93690354D01*
X119578634Y-93682784D01*
X119623519Y-93554969D01*
X119626500Y-93523434D01*
X119626500Y-93115766D01*
X119623519Y-93084231D01*
X119578634Y-92956416D01*
X119573042Y-92948846D01*
X119573041Y-92948843D01*
X119503742Y-92855021D01*
X119498150Y-92847450D01*
X119490579Y-92841858D01*
X119490576Y-92841855D01*
X119414888Y-92785951D01*
X119371977Y-92729390D01*
X119366457Y-92658608D01*
X119400081Y-92596079D01*
X119414888Y-92583249D01*
X119490576Y-92527345D01*
X119490579Y-92527342D01*
X119498150Y-92521750D01*
X119522170Y-92489230D01*
X119573041Y-92420357D01*
X119573042Y-92420354D01*
X119578634Y-92412784D01*
X119623519Y-92284969D01*
X119626500Y-92253434D01*
X119626500Y-91845766D01*
X119623519Y-91814231D01*
X119578634Y-91686416D01*
X119573042Y-91678846D01*
X119573041Y-91678843D01*
X119503742Y-91585021D01*
X119498150Y-91577450D01*
X119490579Y-91571858D01*
X119490576Y-91571855D01*
X119414888Y-91515951D01*
X119371977Y-91459390D01*
X119366457Y-91388608D01*
X119400081Y-91326079D01*
X119414888Y-91313249D01*
X119490576Y-91257345D01*
X119490579Y-91257342D01*
X119498150Y-91251750D01*
X119511143Y-91234159D01*
X119573041Y-91150357D01*
X119573042Y-91150354D01*
X119578634Y-91142784D01*
X119623519Y-91014969D01*
X119626500Y-90983434D01*
X119626500Y-90575766D01*
X119623519Y-90544231D01*
X119578634Y-90416416D01*
X119573042Y-90408846D01*
X119573041Y-90408843D01*
X119503742Y-90315021D01*
X119498150Y-90307450D01*
X119402206Y-90236584D01*
X119396757Y-90232559D01*
X119396754Y-90232558D01*
X119389184Y-90226966D01*
X119261369Y-90182081D01*
X119253723Y-90181358D01*
X119253722Y-90181358D01*
X119247752Y-90180794D01*
X119229834Y-90179100D01*
X118902500Y-90179100D01*
X118834379Y-90159098D01*
X118787886Y-90105442D01*
X118776500Y-90053100D01*
X118776500Y-89807970D01*
X118796502Y-89739849D01*
X118847114Y-89698220D01*
X118845923Y-89696107D01*
X118853401Y-89691893D01*
X118861395Y-89688728D01*
X118976078Y-89601678D01*
X119063128Y-89486995D01*
X119063483Y-89487265D01*
X119110261Y-89441717D01*
X119169167Y-89427100D01*
X119215834Y-89427100D01*
X119283955Y-89447102D01*
X119302531Y-89463231D01*
X119303030Y-89462683D01*
X119422812Y-89571677D01*
X119422816Y-89571680D01*
X119428433Y-89576791D01*
X119435106Y-89580414D01*
X119435110Y-89580417D01*
X119570758Y-89654067D01*
X119570760Y-89654068D01*
X119577435Y-89657692D01*
X119584784Y-89659620D01*
X119734083Y-89698788D01*
X119734085Y-89698788D01*
X119741433Y-89700716D01*
X119827809Y-89702073D01*
X119903361Y-89703260D01*
X119903364Y-89703260D01*
X119910960Y-89703379D01*
X119918365Y-89701683D01*
X119918366Y-89701683D01*
X119997627Y-89683530D01*
X120076229Y-89665528D01*
X120227698Y-89589347D01*
X120356623Y-89479234D01*
X120455561Y-89341547D01*
X120518801Y-89184234D01*
X120529811Y-89106872D01*
X120542109Y-89020462D01*
X120542109Y-89020459D01*
X120542690Y-89016378D01*
X120542762Y-89009532D01*
X120542802Y-89005735D01*
X120542802Y-89005729D01*
X120542845Y-89001600D01*
X120539017Y-88969963D01*
X120531341Y-88906534D01*
X120522476Y-88833280D01*
X120462545Y-88674677D01*
X120443941Y-88647608D01*
X120370814Y-88541208D01*
X120370813Y-88541207D01*
X120366512Y-88534949D01*
X120360319Y-88529431D01*
X120245592Y-88427212D01*
X120245588Y-88427210D01*
X120239921Y-88422160D01*
X120213856Y-88408359D01*
X120136459Y-88367380D01*
X120090081Y-88342824D01*
X119925641Y-88301519D01*
X119918043Y-88301479D01*
X119918041Y-88301479D01*
X119840868Y-88301075D01*
X119756095Y-88300631D01*
X119748708Y-88302405D01*
X119748704Y-88302405D01*
X119605362Y-88336820D01*
X119591232Y-88340212D01*
X119584488Y-88343693D01*
X119584485Y-88343694D01*
X119459194Y-88408362D01*
X119440569Y-88417975D01*
X119434847Y-88422967D01*
X119434845Y-88422968D01*
X119349673Y-88497268D01*
X119312804Y-88529431D01*
X119309118Y-88534676D01*
X119249105Y-88571649D01*
X119215913Y-88576100D01*
X119169167Y-88576100D01*
X119101046Y-88556098D01*
X119063289Y-88516082D01*
X119063128Y-88516205D01*
X118976078Y-88401522D01*
X118861395Y-88314472D01*
X118727528Y-88261471D01*
X118641829Y-88251100D01*
X118351192Y-88251100D01*
X118060172Y-88251101D01*
X118056415Y-88251556D01*
X118056409Y-88251556D01*
X117986874Y-88259970D01*
X117974472Y-88261471D01*
X117966949Y-88264449D01*
X117966947Y-88264450D01*
X117896251Y-88292441D01*
X117840605Y-88314472D01*
X117725922Y-88401522D01*
X117708087Y-88425019D01*
X117694732Y-88442613D01*
X117637613Y-88484779D01*
X117566765Y-88489371D01*
X117505275Y-88455527D01*
X117131820Y-88082072D01*
X117110437Y-88071177D01*
X117093591Y-88060853D01*
X117082204Y-88052580D01*
X117074181Y-88046751D01*
X117064750Y-88043687D01*
X117064747Y-88043685D01*
X117051363Y-88039336D01*
X117033102Y-88031772D01*
X117020564Y-88025384D01*
X117020563Y-88025384D01*
X117011726Y-88020881D01*
X116988029Y-88017128D01*
X116968810Y-88012514D01*
X116945993Y-88005100D01*
X116630937Y-88005100D01*
X116562816Y-87985098D01*
X116530111Y-87954666D01*
X116468946Y-87873054D01*
X116461765Y-87867672D01*
X116361406Y-87792456D01*
X116361403Y-87792454D01*
X116354224Y-87787074D01*
X116264839Y-87753566D01*
X116227375Y-87739521D01*
X116227373Y-87739521D01*
X116219980Y-87736749D01*
X116212130Y-87735896D01*
X116212129Y-87735896D01*
X116162174Y-87730469D01*
X116162173Y-87730469D01*
X116158777Y-87730100D01*
X115836448Y-87730100D01*
X115514024Y-87730101D01*
X115510630Y-87730470D01*
X115510624Y-87730470D01*
X115460678Y-87735895D01*
X115460674Y-87735896D01*
X115452820Y-87736749D01*
X115318576Y-87787074D01*
X115311397Y-87792454D01*
X115311394Y-87792456D01*
X115211035Y-87867672D01*
X115203854Y-87873054D01*
X115198472Y-87880235D01*
X115123256Y-87980594D01*
X115123254Y-87980597D01*
X115117874Y-87987776D01*
X115090912Y-88059698D01*
X115074016Y-88104770D01*
X115067549Y-88122020D01*
X115060900Y-88183223D01*
X115060901Y-88677976D01*
X115061270Y-88681370D01*
X115061270Y-88681376D01*
X115066673Y-88731112D01*
X115067549Y-88739180D01*
X115117874Y-88873424D01*
X115123254Y-88880603D01*
X115123256Y-88880606D01*
X115190226Y-88969963D01*
X115203854Y-88988146D01*
X115211035Y-88993528D01*
X115311394Y-89068744D01*
X115311397Y-89068746D01*
X115318576Y-89074126D01*
X115356226Y-89088240D01*
X115445425Y-89121679D01*
X115445427Y-89121679D01*
X115452820Y-89124451D01*
X115460669Y-89125304D01*
X115460670Y-89125304D01*
X115507006Y-89130338D01*
X115572568Y-89157581D01*
X115612994Y-89215944D01*
X115615448Y-89286899D01*
X115579152Y-89347916D01*
X115515630Y-89379624D01*
X115507010Y-89380863D01*
X115487004Y-89383036D01*
X115460679Y-89385895D01*
X115460676Y-89385896D01*
X115452820Y-89386749D01*
X115318576Y-89437074D01*
X115311397Y-89442454D01*
X115311394Y-89442456D01*
X115211035Y-89517672D01*
X115203854Y-89523054D01*
X115198472Y-89530235D01*
X115123256Y-89630594D01*
X115123254Y-89630597D01*
X115117874Y-89637776D01*
X115106835Y-89667223D01*
X115081616Y-89734497D01*
X115067549Y-89772020D01*
X115060900Y-89833223D01*
X115060901Y-90327976D01*
X115061270Y-90331370D01*
X115061270Y-90331376D01*
X115062286Y-90340724D01*
X115067549Y-90389180D01*
X115117874Y-90523424D01*
X115123254Y-90530603D01*
X115123256Y-90530606D01*
X115133468Y-90544231D01*
X115203854Y-90638146D01*
X115318576Y-90724126D01*
X115326982Y-90727277D01*
X115333009Y-90730577D01*
X115383155Y-90780835D01*
X115398500Y-90841097D01*
X115398500Y-91335936D01*
X115378498Y-91404057D01*
X115324842Y-91450550D01*
X115316745Y-91453912D01*
X115306176Y-91457874D01*
X115298997Y-91463254D01*
X115298994Y-91463256D01*
X115210075Y-91529898D01*
X115191454Y-91543854D01*
X115186072Y-91551035D01*
X115110856Y-91651394D01*
X115110854Y-91651397D01*
X115105474Y-91658576D01*
X115055149Y-91792820D01*
X115048500Y-91854023D01*
X115048501Y-92348776D01*
X115048870Y-92352170D01*
X115048870Y-92352176D01*
X115053862Y-92398128D01*
X115055149Y-92409980D01*
X115105474Y-92544224D01*
X115110854Y-92551403D01*
X115110856Y-92551406D01*
X115178460Y-92641608D01*
X115191454Y-92658946D01*
X115198635Y-92664328D01*
X115298994Y-92739544D01*
X115298997Y-92739546D01*
X115306176Y-92744926D01*
X115395561Y-92778434D01*
X115433025Y-92792479D01*
X115433027Y-92792479D01*
X115440420Y-92795251D01*
X115448269Y-92796104D01*
X115448270Y-92796104D01*
X115494606Y-92801138D01*
X115560168Y-92828381D01*
X115600594Y-92886744D01*
X115603048Y-92957699D01*
X115566752Y-93018716D01*
X115503230Y-93050424D01*
X115494610Y-93051663D01*
X115474604Y-93053836D01*
X115448279Y-93056695D01*
X115448276Y-93056696D01*
X115440420Y-93057549D01*
X115306176Y-93107874D01*
X115298997Y-93113254D01*
X115298994Y-93113256D01*
X115198635Y-93188472D01*
X115191454Y-93193854D01*
X115177544Y-93212415D01*
X115177507Y-93212464D01*
X115120648Y-93254980D01*
X115076680Y-93262900D01*
X114940367Y-93262900D01*
X114872246Y-93242898D01*
X114834489Y-93202882D01*
X114834328Y-93203005D01*
X114747278Y-93088322D01*
X114632595Y-93001272D01*
X114498728Y-92948271D01*
X114413029Y-92937900D01*
X114122392Y-92937900D01*
X113831372Y-92937901D01*
X113827615Y-92938356D01*
X113827609Y-92938356D01*
X113758074Y-92946770D01*
X113745672Y-92948271D01*
X113738149Y-92951249D01*
X113738147Y-92951250D01*
X113699448Y-92966572D01*
X113611805Y-93001272D01*
X113497122Y-93088322D01*
X113433137Y-93172619D01*
X113376021Y-93214784D01*
X113305173Y-93219377D01*
X113243681Y-93185533D01*
X112654205Y-92596057D01*
X112620179Y-92533745D01*
X112617300Y-92506962D01*
X112617300Y-88442638D01*
X112637302Y-88374517D01*
X112654205Y-88353543D01*
X115226743Y-85781005D01*
X115289055Y-85746979D01*
X115315838Y-85744100D01*
X121056562Y-85744100D01*
X121124683Y-85764102D01*
X121145657Y-85781005D01*
X124734195Y-89369543D01*
X124768221Y-89431855D01*
X124771100Y-89458638D01*
X124771100Y-90957562D01*
X124751098Y-91025683D01*
X124734195Y-91046657D01*
X124354310Y-91426542D01*
X124291998Y-91460568D01*
X124223463Y-91456328D01*
X124211369Y-91452081D01*
X124203723Y-91451358D01*
X124203722Y-91451358D01*
X124197752Y-91450794D01*
X124179834Y-91449100D01*
X122422166Y-91449100D01*
X122404248Y-91450794D01*
X122398278Y-91451358D01*
X122398277Y-91451358D01*
X122390631Y-91452081D01*
X122262816Y-91496966D01*
X122255246Y-91502558D01*
X122255243Y-91502559D01*
X122189617Y-91551032D01*
X122153850Y-91577450D01*
X122148258Y-91585021D01*
X122078959Y-91678843D01*
X122078958Y-91678846D01*
X122073366Y-91686416D01*
X122028481Y-91814231D01*
X122025500Y-91845766D01*
X122025500Y-92253434D01*
X122028481Y-92284969D01*
X122073366Y-92412784D01*
X122078958Y-92420354D01*
X122078959Y-92420357D01*
X122129830Y-92489230D01*
X122153850Y-92521750D01*
X122161421Y-92527342D01*
X122161424Y-92527345D01*
X122237112Y-92583249D01*
X122280023Y-92639810D01*
X122285543Y-92710592D01*
X122251919Y-92773121D01*
X122237112Y-92785951D01*
X122161424Y-92841855D01*
X122161421Y-92841858D01*
X122153850Y-92847450D01*
X122148258Y-92855021D01*
X122078959Y-92948843D01*
X122078958Y-92948846D01*
X122073366Y-92956416D01*
X122028481Y-93084231D01*
X122025500Y-93115766D01*
X122025500Y-93523434D01*
X122028481Y-93554969D01*
X122073366Y-93682784D01*
X122078958Y-93690354D01*
X122078959Y-93690357D01*
X122121520Y-93747979D01*
X122153850Y-93791750D01*
X122161421Y-93797342D01*
X122161424Y-93797345D01*
X122237112Y-93853249D01*
X122280023Y-93909810D01*
X122285543Y-93980592D01*
X122251919Y-94043121D01*
X122237112Y-94055951D01*
X122161424Y-94111855D01*
X122161421Y-94111858D01*
X122153850Y-94117450D01*
X122148258Y-94125021D01*
X122078959Y-94218843D01*
X122078958Y-94218846D01*
X122073366Y-94226416D01*
X122028481Y-94354231D01*
X122025500Y-94385766D01*
X122025500Y-94793434D01*
X122028481Y-94824969D01*
X122073366Y-94952784D01*
X122078958Y-94960354D01*
X122078959Y-94960357D01*
X122108915Y-95000913D01*
X122153850Y-95061750D01*
X122161421Y-95067342D01*
X122255243Y-95136641D01*
X122255246Y-95136642D01*
X122262816Y-95142234D01*
X122390631Y-95187119D01*
X122398277Y-95187842D01*
X122398278Y-95187842D01*
X122404248Y-95188406D01*
X122422166Y-95190100D01*
X122749500Y-95190100D01*
X122817621Y-95210102D01*
X122864114Y-95263758D01*
X122875500Y-95316100D01*
X122875500Y-96930382D01*
X122855498Y-96998503D01*
X122846400Y-97010417D01*
X122843404Y-97013031D01*
X122829720Y-97032501D01*
X122767742Y-97120688D01*
X122745913Y-97151747D01*
X122684324Y-97309713D01*
X122683332Y-97317246D01*
X122683332Y-97317247D01*
X122666275Y-97446815D01*
X122662194Y-97477811D01*
X122680799Y-97646335D01*
X122683409Y-97653466D01*
X122729966Y-97780688D01*
X122739066Y-97805556D01*
X122833630Y-97946283D01*
X122839242Y-97951390D01*
X122839245Y-97951393D01*
X122953412Y-98055277D01*
X122953416Y-98055280D01*
X122959033Y-98060391D01*
X122965706Y-98064014D01*
X122965710Y-98064017D01*
X123101358Y-98137667D01*
X123101360Y-98137668D01*
X123108035Y-98141292D01*
X123115384Y-98143220D01*
X123264683Y-98182388D01*
X123264685Y-98182388D01*
X123272033Y-98184316D01*
X123358409Y-98185673D01*
X123433961Y-98186860D01*
X123433964Y-98186860D01*
X123441560Y-98186979D01*
X123448965Y-98185283D01*
X123448966Y-98185283D01*
X123509386Y-98171445D01*
X123606829Y-98149128D01*
X123678790Y-98112935D01*
X123735405Y-98099500D01*
X154891819Y-98099500D01*
X154904990Y-98100190D01*
X154945054Y-98104401D01*
X154953519Y-98102969D01*
X154953528Y-98102969D01*
X154963600Y-98101265D01*
X154984613Y-98099500D01*
X155561001Y-98099500D01*
X155629122Y-98119502D01*
X155650095Y-98136403D01*
X155655929Y-98142237D01*
X155661122Y-98149078D01*
X155775805Y-98236128D01*
X155909672Y-98289129D01*
X155995371Y-98299500D01*
X156286008Y-98299500D01*
X156577028Y-98299499D01*
X156580785Y-98299044D01*
X156580791Y-98299044D01*
X156654695Y-98290101D01*
X156662728Y-98289129D01*
X156670251Y-98286151D01*
X156670253Y-98286150D01*
X156766566Y-98248017D01*
X156796595Y-98236128D01*
X156911278Y-98149078D01*
X156916471Y-98142237D01*
X156922305Y-98136403D01*
X156984618Y-98102379D01*
X157011399Y-98099500D01*
X157417126Y-98099500D01*
X157458874Y-98106617D01*
X157495566Y-98119502D01*
X157562018Y-98142838D01*
X157569664Y-98143561D01*
X157569665Y-98143561D01*
X157575635Y-98144125D01*
X157593553Y-98145819D01*
X158726221Y-98145819D01*
X158744139Y-98144125D01*
X158750109Y-98143561D01*
X158750110Y-98143561D01*
X158757756Y-98142838D01*
X158885571Y-98097953D01*
X158893141Y-98092361D01*
X158893144Y-98092360D01*
X158986966Y-98023061D01*
X158994537Y-98017469D01*
X159050645Y-97941505D01*
X159069424Y-97916081D01*
X159069425Y-97916080D01*
X159075021Y-97908503D01*
X159077844Y-97900464D01*
X159127065Y-97849962D01*
X159196240Y-97833980D01*
X159263073Y-97857934D01*
X159306939Y-97915776D01*
X159322919Y-97958668D01*
X159356920Y-98020991D01*
X159359617Y-98024596D01*
X159359618Y-98024598D01*
X159364421Y-98031019D01*
X159443538Y-98136785D01*
X159469797Y-98163062D01*
X159510156Y-98199348D01*
X159531084Y-98216232D01*
X159532433Y-98217206D01*
X159563020Y-98239292D01*
X159575103Y-98248017D01*
X159706585Y-98308178D01*
X159740637Y-98318203D01*
X159770369Y-98326957D01*
X159770371Y-98326957D01*
X159774690Y-98328229D01*
X159835461Y-98337011D01*
X159913344Y-98348267D01*
X159913351Y-98348268D01*
X159917797Y-98348910D01*
X160680484Y-98349460D01*
X160771443Y-98349526D01*
X160771446Y-98349526D01*
X160960112Y-98349662D01*
X161028218Y-98369713D01*
X161074672Y-98423402D01*
X161086021Y-98475997D01*
X161069548Y-104676397D01*
X161049365Y-104744464D01*
X160995586Y-104790814D01*
X160925285Y-104800731D01*
X160861720Y-104771874D01*
X160841651Y-104754734D01*
X160624167Y-104621459D01*
X160619597Y-104619566D01*
X160619593Y-104619564D01*
X160393084Y-104525741D01*
X160393082Y-104525740D01*
X160388511Y-104523847D01*
X160303311Y-104503392D01*
X160145299Y-104465457D01*
X160145293Y-104465456D01*
X160140486Y-104464302D01*
X160040149Y-104456405D01*
X159952326Y-104449493D01*
X159952319Y-104449493D01*
X159949870Y-104449300D01*
X159822530Y-104449300D01*
X159820081Y-104449493D01*
X159820074Y-104449493D01*
X159732251Y-104456405D01*
X159631914Y-104464302D01*
X159627107Y-104465456D01*
X159627101Y-104465457D01*
X159469089Y-104503392D01*
X159383889Y-104523847D01*
X159379318Y-104525740D01*
X159379316Y-104525741D01*
X159152807Y-104619564D01*
X159152803Y-104619566D01*
X159148233Y-104621459D01*
X158930749Y-104754734D01*
X158736790Y-104920390D01*
X158571134Y-105114349D01*
X158437859Y-105331833D01*
X158340247Y-105567489D01*
X158280702Y-105815514D01*
X158260689Y-106069800D01*
X158280702Y-106324086D01*
X158340247Y-106572111D01*
X158437859Y-106807767D01*
X158571134Y-107025251D01*
X158736790Y-107219210D01*
X158930749Y-107384866D01*
X159148233Y-107518141D01*
X159152803Y-107520034D01*
X159152807Y-107520036D01*
X159379316Y-107613859D01*
X159383889Y-107615753D01*
X159469089Y-107636208D01*
X159627101Y-107674143D01*
X159627107Y-107674144D01*
X159631914Y-107675298D01*
X159732251Y-107683195D01*
X159820074Y-107690107D01*
X159820081Y-107690107D01*
X159822530Y-107690300D01*
X159949870Y-107690300D01*
X159952319Y-107690107D01*
X159952326Y-107690107D01*
X160040149Y-107683195D01*
X160140486Y-107675298D01*
X160145293Y-107674144D01*
X160145299Y-107674143D01*
X160303311Y-107636208D01*
X160388511Y-107615753D01*
X160393084Y-107613859D01*
X160619593Y-107520036D01*
X160619597Y-107520034D01*
X160624167Y-107518141D01*
X160841651Y-107384866D01*
X160845411Y-107381654D01*
X160845416Y-107381651D01*
X160854295Y-107374067D01*
X160919084Y-107345036D01*
X160989284Y-107355641D01*
X161042607Y-107402516D01*
X161062125Y-107470213D01*
X161054723Y-110256692D01*
X161047418Y-113006679D01*
X161050401Y-113063021D01*
X161053426Y-113090801D01*
X161062638Y-113146461D01*
X161113896Y-113281662D01*
X161148255Y-113343789D01*
X161235530Y-113459076D01*
X161248307Y-113471716D01*
X161260203Y-113483485D01*
X161261515Y-113484646D01*
X161301142Y-113519718D01*
X161301153Y-113519727D01*
X161302442Y-113520868D01*
X161324359Y-113538194D01*
X161370487Y-113570667D01*
X161376209Y-113573188D01*
X161376212Y-113573190D01*
X161498685Y-113627155D01*
X161498691Y-113627157D01*
X161502803Y-113628969D01*
X161571185Y-113648059D01*
X161642878Y-113657391D01*
X161710106Y-113666142D01*
X161710107Y-113666142D01*
X161714570Y-113666723D01*
X161719068Y-113666663D01*
X161719070Y-113666663D01*
X163549674Y-113642188D01*
X163549692Y-113642187D01*
X163551284Y-113642166D01*
X163552883Y-113642062D01*
X163552897Y-113642061D01*
X163602208Y-113638840D01*
X163603831Y-113638734D01*
X163629738Y-113635687D01*
X163631357Y-113635411D01*
X163631370Y-113635409D01*
X163675584Y-113627868D01*
X163675587Y-113627867D01*
X163681639Y-113626835D01*
X163816780Y-113575417D01*
X163878867Y-113540984D01*
X163994053Y-113453570D01*
X164021451Y-113425809D01*
X164056443Y-113386469D01*
X164072744Y-113366109D01*
X164103478Y-113323356D01*
X164163575Y-113191844D01*
X164183593Y-113123728D01*
X164204204Y-112980610D01*
X164205621Y-106765727D01*
X164206725Y-101919193D01*
X164207572Y-98203470D01*
X164227590Y-98135355D01*
X164281256Y-98088874D01*
X164292478Y-98085040D01*
X164292435Y-98084927D01*
X164300457Y-98081848D01*
X164308817Y-98079887D01*
X164316342Y-98075750D01*
X164316345Y-98075749D01*
X164346949Y-98058924D01*
X164357594Y-98053708D01*
X164397536Y-98036424D01*
X164409222Y-98026961D01*
X164427807Y-98014473D01*
X164435199Y-98010409D01*
X164440989Y-98007226D01*
X164449103Y-98000222D01*
X164473639Y-97975686D01*
X164483440Y-97966861D01*
X164508073Y-97946913D01*
X164508074Y-97946912D01*
X164514751Y-97941505D01*
X164525647Y-97926173D01*
X164539257Y-97910068D01*
X164919855Y-97529469D01*
X164923665Y-97525816D01*
X164963033Y-97489615D01*
X164969356Y-97483801D01*
X164992299Y-97446798D01*
X164999000Y-97437048D01*
X165025312Y-97402383D01*
X165030846Y-97388404D01*
X165040907Y-97368401D01*
X165048835Y-97355614D01*
X165060975Y-97313828D01*
X165064821Y-97302595D01*
X165077673Y-97270135D01*
X165080836Y-97262147D01*
X165082408Y-97247192D01*
X165086720Y-97225217D01*
X165090915Y-97210775D01*
X165091700Y-97200085D01*
X165091700Y-97165383D01*
X165092390Y-97152213D01*
X165095703Y-97120688D01*
X165096601Y-97112146D01*
X165095169Y-97103681D01*
X165095169Y-97103672D01*
X165093465Y-97093600D01*
X165091700Y-97072587D01*
X165091700Y-93461593D01*
X165091811Y-93456317D01*
X165094050Y-93402891D01*
X165094410Y-93394306D01*
X165092448Y-93385941D01*
X165084473Y-93351938D01*
X165082310Y-93340267D01*
X165079479Y-93319600D01*
X165076406Y-93297168D01*
X165070435Y-93283370D01*
X165063401Y-93262101D01*
X165061929Y-93255825D01*
X165059968Y-93247464D01*
X165055831Y-93239939D01*
X165055830Y-93239936D01*
X165039005Y-93209332D01*
X165033789Y-93198687D01*
X165016505Y-93158745D01*
X165007042Y-93147059D01*
X164994554Y-93128474D01*
X164990490Y-93121082D01*
X164987307Y-93115292D01*
X164980303Y-93107178D01*
X164955767Y-93082642D01*
X164946942Y-93072841D01*
X164926994Y-93048208D01*
X164926993Y-93048207D01*
X164921586Y-93041530D01*
X164914588Y-93036557D01*
X164914583Y-93036552D01*
X164906252Y-93030632D01*
X164890146Y-93017021D01*
X163556401Y-91683277D01*
X163552748Y-91679468D01*
X163531074Y-91655898D01*
X163510720Y-91633763D01*
X163473717Y-91610820D01*
X163463967Y-91604119D01*
X163429302Y-91577807D01*
X163415323Y-91572273D01*
X163395320Y-91562212D01*
X163382533Y-91554284D01*
X163374282Y-91551887D01*
X163374280Y-91551886D01*
X163340747Y-91542144D01*
X163329514Y-91538298D01*
X163289066Y-91522283D01*
X163280525Y-91521385D01*
X163280524Y-91521385D01*
X163274111Y-91520711D01*
X163252136Y-91516399D01*
X163237694Y-91512204D01*
X163230211Y-91511654D01*
X163229311Y-91511588D01*
X163229300Y-91511588D01*
X163227004Y-91511419D01*
X163192302Y-91511419D01*
X163179132Y-91510729D01*
X163168903Y-91509654D01*
X163139065Y-91506518D01*
X163130600Y-91507950D01*
X163130591Y-91507950D01*
X163120519Y-91509654D01*
X163099506Y-91511419D01*
X161124310Y-91511419D01*
X161056189Y-91491417D01*
X161048745Y-91486245D01*
X160965393Y-91423775D01*
X160965390Y-91423773D01*
X160958211Y-91418393D01*
X160868826Y-91384885D01*
X160831362Y-91370840D01*
X160831360Y-91370840D01*
X160823967Y-91368068D01*
X160816117Y-91367215D01*
X160816116Y-91367215D01*
X160766161Y-91361788D01*
X160766160Y-91361788D01*
X160762764Y-91361419D01*
X160440435Y-91361419D01*
X160118011Y-91361420D01*
X160114617Y-91361789D01*
X160114611Y-91361789D01*
X160064665Y-91367214D01*
X160064661Y-91367215D01*
X160056807Y-91368068D01*
X159922563Y-91418393D01*
X159915384Y-91423773D01*
X159915381Y-91423775D01*
X159815024Y-91498989D01*
X159815022Y-91498991D01*
X159807841Y-91504373D01*
X159802459Y-91511554D01*
X159801015Y-91512998D01*
X159738702Y-91547021D01*
X159711922Y-91549900D01*
X159639814Y-91549900D01*
X159571693Y-91529898D01*
X159550719Y-91512995D01*
X159487800Y-91450076D01*
X159484147Y-91446267D01*
X159466009Y-91426542D01*
X159442120Y-91400563D01*
X159405117Y-91377620D01*
X159395367Y-91370919D01*
X159360702Y-91344607D01*
X159346723Y-91339073D01*
X159326720Y-91329012D01*
X159313933Y-91321084D01*
X159305682Y-91318687D01*
X159305680Y-91318686D01*
X159272147Y-91308944D01*
X159260914Y-91305098D01*
X159236496Y-91295430D01*
X159220466Y-91289083D01*
X159211925Y-91288185D01*
X159211924Y-91288185D01*
X159205511Y-91287511D01*
X159183536Y-91283199D01*
X159169094Y-91279004D01*
X159161611Y-91278455D01*
X159160711Y-91278388D01*
X159160700Y-91278388D01*
X159158404Y-91278219D01*
X159123702Y-91278219D01*
X159110532Y-91277529D01*
X159100303Y-91276454D01*
X159070465Y-91273318D01*
X159062000Y-91274750D01*
X159061991Y-91274750D01*
X159051919Y-91276454D01*
X159030906Y-91278219D01*
X158995663Y-91278219D01*
X158927542Y-91258217D01*
X158909595Y-91243754D01*
X158906254Y-91239352D01*
X158899415Y-91234161D01*
X158899413Y-91234159D01*
X158851820Y-91198034D01*
X158792935Y-91153338D01*
X158660660Y-91100966D01*
X158652623Y-91099993D01*
X158652621Y-91099993D01*
X158621937Y-91096280D01*
X158575981Y-91090719D01*
X157732793Y-91090719D01*
X157686837Y-91096280D01*
X157656153Y-91099993D01*
X157656151Y-91099993D01*
X157648114Y-91100966D01*
X157515839Y-91153338D01*
X157402520Y-91239352D01*
X157316506Y-91352671D01*
X157264134Y-91484946D01*
X157263161Y-91492983D01*
X157263161Y-91492985D01*
X157260740Y-91512995D01*
X157253887Y-91569625D01*
X157253887Y-92087813D01*
X157264134Y-92172492D01*
X157316506Y-92304767D01*
X157402520Y-92418086D01*
X157515839Y-92504100D01*
X157648114Y-92556472D01*
X157656151Y-92557445D01*
X157656153Y-92557445D01*
X157686837Y-92561158D01*
X157732793Y-92566719D01*
X158575981Y-92566719D01*
X158621937Y-92561158D01*
X158652621Y-92557445D01*
X158652623Y-92557445D01*
X158660660Y-92556472D01*
X158792935Y-92504100D01*
X158813496Y-92488493D01*
X158879848Y-92463240D01*
X158949321Y-92477868D01*
X158982420Y-92503567D01*
X159005399Y-92528556D01*
X159042402Y-92551499D01*
X159052152Y-92558200D01*
X159086817Y-92584512D01*
X159100795Y-92590046D01*
X159120799Y-92600107D01*
X159133586Y-92608035D01*
X159141837Y-92610432D01*
X159141839Y-92610433D01*
X159175372Y-92620175D01*
X159186602Y-92624020D01*
X159227053Y-92640036D01*
X159235594Y-92640934D01*
X159235595Y-92640934D01*
X159242008Y-92641608D01*
X159263983Y-92645920D01*
X159278425Y-92650115D01*
X159285908Y-92650664D01*
X159286808Y-92650731D01*
X159286819Y-92650731D01*
X159289115Y-92650900D01*
X159323817Y-92650900D01*
X159336987Y-92651590D01*
X159377054Y-92655801D01*
X159385519Y-92654369D01*
X159385528Y-92654369D01*
X159395600Y-92652665D01*
X159416613Y-92650900D01*
X159807808Y-92650900D01*
X159875929Y-92670902D01*
X159883361Y-92676065D01*
X159922563Y-92705445D01*
X160011948Y-92738953D01*
X160049412Y-92752998D01*
X160049414Y-92752998D01*
X160056807Y-92755770D01*
X160064656Y-92756623D01*
X160064657Y-92756623D01*
X160110993Y-92761657D01*
X160176555Y-92788900D01*
X160216981Y-92847263D01*
X160219435Y-92918218D01*
X160183139Y-92979235D01*
X160119617Y-93010943D01*
X160110997Y-93012182D01*
X160090991Y-93014355D01*
X160064666Y-93017214D01*
X160064663Y-93017215D01*
X160056807Y-93018068D01*
X159922563Y-93068393D01*
X159915384Y-93073773D01*
X159915381Y-93073775D01*
X159815022Y-93148991D01*
X159807841Y-93154373D01*
X159802459Y-93161554D01*
X159727243Y-93261913D01*
X159727241Y-93261916D01*
X159721861Y-93269095D01*
X159671536Y-93403339D01*
X159664887Y-93464542D01*
X159664888Y-93959295D01*
X159665257Y-93962689D01*
X159665257Y-93962695D01*
X159669858Y-94005047D01*
X159671536Y-94020499D01*
X159721861Y-94154743D01*
X159727241Y-94161922D01*
X159727243Y-94161925D01*
X159775577Y-94226416D01*
X159807841Y-94269465D01*
X159833210Y-94288478D01*
X159833952Y-94289034D01*
X159876467Y-94345893D01*
X159884387Y-94389860D01*
X159884387Y-94941869D01*
X159864385Y-95009990D01*
X159810729Y-95056483D01*
X159800138Y-95060751D01*
X159709203Y-95092685D01*
X159701633Y-95098277D01*
X159701630Y-95098278D01*
X159617181Y-95160654D01*
X159600237Y-95173169D01*
X159594645Y-95180740D01*
X159525346Y-95274562D01*
X159525345Y-95274565D01*
X159519753Y-95282135D01*
X159474868Y-95409950D01*
X159471887Y-95441485D01*
X159471887Y-95849153D01*
X159474868Y-95880688D01*
X159519753Y-96008503D01*
X159525345Y-96016073D01*
X159525346Y-96016076D01*
X159550529Y-96050170D01*
X159600237Y-96117469D01*
X159607808Y-96123061D01*
X159701630Y-96192360D01*
X159701633Y-96192361D01*
X159709203Y-96197953D01*
X159837018Y-96242838D01*
X159844664Y-96243561D01*
X159844665Y-96243561D01*
X159850635Y-96244125D01*
X159868553Y-96245819D01*
X161001221Y-96245819D01*
X161019139Y-96244125D01*
X161025109Y-96243561D01*
X161025110Y-96243561D01*
X161032756Y-96242838D01*
X161160571Y-96197953D01*
X161168141Y-96192361D01*
X161168144Y-96192360D01*
X161261966Y-96123061D01*
X161269537Y-96117469D01*
X161319245Y-96050170D01*
X161344428Y-96016076D01*
X161344429Y-96016073D01*
X161350021Y-96008503D01*
X161394906Y-95880688D01*
X161397887Y-95849153D01*
X161397887Y-95441485D01*
X161394906Y-95409950D01*
X161350021Y-95282135D01*
X161344429Y-95274565D01*
X161344428Y-95274562D01*
X161275129Y-95180740D01*
X161269537Y-95173169D01*
X161252593Y-95160654D01*
X161168144Y-95098278D01*
X161168141Y-95098277D01*
X161160571Y-95092685D01*
X161069638Y-95060752D01*
X161011993Y-95019308D01*
X160985905Y-94953279D01*
X160985387Y-94941869D01*
X160985387Y-94398105D01*
X161005389Y-94329984D01*
X161035822Y-94297279D01*
X161065748Y-94274850D01*
X161072933Y-94269465D01*
X161105197Y-94226416D01*
X161153531Y-94161925D01*
X161153533Y-94161922D01*
X161158913Y-94154743D01*
X161197309Y-94052320D01*
X161206466Y-94027894D01*
X161206466Y-94027892D01*
X161209238Y-94020499D01*
X161215887Y-93959296D01*
X161215886Y-93464543D01*
X161215280Y-93458965D01*
X161210092Y-93411197D01*
X161210091Y-93411193D01*
X161209238Y-93403339D01*
X161158913Y-93269095D01*
X161153533Y-93261916D01*
X161153531Y-93261913D01*
X161078315Y-93161554D01*
X161072933Y-93154373D01*
X161065752Y-93148991D01*
X160965393Y-93073775D01*
X160965390Y-93073773D01*
X160958211Y-93068393D01*
X160840909Y-93024419D01*
X160831362Y-93020840D01*
X160831360Y-93020840D01*
X160823967Y-93018068D01*
X160816118Y-93017215D01*
X160816117Y-93017215D01*
X160769781Y-93012181D01*
X160704219Y-92984938D01*
X160663793Y-92926575D01*
X160661339Y-92855620D01*
X160697635Y-92794603D01*
X160761157Y-92762895D01*
X160769777Y-92761656D01*
X160789783Y-92759483D01*
X160816108Y-92756624D01*
X160816111Y-92756623D01*
X160823967Y-92755770D01*
X160958211Y-92705445D01*
X160965390Y-92700065D01*
X160965393Y-92700063D01*
X161048745Y-92637593D01*
X161115251Y-92612745D01*
X161124310Y-92612419D01*
X162876304Y-92612419D01*
X162944425Y-92632421D01*
X162965399Y-92649324D01*
X163953795Y-93637720D01*
X163987821Y-93700032D01*
X163990700Y-93726815D01*
X163990700Y-96291550D01*
X163970698Y-96359671D01*
X163917042Y-96406164D01*
X163846768Y-96416268D01*
X163812426Y-96406194D01*
X163758648Y-96381670D01*
X163724582Y-96371687D01*
X163694841Y-96362972D01*
X163694836Y-96362971D01*
X163690516Y-96361705D01*
X163686064Y-96361067D01*
X163686062Y-96361067D01*
X163639277Y-96354367D01*
X163547364Y-96341205D01*
X163537150Y-96341211D01*
X163537144Y-96341211D01*
X163534882Y-96341212D01*
X163287882Y-96341345D01*
X163283564Y-96341949D01*
X163283561Y-96341949D01*
X163193112Y-96354597D01*
X163149072Y-96360755D01*
X163082839Y-96379609D01*
X162954603Y-96436222D01*
X162951644Y-96438053D01*
X162933473Y-96445811D01*
X162905639Y-96455097D01*
X162878807Y-96460896D01*
X162878359Y-96460942D01*
X162865321Y-96461619D01*
X162333049Y-96461619D01*
X162320206Y-96460963D01*
X162253634Y-96454142D01*
X162253632Y-96454142D01*
X162251408Y-96453914D01*
X162249177Y-96453846D01*
X162249164Y-96453845D01*
X162198795Y-96452307D01*
X162198926Y-96448010D01*
X162198785Y-96448023D01*
X162198791Y-96452131D01*
X162195281Y-96452136D01*
X162191258Y-96452077D01*
X162178776Y-96451696D01*
X162178815Y-96450423D01*
X162177021Y-96450043D01*
X162176255Y-96450114D01*
X162176258Y-96452164D01*
X162156578Y-96452193D01*
X162156577Y-96452193D01*
X162153223Y-96452198D01*
X162149892Y-96452559D01*
X162149885Y-96452559D01*
X162053794Y-96462962D01*
X162053793Y-96462962D01*
X162045980Y-96463808D01*
X161974555Y-96490449D01*
X161914720Y-96512767D01*
X161914718Y-96512768D01*
X161910506Y-96514339D01*
X161906563Y-96516492D01*
X161906561Y-96516493D01*
X161852142Y-96546209D01*
X161848194Y-96548365D01*
X161844594Y-96551060D01*
X161736050Y-96632316D01*
X161736046Y-96632320D01*
X161732448Y-96635013D01*
X161604177Y-96763284D01*
X161599439Y-96768085D01*
X161597061Y-96770527D01*
X161596857Y-96770739D01*
X161596808Y-96770790D01*
X161592215Y-96775572D01*
X161592125Y-96775667D01*
X161588246Y-96779761D01*
X161562170Y-96800805D01*
X161561022Y-96801502D01*
X161553489Y-96806164D01*
X161553260Y-96806309D01*
X161553208Y-96806341D01*
X161550114Y-96808293D01*
X161550053Y-96808332D01*
X161549785Y-96808501D01*
X161542324Y-96813300D01*
X161542100Y-96813447D01*
X161541239Y-96814011D01*
X161511007Y-96828495D01*
X161509777Y-96828893D01*
X161507578Y-96829627D01*
X161501618Y-96831615D01*
X161501500Y-96831655D01*
X161501404Y-96831687D01*
X161501298Y-96831723D01*
X161501184Y-96831762D01*
X161498661Y-96832629D01*
X161497276Y-96833104D01*
X161497108Y-96833163D01*
X161497028Y-96833191D01*
X161492600Y-96834755D01*
X161488880Y-96836068D01*
X161487628Y-96836522D01*
X161454866Y-96843664D01*
X161453580Y-96843769D01*
X161453335Y-96843791D01*
X161453276Y-96843796D01*
X161449320Y-96844153D01*
X161444730Y-96844567D01*
X161440355Y-96845000D01*
X161431558Y-96845948D01*
X161431101Y-96846001D01*
X161431086Y-96846003D01*
X161431085Y-96845996D01*
X161423281Y-96846650D01*
X161423281Y-96846653D01*
X161423278Y-96846653D01*
X161423235Y-96846656D01*
X161423158Y-96846660D01*
X161423146Y-96846661D01*
X161408457Y-96847556D01*
X161391272Y-96847428D01*
X161390928Y-96847402D01*
X161389117Y-96847265D01*
X161387900Y-96847219D01*
X161387899Y-96847219D01*
X161351989Y-96845863D01*
X161351964Y-96845863D01*
X161350811Y-96845819D01*
X161231141Y-96845819D01*
X161185439Y-96849055D01*
X161161789Y-96850729D01*
X161161782Y-96850730D01*
X161159561Y-96850887D01*
X161141641Y-96853437D01*
X161126600Y-96855578D01*
X161126595Y-96855579D01*
X161124409Y-96855890D01*
X161054263Y-96870992D01*
X161052119Y-96871615D01*
X160986028Y-96890816D01*
X160950875Y-96895819D01*
X159892000Y-96895819D01*
X159888652Y-96896179D01*
X159888651Y-96896179D01*
X159863470Y-96898886D01*
X159784020Y-96907428D01*
X159780736Y-96908142D01*
X159780732Y-96908143D01*
X159755661Y-96913597D01*
X159731678Y-96918814D01*
X159661515Y-96942166D01*
X159636942Y-96950345D01*
X159628628Y-96953112D01*
X159506990Y-97031284D01*
X159503595Y-97034226D01*
X159503592Y-97034228D01*
X159494738Y-97041900D01*
X159453334Y-97077777D01*
X159358645Y-97187053D01*
X159354901Y-97195250D01*
X159354901Y-97195251D01*
X159329181Y-97251570D01*
X159282688Y-97305226D01*
X159214567Y-97325228D01*
X159146446Y-97305226D01*
X159099953Y-97251570D01*
X159095684Y-97240976D01*
X159085079Y-97210775D01*
X159075021Y-97182135D01*
X159069429Y-97174565D01*
X159069428Y-97174562D01*
X159000129Y-97080740D01*
X158994537Y-97073169D01*
X158977593Y-97060654D01*
X158893144Y-96998278D01*
X158893141Y-96998277D01*
X158885571Y-96992685D01*
X158757756Y-96947800D01*
X158750110Y-96947077D01*
X158750109Y-96947077D01*
X158744139Y-96946513D01*
X158726221Y-96944819D01*
X157593553Y-96944819D01*
X157575635Y-96946513D01*
X157569665Y-96947077D01*
X157569664Y-96947077D01*
X157562018Y-96947800D01*
X157489211Y-96973368D01*
X157437911Y-96991383D01*
X157396163Y-96998500D01*
X157011399Y-96998500D01*
X156943278Y-96978498D01*
X156922305Y-96961597D01*
X156916471Y-96955763D01*
X156911278Y-96948922D01*
X156796595Y-96861872D01*
X156662728Y-96808871D01*
X156577029Y-96798500D01*
X156286392Y-96798500D01*
X155995372Y-96798501D01*
X155991615Y-96798956D01*
X155991609Y-96798956D01*
X155932043Y-96806164D01*
X155909672Y-96808871D01*
X155902149Y-96811849D01*
X155902147Y-96811850D01*
X155848246Y-96833191D01*
X155775805Y-96861872D01*
X155661122Y-96948922D01*
X155655929Y-96955763D01*
X155650095Y-96961597D01*
X155587782Y-96995621D01*
X155561001Y-96998500D01*
X155207814Y-96998500D01*
X155139693Y-96978498D01*
X155118719Y-96961595D01*
X154006277Y-95849153D01*
X157196887Y-95849153D01*
X157199868Y-95880688D01*
X157244753Y-96008503D01*
X157250345Y-96016073D01*
X157250346Y-96016076D01*
X157275529Y-96050170D01*
X157325237Y-96117469D01*
X157332808Y-96123061D01*
X157426630Y-96192360D01*
X157426633Y-96192361D01*
X157434203Y-96197953D01*
X157562018Y-96242838D01*
X157569664Y-96243561D01*
X157569665Y-96243561D01*
X157575635Y-96244125D01*
X157593553Y-96245819D01*
X158726221Y-96245819D01*
X158744139Y-96244125D01*
X158750109Y-96243561D01*
X158750110Y-96243561D01*
X158757756Y-96242838D01*
X158885571Y-96197953D01*
X158893141Y-96192361D01*
X158893144Y-96192360D01*
X158986966Y-96123061D01*
X158994537Y-96117469D01*
X159044245Y-96050170D01*
X159069428Y-96016076D01*
X159069429Y-96016073D01*
X159075021Y-96008503D01*
X159119906Y-95880688D01*
X159122887Y-95849153D01*
X159122887Y-95441485D01*
X159119906Y-95409950D01*
X159075021Y-95282135D01*
X159069429Y-95274565D01*
X159069428Y-95274562D01*
X159000129Y-95180740D01*
X158994537Y-95173169D01*
X158977593Y-95160654D01*
X158893144Y-95098278D01*
X158893141Y-95098277D01*
X158885571Y-95092685D01*
X158789139Y-95058821D01*
X158731493Y-95017378D01*
X158705405Y-94951348D01*
X158704887Y-94939938D01*
X158704887Y-94749590D01*
X158724889Y-94681469D01*
X158778140Y-94637674D01*
X158777466Y-94636479D01*
X158784221Y-94632673D01*
X158784509Y-94632436D01*
X158784954Y-94632260D01*
X158792935Y-94629100D01*
X158906254Y-94543086D01*
X158992268Y-94429767D01*
X159044640Y-94297492D01*
X159046559Y-94281638D01*
X159054431Y-94216579D01*
X159054887Y-94212813D01*
X159054887Y-93694625D01*
X159044640Y-93609946D01*
X158992268Y-93477671D01*
X158906254Y-93364352D01*
X158792935Y-93278338D01*
X158660660Y-93225966D01*
X158652623Y-93224993D01*
X158652621Y-93224993D01*
X158621937Y-93221280D01*
X158575981Y-93215719D01*
X157732793Y-93215719D01*
X157686837Y-93221280D01*
X157656153Y-93224993D01*
X157656151Y-93224993D01*
X157648114Y-93225966D01*
X157515839Y-93278338D01*
X157402520Y-93364352D01*
X157316506Y-93477671D01*
X157264134Y-93609946D01*
X157253887Y-93694625D01*
X157253887Y-94212813D01*
X157254343Y-94216579D01*
X157262216Y-94281638D01*
X157264134Y-94297492D01*
X157316506Y-94429767D01*
X157402520Y-94543086D01*
X157515839Y-94629100D01*
X157523820Y-94632260D01*
X157524265Y-94632436D01*
X157524609Y-94632704D01*
X157531308Y-94636479D01*
X157530740Y-94637488D01*
X157580241Y-94676108D01*
X157603887Y-94749590D01*
X157603887Y-94943801D01*
X157583885Y-95011922D01*
X157530229Y-95058415D01*
X157519641Y-95062682D01*
X157434203Y-95092685D01*
X157426633Y-95098277D01*
X157426630Y-95098278D01*
X157342181Y-95160654D01*
X157325237Y-95173169D01*
X157319645Y-95180740D01*
X157250346Y-95274562D01*
X157250345Y-95274565D01*
X157244753Y-95282135D01*
X157199868Y-95409950D01*
X157196887Y-95441485D01*
X157196887Y-95849153D01*
X154006277Y-95849153D01*
X153724005Y-95566881D01*
X153689979Y-95504569D01*
X153687100Y-95477786D01*
X153687100Y-89002415D01*
X153707102Y-88934294D01*
X153724005Y-88913320D01*
X161744842Y-80892482D01*
X161748651Y-80888829D01*
X161788033Y-80852615D01*
X161794356Y-80846801D01*
X161817299Y-80809798D01*
X161824000Y-80800048D01*
X161850312Y-80765383D01*
X161855846Y-80751404D01*
X161865907Y-80731401D01*
X161873835Y-80718614D01*
X161885975Y-80676828D01*
X161889821Y-80665595D01*
X161905836Y-80625147D01*
X161907408Y-80610192D01*
X161911720Y-80588217D01*
X161915915Y-80573775D01*
X161916465Y-80566292D01*
X161916531Y-80565392D01*
X161916531Y-80565381D01*
X161916700Y-80563085D01*
X161916700Y-80528383D01*
X161917390Y-80515213D01*
X161920703Y-80483688D01*
X161921601Y-80475146D01*
X161920169Y-80466681D01*
X161920169Y-80466672D01*
X161918465Y-80456600D01*
X161916700Y-80435587D01*
X161916700Y-68851762D01*
X161940377Y-68778236D01*
X161962190Y-68747880D01*
X161984561Y-68716747D01*
X161987394Y-68709700D01*
X162044966Y-68566487D01*
X162044967Y-68566485D01*
X162047801Y-68559434D01*
X162062001Y-68459661D01*
X162071109Y-68395662D01*
X162071109Y-68395659D01*
X162071690Y-68391578D01*
X162071845Y-68376800D01*
X162070040Y-68361880D01*
X162060812Y-68285631D01*
X162051476Y-68208480D01*
X162028800Y-68148470D01*
X161994229Y-68056979D01*
X161994228Y-68056976D01*
X161991545Y-68049877D01*
X161987247Y-68043623D01*
X161987243Y-68043616D01*
X161938861Y-67973221D01*
X161916700Y-67901853D01*
X161916700Y-63362593D01*
X161916811Y-63357317D01*
X161918418Y-63318980D01*
X161919410Y-63295306D01*
X161914263Y-63273362D01*
X161909473Y-63252938D01*
X161907310Y-63241267D01*
X161902572Y-63206681D01*
X161901406Y-63198168D01*
X161896510Y-63186853D01*
X161895435Y-63184370D01*
X161888401Y-63163101D01*
X161886929Y-63156825D01*
X161884968Y-63148464D01*
X161880831Y-63140939D01*
X161880830Y-63140936D01*
X161864005Y-63110332D01*
X161858789Y-63099687D01*
X161841505Y-63059745D01*
X161832042Y-63048059D01*
X161819554Y-63029474D01*
X161815490Y-63022082D01*
X161812307Y-63016292D01*
X161807309Y-63010501D01*
X161806814Y-63009928D01*
X161806808Y-63009922D01*
X161805303Y-63008178D01*
X161780767Y-62983642D01*
X161771942Y-62973841D01*
X161751994Y-62949208D01*
X161751993Y-62949207D01*
X161746586Y-62942530D01*
X161739588Y-62937557D01*
X161739583Y-62937552D01*
X161731252Y-62931632D01*
X161715146Y-62918021D01*
X157879882Y-59082758D01*
X157876229Y-59078949D01*
X157840015Y-59039567D01*
X157834201Y-59033244D01*
X157797198Y-59010301D01*
X157787448Y-59003600D01*
X157752783Y-58977288D01*
X157738804Y-58971754D01*
X157718801Y-58961693D01*
X157706014Y-58953765D01*
X157697763Y-58951368D01*
X157697761Y-58951367D01*
X157664228Y-58941625D01*
X157652995Y-58937779D01*
X157632353Y-58929606D01*
X157612547Y-58921764D01*
X157604006Y-58920866D01*
X157604005Y-58920866D01*
X157597592Y-58920192D01*
X157575617Y-58915880D01*
X157561175Y-58911685D01*
X157553692Y-58911136D01*
X157552792Y-58911069D01*
X157552781Y-58911069D01*
X157550485Y-58910900D01*
X157515783Y-58910900D01*
X157502613Y-58910210D01*
X157492384Y-58909135D01*
X157462546Y-58905999D01*
X157454081Y-58907431D01*
X157454072Y-58907431D01*
X157444000Y-58909135D01*
X157422987Y-58910900D01*
X124170193Y-58910900D01*
X124164917Y-58910789D01*
X124160510Y-58910604D01*
X124102906Y-58908190D01*
X124094541Y-58910152D01*
X124060538Y-58918127D01*
X124048867Y-58920290D01*
X124038107Y-58921764D01*
X124005768Y-58926194D01*
X123997884Y-58929606D01*
X123997883Y-58929606D01*
X123991970Y-58932165D01*
X123970701Y-58939199D01*
X123956064Y-58942632D01*
X123948539Y-58946769D01*
X123948536Y-58946770D01*
X123917932Y-58963595D01*
X123907287Y-58968811D01*
X123867345Y-58986095D01*
X123855659Y-58995558D01*
X123837075Y-59008045D01*
X123823892Y-59015293D01*
X123815778Y-59022297D01*
X123791242Y-59046833D01*
X123781441Y-59055658D01*
X123756808Y-59075606D01*
X123750130Y-59081014D01*
X123745157Y-59088012D01*
X123745152Y-59088017D01*
X123739232Y-59096348D01*
X123725621Y-59112454D01*
X122694193Y-60143882D01*
X122634513Y-60177305D01*
X122519674Y-60204876D01*
X122499532Y-60209712D01*
X122492788Y-60213193D01*
X122492785Y-60213194D01*
X122355617Y-60283992D01*
X122348869Y-60287475D01*
X122343147Y-60292467D01*
X122343145Y-60292468D01*
X122240398Y-60382100D01*
X122221104Y-60398931D01*
X122216735Y-60405148D01*
X122216731Y-60405152D01*
X122213832Y-60409277D01*
X122158296Y-60453507D01*
X122148803Y-60456159D01*
X122149000Y-60456765D01*
X122139567Y-60459830D01*
X122129774Y-60461381D01*
X122108398Y-60472273D01*
X122090137Y-60479836D01*
X122067319Y-60487250D01*
X122059297Y-60493079D01*
X122059296Y-60493079D01*
X122047911Y-60501351D01*
X122031056Y-60511681D01*
X122009680Y-60522572D01*
X120136372Y-62395880D01*
X120125477Y-62417263D01*
X120115153Y-62434109D01*
X120101051Y-62453519D01*
X120097987Y-62462950D01*
X120097985Y-62462953D01*
X120093636Y-62476337D01*
X120086072Y-62494598D01*
X120075181Y-62515974D01*
X120073630Y-62525768D01*
X120071428Y-62539670D01*
X120066814Y-62558890D01*
X120059400Y-62581707D01*
X120059400Y-62871570D01*
X120039398Y-62939691D01*
X120016229Y-62966519D01*
X119978696Y-62999261D01*
X119960504Y-63015131D01*
X119956818Y-63020376D01*
X119896805Y-63057349D01*
X119863613Y-63061800D01*
X119122107Y-63061800D01*
X119099290Y-63069214D01*
X119080071Y-63073828D01*
X119056374Y-63077581D01*
X119047537Y-63082084D01*
X119047536Y-63082084D01*
X119034998Y-63088472D01*
X119016737Y-63096036D01*
X119003353Y-63100385D01*
X119003350Y-63100387D01*
X118993919Y-63103451D01*
X118985896Y-63109280D01*
X118974509Y-63117553D01*
X118957663Y-63127877D01*
X118936280Y-63138772D01*
X117291572Y-64783480D01*
X117280677Y-64804863D01*
X117270353Y-64821709D01*
X117256251Y-64841119D01*
X117253187Y-64850550D01*
X117253185Y-64850553D01*
X117248836Y-64863937D01*
X117241272Y-64882198D01*
X117238394Y-64887847D01*
X117230381Y-64903574D01*
X117228830Y-64913368D01*
X117226628Y-64927270D01*
X117222014Y-64946490D01*
X117214600Y-64969307D01*
X117214600Y-65132170D01*
X117194598Y-65200291D01*
X117171429Y-65227119D01*
X117123430Y-65268991D01*
X117115704Y-65275731D01*
X117112018Y-65280976D01*
X117052005Y-65317949D01*
X117018813Y-65322400D01*
X114626307Y-65322400D01*
X114603490Y-65329814D01*
X114584271Y-65334428D01*
X114560574Y-65338181D01*
X114551737Y-65342684D01*
X114551736Y-65342684D01*
X114539198Y-65349072D01*
X114520937Y-65356636D01*
X114507553Y-65360985D01*
X114507550Y-65360987D01*
X114498119Y-65364051D01*
X114490096Y-65369880D01*
X114478709Y-65378153D01*
X114461863Y-65388477D01*
X114440480Y-65399372D01*
X112948172Y-66891680D01*
X112937277Y-66913063D01*
X112926953Y-66929909D01*
X112912851Y-66949319D01*
X112909787Y-66958750D01*
X112909785Y-66958753D01*
X112905436Y-66972137D01*
X112897872Y-66990398D01*
X112886981Y-67011774D01*
X112883418Y-67034268D01*
X112883228Y-67035470D01*
X112878614Y-67054690D01*
X112871200Y-67077507D01*
X112871200Y-68459570D01*
X112851198Y-68527691D01*
X112828029Y-68554519D01*
X112826164Y-68556146D01*
X112772304Y-68603131D01*
X112767937Y-68609345D01*
X112679884Y-68734632D01*
X112674813Y-68741847D01*
X112613224Y-68899813D01*
X112612232Y-68907346D01*
X112612232Y-68907347D01*
X112592355Y-69058335D01*
X112591094Y-69067911D01*
X112609699Y-69236435D01*
X112632483Y-69298695D01*
X112662499Y-69380716D01*
X112667966Y-69395656D01*
X112762530Y-69536383D01*
X112768142Y-69541490D01*
X112768145Y-69541493D01*
X112882312Y-69645377D01*
X112882316Y-69645380D01*
X112887933Y-69650491D01*
X112894606Y-69654114D01*
X112894610Y-69654117D01*
X113030258Y-69727767D01*
X113030260Y-69727768D01*
X113036935Y-69731392D01*
X113044284Y-69733320D01*
X113193583Y-69772488D01*
X113193585Y-69772488D01*
X113200933Y-69774416D01*
X113285872Y-69775750D01*
X113346122Y-69776697D01*
X113413920Y-69797766D01*
X113433238Y-69813586D01*
X113729280Y-70109628D01*
X113750656Y-70120519D01*
X113767512Y-70130849D01*
X113786919Y-70144950D01*
X113805647Y-70151035D01*
X113809737Y-70152364D01*
X113827998Y-70159927D01*
X113849374Y-70170819D01*
X113859165Y-70172370D01*
X113859172Y-70172372D01*
X113873069Y-70174573D01*
X113892288Y-70179187D01*
X113905673Y-70183536D01*
X113905680Y-70183537D01*
X113915107Y-70186600D01*
X117475934Y-70186600D01*
X117544055Y-70206602D01*
X117562631Y-70222731D01*
X117563130Y-70222183D01*
X117682912Y-70331177D01*
X117682916Y-70331180D01*
X117688533Y-70336291D01*
X117695206Y-70339914D01*
X117695210Y-70339917D01*
X117830858Y-70413567D01*
X117830860Y-70413568D01*
X117837535Y-70417192D01*
X117844884Y-70419120D01*
X117994183Y-70458288D01*
X117994185Y-70458288D01*
X118001533Y-70460216D01*
X118087909Y-70461573D01*
X118163461Y-70462760D01*
X118163464Y-70462760D01*
X118171060Y-70462879D01*
X118178465Y-70461183D01*
X118178466Y-70461183D01*
X118252605Y-70444203D01*
X118336329Y-70425028D01*
X118487798Y-70348847D01*
X118584907Y-70265908D01*
X118610951Y-70243664D01*
X118610952Y-70243663D01*
X118616723Y-70238734D01*
X118621152Y-70232571D01*
X118621157Y-70232565D01*
X118687934Y-70139635D01*
X118743928Y-70095987D01*
X118814632Y-70089541D01*
X118877596Y-70122344D01*
X118891081Y-70137595D01*
X118912554Y-70166246D01*
X118919735Y-70171628D01*
X119020094Y-70246844D01*
X119020097Y-70246846D01*
X119027276Y-70252226D01*
X119095781Y-70277907D01*
X119154125Y-70299779D01*
X119154127Y-70299779D01*
X119161520Y-70302551D01*
X119169369Y-70303404D01*
X119169370Y-70303404D01*
X119215706Y-70308438D01*
X119281268Y-70335681D01*
X119321694Y-70394044D01*
X119324148Y-70464999D01*
X119287852Y-70526016D01*
X119224330Y-70557724D01*
X119215710Y-70558963D01*
X119195704Y-70561136D01*
X119169379Y-70563995D01*
X119169376Y-70563996D01*
X119161520Y-70564849D01*
X119027276Y-70615174D01*
X119020097Y-70620554D01*
X119020094Y-70620556D01*
X118940853Y-70679945D01*
X118912554Y-70701154D01*
X118907172Y-70708335D01*
X118860741Y-70770288D01*
X118826574Y-70815876D01*
X118823950Y-70822874D01*
X118772466Y-70872854D01*
X118766319Y-70874851D01*
X118754306Y-70883579D01*
X118746909Y-70888953D01*
X118730063Y-70899277D01*
X118708680Y-70910172D01*
X117330066Y-72288786D01*
X117267756Y-72322810D01*
X117196941Y-72317746D01*
X117156010Y-72291441D01*
X117155046Y-72290154D01*
X117102901Y-72251073D01*
X117047506Y-72209556D01*
X117047503Y-72209554D01*
X117040324Y-72204174D01*
X117017568Y-72195643D01*
X116960805Y-72153001D01*
X116936106Y-72086440D01*
X116935800Y-72077662D01*
X116935800Y-71761839D01*
X116955802Y-71693718D01*
X116979969Y-71666028D01*
X117023951Y-71628464D01*
X117023952Y-71628463D01*
X117029723Y-71623534D01*
X117128661Y-71485847D01*
X117137483Y-71463902D01*
X117189066Y-71335587D01*
X117189067Y-71335585D01*
X117191901Y-71328534D01*
X117215790Y-71160678D01*
X117215945Y-71145900D01*
X117214140Y-71130980D01*
X117200392Y-71017381D01*
X117195576Y-70977580D01*
X117135645Y-70818977D01*
X117131157Y-70812447D01*
X117043914Y-70685508D01*
X117043913Y-70685507D01*
X117039612Y-70679249D01*
X117027814Y-70668737D01*
X116918692Y-70571512D01*
X116918688Y-70571510D01*
X116913021Y-70566460D01*
X116898864Y-70558964D01*
X116845380Y-70530646D01*
X116763181Y-70487124D01*
X116598741Y-70445819D01*
X116591143Y-70445779D01*
X116591141Y-70445779D01*
X116513968Y-70445375D01*
X116429195Y-70444931D01*
X116421808Y-70446705D01*
X116421804Y-70446705D01*
X116285749Y-70479370D01*
X116264332Y-70484512D01*
X116257588Y-70487993D01*
X116257585Y-70487994D01*
X116122486Y-70557724D01*
X116113669Y-70562275D01*
X116107947Y-70567267D01*
X116107945Y-70567268D01*
X116053029Y-70615174D01*
X115985904Y-70673731D01*
X115944775Y-70732251D01*
X115899832Y-70796200D01*
X115888413Y-70812447D01*
X115826824Y-70970413D01*
X115825832Y-70977946D01*
X115825832Y-70977947D01*
X115805887Y-71129451D01*
X115804694Y-71138511D01*
X115823299Y-71307035D01*
X115847471Y-71373088D01*
X115869793Y-71434084D01*
X115881566Y-71466256D01*
X115885802Y-71472559D01*
X115885802Y-71472560D01*
X115971896Y-71600683D01*
X115971899Y-71600686D01*
X115976130Y-71606983D01*
X116007041Y-71635110D01*
X116043600Y-71668376D01*
X116080522Y-71729017D01*
X116084800Y-71761570D01*
X116084800Y-72087094D01*
X116064798Y-72155215D01*
X116019307Y-72197615D01*
X116013083Y-72201022D01*
X116004676Y-72204174D01*
X115889954Y-72290154D01*
X115884572Y-72297335D01*
X115809356Y-72397694D01*
X115809354Y-72397697D01*
X115803974Y-72404876D01*
X115772612Y-72488535D01*
X115764510Y-72510149D01*
X115753649Y-72539120D01*
X115752796Y-72546970D01*
X115752796Y-72546971D01*
X115752744Y-72547446D01*
X115747000Y-72600323D01*
X115747001Y-73095076D01*
X115747370Y-73098470D01*
X115747370Y-73098476D01*
X115751905Y-73140220D01*
X115753649Y-73156280D01*
X115803974Y-73290524D01*
X115809354Y-73297703D01*
X115809356Y-73297706D01*
X115883659Y-73396847D01*
X115889954Y-73405246D01*
X115897135Y-73410628D01*
X115997494Y-73485844D01*
X115997497Y-73485846D01*
X116004676Y-73491226D01*
X116069244Y-73515431D01*
X116131525Y-73538779D01*
X116131527Y-73538779D01*
X116138920Y-73541551D01*
X116146769Y-73542404D01*
X116146770Y-73542404D01*
X116193106Y-73547438D01*
X116258668Y-73574681D01*
X116299094Y-73633044D01*
X116301548Y-73703999D01*
X116265252Y-73765016D01*
X116201730Y-73796724D01*
X116193110Y-73797963D01*
X116173104Y-73800136D01*
X116146779Y-73802995D01*
X116146776Y-73802996D01*
X116138920Y-73803849D01*
X116004676Y-73854174D01*
X115997497Y-73859554D01*
X115997494Y-73859556D01*
X115928125Y-73911546D01*
X115889954Y-73940154D01*
X115884572Y-73947335D01*
X115809356Y-74047694D01*
X115809354Y-74047697D01*
X115803974Y-74054876D01*
X115753649Y-74189120D01*
X115752796Y-74196970D01*
X115752796Y-74196971D01*
X115749873Y-74223881D01*
X115747000Y-74250323D01*
X115747001Y-74745076D01*
X115747370Y-74748470D01*
X115747370Y-74748476D01*
X115748164Y-74755781D01*
X115753649Y-74806280D01*
X115803974Y-74940524D01*
X115809354Y-74947703D01*
X115809356Y-74947706D01*
X115884572Y-75048065D01*
X115889954Y-75055246D01*
X115897135Y-75060628D01*
X115997494Y-75135844D01*
X115997497Y-75135846D01*
X116004676Y-75141226D01*
X116015230Y-75145182D01*
X116017052Y-75146551D01*
X116020955Y-75148688D01*
X116020647Y-75149251D01*
X116071993Y-75187822D01*
X116096694Y-75254384D01*
X116097000Y-75263164D01*
X116097000Y-75365693D01*
X116104414Y-75388510D01*
X116109028Y-75407729D01*
X116112781Y-75431426D01*
X116117284Y-75440263D01*
X116117284Y-75440264D01*
X116123672Y-75452802D01*
X116131236Y-75471063D01*
X116135585Y-75484447D01*
X116135587Y-75484450D01*
X116138651Y-75493881D01*
X116152753Y-75513291D01*
X116163077Y-75530137D01*
X116173972Y-75551520D01*
X117538280Y-76915828D01*
X117559663Y-76926723D01*
X117576509Y-76937047D01*
X117595919Y-76951149D01*
X117605350Y-76954213D01*
X117605353Y-76954215D01*
X117618737Y-76958564D01*
X117636998Y-76966128D01*
X117648963Y-76972224D01*
X117658374Y-76977019D01*
X117682071Y-76980772D01*
X117701290Y-76985386D01*
X117724107Y-76992800D01*
X118242563Y-76992800D01*
X118310684Y-77012802D01*
X118343388Y-77043233D01*
X118404554Y-77124846D01*
X118411735Y-77130228D01*
X118512094Y-77205444D01*
X118512097Y-77205446D01*
X118519276Y-77210826D01*
X118527677Y-77213975D01*
X118527680Y-77213977D01*
X118531730Y-77215495D01*
X118535160Y-77218072D01*
X118535555Y-77218288D01*
X118535524Y-77218345D01*
X118588494Y-77258138D01*
X118611600Y-77312942D01*
X118611600Y-77321493D01*
X118619014Y-77344310D01*
X118623628Y-77363529D01*
X118627381Y-77387226D01*
X118631884Y-77396063D01*
X118631884Y-77396064D01*
X118638272Y-77408602D01*
X118645836Y-77426863D01*
X118650185Y-77440247D01*
X118650187Y-77440250D01*
X118653251Y-77449681D01*
X118659080Y-77457704D01*
X118667353Y-77469091D01*
X118677677Y-77485937D01*
X118688572Y-77507320D01*
X119888280Y-78707028D01*
X119909663Y-78717923D01*
X119926509Y-78728247D01*
X119945919Y-78742349D01*
X119955350Y-78745413D01*
X119955353Y-78745415D01*
X119968737Y-78749764D01*
X119986998Y-78757328D01*
X119999536Y-78763716D01*
X120008374Y-78768219D01*
X120032071Y-78771972D01*
X120051290Y-78776586D01*
X120074107Y-78784000D01*
X120630163Y-78784000D01*
X120698284Y-78804002D01*
X120730988Y-78834433D01*
X120792154Y-78916046D01*
X120799335Y-78921428D01*
X120899694Y-78996644D01*
X120899697Y-78996646D01*
X120906876Y-79002026D01*
X120920631Y-79007182D01*
X120921550Y-79007527D01*
X120978315Y-79050168D01*
X120999121Y-79099518D01*
X120999200Y-79099492D01*
X120999200Y-79099493D01*
X121006614Y-79122310D01*
X121011228Y-79141529D01*
X121014981Y-79165226D01*
X121019484Y-79174063D01*
X121019484Y-79174064D01*
X121025872Y-79186602D01*
X121033436Y-79204863D01*
X121037785Y-79218247D01*
X121037787Y-79218250D01*
X121040851Y-79227681D01*
X121046680Y-79235704D01*
X121054953Y-79247091D01*
X121065277Y-79263937D01*
X121076172Y-79285320D01*
X122035080Y-80244228D01*
X122056463Y-80255123D01*
X122073309Y-80265447D01*
X122092719Y-80279549D01*
X122102150Y-80282613D01*
X122102153Y-80282615D01*
X122115537Y-80286964D01*
X122133798Y-80294528D01*
X122146336Y-80300916D01*
X122155174Y-80305419D01*
X122178871Y-80309172D01*
X122198090Y-80313786D01*
X122220907Y-80321200D01*
X126454062Y-80321200D01*
X126522183Y-80341202D01*
X126543157Y-80358105D01*
X126688557Y-80503505D01*
X126722583Y-80565817D01*
X126717518Y-80636632D01*
X126674971Y-80693468D01*
X126608451Y-80718279D01*
X126599462Y-80718600D01*
X126573054Y-80718600D01*
X126569350Y-80719041D01*
X126569347Y-80719041D01*
X126561954Y-80719921D01*
X126546854Y-80721718D01*
X126538214Y-80725556D01*
X126538213Y-80725556D01*
X126503554Y-80740951D01*
X126444547Y-80767161D01*
X126436328Y-80775394D01*
X126436327Y-80775395D01*
X126404842Y-80806935D01*
X126365459Y-80846387D01*
X126320194Y-80948773D01*
X126317200Y-80974454D01*
X126317200Y-81963746D01*
X126320318Y-81989946D01*
X126365761Y-82092253D01*
X126444987Y-82171341D01*
X126455624Y-82176044D01*
X126455626Y-82176045D01*
X126515162Y-82202365D01*
X126547373Y-82216606D01*
X126573054Y-82219600D01*
X127962346Y-82219600D01*
X127966050Y-82219159D01*
X127966053Y-82219159D01*
X127973446Y-82218279D01*
X127988546Y-82216482D01*
X128090853Y-82171039D01*
X128169941Y-82091813D01*
X128215206Y-81989427D01*
X128218200Y-81963746D01*
X128218200Y-80974454D01*
X128215082Y-80948254D01*
X128189479Y-80890612D01*
X128174363Y-80856582D01*
X128169639Y-80845947D01*
X128090413Y-80766859D01*
X128079776Y-80762156D01*
X128079774Y-80762155D01*
X128010198Y-80731396D01*
X127988027Y-80721594D01*
X127962346Y-80718600D01*
X127819200Y-80718600D01*
X127751079Y-80698598D01*
X127704586Y-80644942D01*
X127693200Y-80592600D01*
X127693200Y-80413507D01*
X127690137Y-80404080D01*
X127690136Y-80404073D01*
X127685787Y-80390688D01*
X127681173Y-80371469D01*
X127678972Y-80357572D01*
X127678970Y-80357565D01*
X127677419Y-80347774D01*
X127666527Y-80326398D01*
X127658964Y-80308137D01*
X127654614Y-80294750D01*
X127651550Y-80285319D01*
X127637449Y-80265911D01*
X127627117Y-80249052D01*
X127620731Y-80236518D01*
X127616228Y-80227680D01*
X127373343Y-79984795D01*
X127339317Y-79922483D01*
X127344382Y-79851668D01*
X127373340Y-79806608D01*
X128306318Y-78873629D01*
X128306320Y-78873628D01*
X128401628Y-78778320D01*
X128412521Y-78756941D01*
X128422849Y-78740088D01*
X128431121Y-78728703D01*
X128431122Y-78728701D01*
X128436949Y-78720681D01*
X128440014Y-78711249D01*
X128444364Y-78697863D01*
X128451928Y-78679602D01*
X128458316Y-78667064D01*
X128458316Y-78667063D01*
X128462819Y-78658226D01*
X128466572Y-78634529D01*
X128471186Y-78615310D01*
X128478600Y-78592493D01*
X128478600Y-78328037D01*
X128498602Y-78259916D01*
X128529034Y-78227211D01*
X128538522Y-78220100D01*
X128610646Y-78166046D01*
X128626657Y-78144683D01*
X128691244Y-78058506D01*
X128691246Y-78058503D01*
X128696626Y-78051324D01*
X128746951Y-77917080D01*
X128753600Y-77855877D01*
X128753599Y-77486939D01*
X128773601Y-77418819D01*
X128790504Y-77397844D01*
X129761028Y-76427320D01*
X129771923Y-76405937D01*
X129782247Y-76389091D01*
X129790520Y-76377704D01*
X129796349Y-76369681D01*
X129799413Y-76360250D01*
X129799415Y-76360247D01*
X129803764Y-76346863D01*
X129811328Y-76328602D01*
X129817716Y-76316064D01*
X129817716Y-76316063D01*
X129822219Y-76307226D01*
X129825972Y-76283529D01*
X129830586Y-76264310D01*
X129838000Y-76241493D01*
X129838000Y-73908437D01*
X129858002Y-73840316D01*
X129888434Y-73807611D01*
X129901306Y-73797964D01*
X129970046Y-73746446D01*
X129989099Y-73721024D01*
X130050644Y-73638906D01*
X130050646Y-73638903D01*
X130056026Y-73631724D01*
X130102282Y-73508335D01*
X130103579Y-73504875D01*
X130103579Y-73504873D01*
X130106351Y-73497480D01*
X130108109Y-73481303D01*
X130112631Y-73439674D01*
X130112631Y-73439673D01*
X130113000Y-73436277D01*
X130112999Y-73067339D01*
X130133001Y-72999219D01*
X130149904Y-72978244D01*
X130409228Y-72718920D01*
X130420123Y-72697537D01*
X130430447Y-72680691D01*
X130438720Y-72669304D01*
X130444549Y-72661281D01*
X130447613Y-72651850D01*
X130447615Y-72651847D01*
X130451964Y-72638463D01*
X130459528Y-72620202D01*
X130465916Y-72607664D01*
X130465916Y-72607663D01*
X130470419Y-72598826D01*
X130474172Y-72575129D01*
X130478786Y-72555910D01*
X130486200Y-72533093D01*
X130486200Y-69641237D01*
X130506202Y-69573116D01*
X130536634Y-69540411D01*
X130536725Y-69540343D01*
X130618246Y-69479246D01*
X130646323Y-69441783D01*
X130698844Y-69371706D01*
X130698846Y-69371703D01*
X130704226Y-69364524D01*
X130742181Y-69263278D01*
X130751779Y-69237675D01*
X130751779Y-69237673D01*
X130754551Y-69230280D01*
X130761200Y-69169077D01*
X130761199Y-68524324D01*
X130760437Y-68517306D01*
X130755405Y-68470978D01*
X130755404Y-68470974D01*
X130754551Y-68463120D01*
X130704226Y-68328876D01*
X130698846Y-68321697D01*
X130698844Y-68321694D01*
X130623628Y-68221335D01*
X130618246Y-68214154D01*
X130601198Y-68201377D01*
X130510711Y-68133560D01*
X130510709Y-68133559D01*
X130503524Y-68128174D01*
X130499303Y-68126592D01*
X130450747Y-68077929D01*
X130435400Y-68017664D01*
X130435400Y-64739037D01*
X130455402Y-64670916D01*
X130485834Y-64638211D01*
X130501113Y-64626760D01*
X130567446Y-64577046D01*
X130579963Y-64560345D01*
X130648044Y-64469506D01*
X130648046Y-64469503D01*
X130653426Y-64462324D01*
X130703751Y-64328080D01*
X130708700Y-64282530D01*
X130710031Y-64270274D01*
X130710031Y-64270273D01*
X130710400Y-64266877D01*
X130710399Y-63622124D01*
X130709637Y-63615106D01*
X130704605Y-63568778D01*
X130704604Y-63568774D01*
X130703751Y-63560920D01*
X130653426Y-63426676D01*
X130648046Y-63419497D01*
X130648044Y-63419494D01*
X130572828Y-63319135D01*
X130567446Y-63311954D01*
X130536946Y-63289095D01*
X130459906Y-63231356D01*
X130459903Y-63231354D01*
X130452724Y-63225974D01*
X130341744Y-63184370D01*
X130325875Y-63178421D01*
X130325873Y-63178421D01*
X130318480Y-63175649D01*
X130310630Y-63174796D01*
X130310629Y-63174796D01*
X130260674Y-63169369D01*
X130260673Y-63169369D01*
X130257277Y-63169000D01*
X130009973Y-63169000D01*
X129762524Y-63169001D01*
X129759130Y-63169370D01*
X129759124Y-63169370D01*
X129709178Y-63174795D01*
X129709174Y-63174796D01*
X129701320Y-63175649D01*
X129567076Y-63225974D01*
X129559897Y-63231354D01*
X129559894Y-63231356D01*
X129482854Y-63289095D01*
X129452354Y-63311954D01*
X129446972Y-63319135D01*
X129371756Y-63419494D01*
X129371754Y-63419497D01*
X129366374Y-63426676D01*
X129342097Y-63491435D01*
X129320362Y-63549416D01*
X129316049Y-63560920D01*
X129315196Y-63568769D01*
X129315196Y-63568770D01*
X129310162Y-63615106D01*
X129282919Y-63680668D01*
X129224556Y-63721094D01*
X129153601Y-63723548D01*
X129092584Y-63687252D01*
X129060876Y-63623730D01*
X129059636Y-63615102D01*
X129054605Y-63568779D01*
X129054604Y-63568776D01*
X129053751Y-63560920D01*
X129003426Y-63426676D01*
X128998046Y-63419497D01*
X128998044Y-63419494D01*
X128922828Y-63319135D01*
X128917446Y-63311954D01*
X128886946Y-63289095D01*
X128809906Y-63231356D01*
X128809903Y-63231354D01*
X128802724Y-63225974D01*
X128691744Y-63184370D01*
X128675875Y-63178421D01*
X128675873Y-63178421D01*
X128668480Y-63175649D01*
X128660630Y-63174796D01*
X128660629Y-63174796D01*
X128610674Y-63169369D01*
X128610673Y-63169369D01*
X128607277Y-63169000D01*
X128359973Y-63169000D01*
X128112524Y-63169001D01*
X128109130Y-63169370D01*
X128109124Y-63169370D01*
X128059178Y-63174795D01*
X128059174Y-63174796D01*
X128051320Y-63175649D01*
X127917076Y-63225974D01*
X127909897Y-63231354D01*
X127909894Y-63231356D01*
X127832854Y-63289095D01*
X127802354Y-63311954D01*
X127796972Y-63319135D01*
X127721756Y-63419494D01*
X127721754Y-63419497D01*
X127716374Y-63426676D01*
X127692097Y-63491435D01*
X127670362Y-63549416D01*
X127666049Y-63560920D01*
X127659400Y-63622123D01*
X127659400Y-63748600D01*
X127639398Y-63816721D01*
X127585742Y-63863214D01*
X127533400Y-63874600D01*
X127176766Y-63874600D01*
X127108645Y-63854598D01*
X127085945Y-63835098D01*
X127084812Y-63833449D01*
X127041622Y-63794968D01*
X126963892Y-63725712D01*
X126963888Y-63725710D01*
X126958221Y-63720660D01*
X126925657Y-63703418D01*
X126887226Y-63683070D01*
X126808381Y-63641324D01*
X126643941Y-63600019D01*
X126636343Y-63599979D01*
X126636341Y-63599979D01*
X126559168Y-63599575D01*
X126474395Y-63599131D01*
X126467008Y-63600905D01*
X126467004Y-63600905D01*
X126354924Y-63627814D01*
X126309532Y-63638712D01*
X126302788Y-63642193D01*
X126302785Y-63642194D01*
X126184166Y-63703418D01*
X126158869Y-63716475D01*
X126031104Y-63827931D01*
X126012362Y-63854598D01*
X125957400Y-63932802D01*
X125933613Y-63966647D01*
X125872024Y-64124613D01*
X125871032Y-64132146D01*
X125871032Y-64132147D01*
X125852132Y-64275712D01*
X125849894Y-64292711D01*
X125868499Y-64461235D01*
X125892826Y-64527712D01*
X125921284Y-64605475D01*
X125926766Y-64620456D01*
X126021330Y-64761183D01*
X126026942Y-64766290D01*
X126026945Y-64766293D01*
X126141112Y-64870177D01*
X126141116Y-64870180D01*
X126146733Y-64875291D01*
X126153406Y-64878914D01*
X126153410Y-64878917D01*
X126289058Y-64952567D01*
X126289060Y-64952568D01*
X126295735Y-64956192D01*
X126303084Y-64958120D01*
X126452383Y-64997288D01*
X126452385Y-64997288D01*
X126459733Y-64999216D01*
X126546109Y-65000573D01*
X126621661Y-65001760D01*
X126621664Y-65001760D01*
X126629260Y-65001879D01*
X126636665Y-65000183D01*
X126636666Y-65000183D01*
X126728170Y-64979226D01*
X126794529Y-64964028D01*
X126945998Y-64887847D01*
X127074923Y-64777734D01*
X127079354Y-64771567D01*
X127084184Y-64766315D01*
X127145016Y-64729709D01*
X127176933Y-64725600D01*
X128071693Y-64725600D01*
X128081126Y-64722535D01*
X128088734Y-64721330D01*
X128112523Y-64720105D01*
X128112523Y-64720000D01*
X128359392Y-64720000D01*
X128607276Y-64719999D01*
X128610670Y-64719630D01*
X128610676Y-64719630D01*
X128660622Y-64714205D01*
X128660626Y-64714204D01*
X128668480Y-64713351D01*
X128802724Y-64663026D01*
X128809903Y-64657646D01*
X128809906Y-64657644D01*
X128910265Y-64582428D01*
X128917446Y-64577046D01*
X128929963Y-64560345D01*
X128998044Y-64469506D01*
X128998046Y-64469503D01*
X129003426Y-64462324D01*
X129053751Y-64328080D01*
X129057348Y-64294972D01*
X129059638Y-64273894D01*
X129086881Y-64208332D01*
X129145244Y-64167906D01*
X129216199Y-64165452D01*
X129277216Y-64201748D01*
X129308924Y-64265270D01*
X129310163Y-64273890D01*
X129316049Y-64328080D01*
X129366374Y-64462324D01*
X129371754Y-64469503D01*
X129371756Y-64469506D01*
X129439837Y-64560345D01*
X129452354Y-64577046D01*
X129518687Y-64626760D01*
X129533966Y-64638211D01*
X129576480Y-64695071D01*
X129584400Y-64739037D01*
X129584400Y-68090236D01*
X129564398Y-68158357D01*
X129533968Y-68191060D01*
X129503154Y-68214154D01*
X129497772Y-68221335D01*
X129422556Y-68321694D01*
X129422554Y-68321697D01*
X129417174Y-68328876D01*
X129366849Y-68463120D01*
X129365996Y-68470969D01*
X129365996Y-68470970D01*
X129360962Y-68517306D01*
X129333719Y-68582868D01*
X129275356Y-68623294D01*
X129204401Y-68625748D01*
X129143384Y-68589452D01*
X129111676Y-68525930D01*
X129110436Y-68517302D01*
X129110312Y-68516155D01*
X129104551Y-68463120D01*
X129054226Y-68328876D01*
X129048846Y-68321697D01*
X129048844Y-68321694D01*
X128973628Y-68221335D01*
X128968246Y-68214154D01*
X128951198Y-68201377D01*
X128860706Y-68133556D01*
X128860703Y-68133554D01*
X128853524Y-68128174D01*
X128732602Y-68082843D01*
X128726675Y-68080621D01*
X128726673Y-68080621D01*
X128719280Y-68077849D01*
X128711430Y-68076996D01*
X128711429Y-68076996D01*
X128661474Y-68071569D01*
X128661473Y-68071569D01*
X128658077Y-68071200D01*
X128410773Y-68071200D01*
X128163324Y-68071201D01*
X128159930Y-68071570D01*
X128159924Y-68071570D01*
X128109978Y-68076995D01*
X128109974Y-68076996D01*
X128102120Y-68077849D01*
X127967876Y-68128174D01*
X127960697Y-68133554D01*
X127960694Y-68133556D01*
X127870202Y-68201377D01*
X127853154Y-68214154D01*
X127847772Y-68221335D01*
X127772556Y-68321694D01*
X127772554Y-68321697D01*
X127767174Y-68328876D01*
X127763218Y-68339430D01*
X127761849Y-68341252D01*
X127759712Y-68345155D01*
X127759149Y-68344847D01*
X127720578Y-68396193D01*
X127654016Y-68420894D01*
X127645236Y-68421200D01*
X127125966Y-68421200D01*
X127057845Y-68401198D01*
X127035145Y-68381698D01*
X127034012Y-68380049D01*
X127022072Y-68369411D01*
X126913092Y-68272312D01*
X126913088Y-68272310D01*
X126907421Y-68267260D01*
X126845964Y-68234720D01*
X126821222Y-68221620D01*
X126757581Y-68187924D01*
X126593141Y-68146619D01*
X126585543Y-68146579D01*
X126585541Y-68146579D01*
X126508368Y-68146175D01*
X126423595Y-68145731D01*
X126416208Y-68147505D01*
X126416204Y-68147505D01*
X126284531Y-68179118D01*
X126258732Y-68185312D01*
X126251988Y-68188793D01*
X126251985Y-68188794D01*
X126158170Y-68237216D01*
X126108069Y-68263075D01*
X126102347Y-68268067D01*
X126102345Y-68268068D01*
X126093327Y-68275935D01*
X125980304Y-68374531D01*
X125952421Y-68414205D01*
X125887827Y-68506113D01*
X125882813Y-68513247D01*
X125821224Y-68671213D01*
X125820232Y-68678746D01*
X125820232Y-68678747D01*
X125800131Y-68831436D01*
X125799094Y-68839311D01*
X125817699Y-69007835D01*
X125848079Y-69090851D01*
X125870566Y-69152299D01*
X125875966Y-69167056D01*
X125970530Y-69307783D01*
X125976142Y-69312890D01*
X125976145Y-69312893D01*
X126090312Y-69416777D01*
X126090316Y-69416780D01*
X126095933Y-69421891D01*
X126102606Y-69425514D01*
X126102610Y-69425517D01*
X126238258Y-69499167D01*
X126238260Y-69499168D01*
X126244935Y-69502792D01*
X126252284Y-69504720D01*
X126401583Y-69543888D01*
X126401585Y-69543888D01*
X126408933Y-69545816D01*
X126495309Y-69547173D01*
X126570861Y-69548360D01*
X126570864Y-69548360D01*
X126578460Y-69548479D01*
X126585865Y-69546783D01*
X126585866Y-69546783D01*
X126658136Y-69530231D01*
X126743729Y-69510628D01*
X126895198Y-69434447D01*
X127024123Y-69324334D01*
X127028554Y-69318167D01*
X127033384Y-69312915D01*
X127094216Y-69276309D01*
X127126133Y-69272200D01*
X127645236Y-69272200D01*
X127713357Y-69292202D01*
X127759850Y-69345858D01*
X127763212Y-69353955D01*
X127767174Y-69364524D01*
X127772554Y-69371703D01*
X127772556Y-69371706D01*
X127825077Y-69441783D01*
X127853154Y-69479246D01*
X127860335Y-69484628D01*
X127960694Y-69559844D01*
X127960697Y-69559846D01*
X127967876Y-69565226D01*
X128044792Y-69594060D01*
X128094725Y-69612779D01*
X128094727Y-69612779D01*
X128102120Y-69615551D01*
X128109970Y-69616404D01*
X128109971Y-69616404D01*
X128159917Y-69621830D01*
X128163323Y-69622200D01*
X128410627Y-69622200D01*
X128658076Y-69622199D01*
X128661470Y-69621830D01*
X128661476Y-69621830D01*
X128711422Y-69616405D01*
X128711426Y-69616404D01*
X128719280Y-69615551D01*
X128853524Y-69565226D01*
X128860703Y-69559846D01*
X128860706Y-69559844D01*
X128961065Y-69484628D01*
X128968246Y-69479246D01*
X128996323Y-69441783D01*
X129048844Y-69371706D01*
X129048846Y-69371703D01*
X129054226Y-69364524D01*
X129092181Y-69263278D01*
X129101779Y-69237675D01*
X129101779Y-69237673D01*
X129104551Y-69230280D01*
X129110091Y-69179287D01*
X129110438Y-69176094D01*
X129137681Y-69110532D01*
X129196044Y-69070106D01*
X129266999Y-69067652D01*
X129328016Y-69103948D01*
X129359724Y-69167470D01*
X129360964Y-69176098D01*
X129365598Y-69218759D01*
X129366849Y-69230280D01*
X129417174Y-69364524D01*
X129422554Y-69371703D01*
X129422556Y-69371706D01*
X129475077Y-69441783D01*
X129503154Y-69479246D01*
X129584675Y-69540343D01*
X129584766Y-69540411D01*
X129627280Y-69597271D01*
X129635200Y-69641237D01*
X129635200Y-72212400D01*
X129615198Y-72280521D01*
X129561542Y-72327014D01*
X129509200Y-72338400D01*
X129183012Y-72338401D01*
X129165124Y-72338401D01*
X129161730Y-72338770D01*
X129161724Y-72338770D01*
X129111778Y-72344195D01*
X129111774Y-72344196D01*
X129103920Y-72345049D01*
X128969676Y-72395374D01*
X128962497Y-72400754D01*
X128962494Y-72400756D01*
X128866099Y-72473001D01*
X128854954Y-72481354D01*
X128849572Y-72488535D01*
X128774356Y-72588894D01*
X128774354Y-72588897D01*
X128768974Y-72596076D01*
X128745018Y-72659980D01*
X128722577Y-72719843D01*
X128718649Y-72730320D01*
X128717796Y-72738169D01*
X128717796Y-72738170D01*
X128712762Y-72784506D01*
X128685519Y-72850068D01*
X128627156Y-72890494D01*
X128556201Y-72892948D01*
X128495184Y-72856652D01*
X128463476Y-72793130D01*
X128462236Y-72784502D01*
X128461632Y-72778935D01*
X128459222Y-72756748D01*
X128457205Y-72738179D01*
X128457204Y-72738176D01*
X128456351Y-72730320D01*
X128406026Y-72596076D01*
X128400646Y-72588897D01*
X128400644Y-72588894D01*
X128325428Y-72488535D01*
X128320046Y-72481354D01*
X128308901Y-72473001D01*
X128212506Y-72400756D01*
X128212503Y-72400754D01*
X128205324Y-72395374D01*
X128100786Y-72356185D01*
X128078475Y-72347821D01*
X128078473Y-72347821D01*
X128071080Y-72345049D01*
X128063230Y-72344196D01*
X128063229Y-72344196D01*
X128013274Y-72338769D01*
X128013273Y-72338769D01*
X128009877Y-72338400D01*
X127762573Y-72338400D01*
X127515124Y-72338401D01*
X127511730Y-72338770D01*
X127511724Y-72338770D01*
X127461778Y-72344195D01*
X127461774Y-72344196D01*
X127453920Y-72345049D01*
X127319676Y-72395374D01*
X127312497Y-72400754D01*
X127312494Y-72400756D01*
X127216099Y-72473001D01*
X127204954Y-72481354D01*
X127199572Y-72488535D01*
X127124356Y-72588894D01*
X127124354Y-72588897D01*
X127118974Y-72596076D01*
X127095018Y-72659980D01*
X127072577Y-72719843D01*
X127068649Y-72730320D01*
X127067796Y-72738170D01*
X127067796Y-72738171D01*
X127063269Y-72779842D01*
X127062000Y-72791523D01*
X127062000Y-72841800D01*
X127041998Y-72909921D01*
X126988342Y-72956414D01*
X126936000Y-72967800D01*
X126338566Y-72967800D01*
X126270445Y-72947798D01*
X126247745Y-72928298D01*
X126246612Y-72926649D01*
X126238849Y-72919732D01*
X126125692Y-72818912D01*
X126125688Y-72818910D01*
X126120021Y-72813860D01*
X126106746Y-72806831D01*
X126031865Y-72767184D01*
X125970181Y-72734524D01*
X125805741Y-72693219D01*
X125798143Y-72693179D01*
X125798141Y-72693179D01*
X125720968Y-72692775D01*
X125636195Y-72692331D01*
X125628808Y-72694105D01*
X125628804Y-72694105D01*
X125518478Y-72720593D01*
X125447570Y-72717047D01*
X125389836Y-72675728D01*
X125363605Y-72609754D01*
X125377207Y-72540073D01*
X125399968Y-72508980D01*
X126243628Y-71665320D01*
X126254523Y-71643937D01*
X126264847Y-71627091D01*
X126273120Y-71615704D01*
X126278949Y-71607681D01*
X126282013Y-71598250D01*
X126282015Y-71598247D01*
X126286364Y-71584863D01*
X126293928Y-71566602D01*
X126300316Y-71554064D01*
X126300316Y-71554063D01*
X126304819Y-71545226D01*
X126308572Y-71521529D01*
X126313186Y-71502310D01*
X126320600Y-71479493D01*
X126320600Y-70277907D01*
X126313186Y-70255090D01*
X126308572Y-70235870D01*
X126308049Y-70232565D01*
X126304819Y-70212174D01*
X126299797Y-70202318D01*
X126293928Y-70190798D01*
X126286364Y-70172537D01*
X126282014Y-70159151D01*
X126282013Y-70159150D01*
X126278949Y-70149719D01*
X126264849Y-70130312D01*
X126254521Y-70113459D01*
X126243628Y-70092080D01*
X126148320Y-69996772D01*
X126148318Y-69996771D01*
X125414825Y-69263278D01*
X125380799Y-69200966D01*
X125379177Y-69156432D01*
X125380808Y-69144967D01*
X125381390Y-69140878D01*
X125381545Y-69126100D01*
X125361176Y-68957780D01*
X125301245Y-68799177D01*
X125296944Y-68792919D01*
X125209514Y-68665708D01*
X125209513Y-68665707D01*
X125205212Y-68659449D01*
X125156890Y-68616395D01*
X125119336Y-68556146D01*
X125114711Y-68522321D01*
X125114711Y-65973218D01*
X125107297Y-65950401D01*
X125102683Y-65931181D01*
X125101656Y-65924698D01*
X125098930Y-65907485D01*
X125094427Y-65898647D01*
X125088039Y-65886109D01*
X125080475Y-65867848D01*
X125076126Y-65854464D01*
X125076124Y-65854461D01*
X125073060Y-65845030D01*
X125058958Y-65825620D01*
X125048634Y-65808774D01*
X125037739Y-65787391D01*
X124576625Y-65326277D01*
X124542599Y-65263965D01*
X124540977Y-65219429D01*
X124542609Y-65207963D01*
X124542609Y-65207957D01*
X124543190Y-65203878D01*
X124543345Y-65189100D01*
X124541040Y-65170048D01*
X124534898Y-65119300D01*
X124522976Y-65020780D01*
X124463045Y-64862177D01*
X124421814Y-64802186D01*
X124371314Y-64728708D01*
X124371313Y-64728707D01*
X124367012Y-64722449D01*
X124360819Y-64716931D01*
X124246092Y-64614712D01*
X124246088Y-64614710D01*
X124240421Y-64609660D01*
X124090581Y-64530324D01*
X123926141Y-64489019D01*
X123918543Y-64488979D01*
X123918541Y-64488979D01*
X123841368Y-64488575D01*
X123756595Y-64488131D01*
X123749208Y-64489905D01*
X123749204Y-64489905D01*
X123635908Y-64517106D01*
X123591732Y-64527712D01*
X123584988Y-64531193D01*
X123584985Y-64531194D01*
X123459374Y-64596027D01*
X123441069Y-64605475D01*
X123435347Y-64610467D01*
X123435345Y-64610468D01*
X123320589Y-64710576D01*
X123313304Y-64716931D01*
X123309618Y-64722176D01*
X123249605Y-64759149D01*
X123216413Y-64763600D01*
X122220907Y-64763600D01*
X122198090Y-64771014D01*
X122178871Y-64775628D01*
X122155174Y-64779381D01*
X122146337Y-64783884D01*
X122146336Y-64783884D01*
X122133798Y-64790272D01*
X122115537Y-64797836D01*
X122102151Y-64802186D01*
X122102150Y-64802187D01*
X122092719Y-64805251D01*
X122084699Y-64811078D01*
X122084697Y-64811079D01*
X122073312Y-64819351D01*
X122056459Y-64829679D01*
X122035080Y-64840572D01*
X121939772Y-64935880D01*
X121939771Y-64935882D01*
X120790480Y-66085172D01*
X120695172Y-66180480D01*
X120684277Y-66201863D01*
X120673953Y-66218709D01*
X120659851Y-66238119D01*
X120656787Y-66247550D01*
X120656785Y-66247553D01*
X120652436Y-66260937D01*
X120644872Y-66279198D01*
X120633981Y-66300574D01*
X120632430Y-66310368D01*
X120630228Y-66324270D01*
X120625614Y-66343490D01*
X120618200Y-66366307D01*
X120618200Y-66960970D01*
X120598198Y-67029091D01*
X120575029Y-67055919D01*
X120556619Y-67071979D01*
X120519304Y-67104531D01*
X120515618Y-67109776D01*
X120455605Y-67146749D01*
X120422413Y-67151200D01*
X118639507Y-67151200D01*
X118630080Y-67154263D01*
X118630073Y-67154264D01*
X118616688Y-67158613D01*
X118597469Y-67163227D01*
X118583569Y-67165429D01*
X118583566Y-67165430D01*
X118573774Y-67166981D01*
X118552403Y-67177870D01*
X118534139Y-67185435D01*
X118520752Y-67189785D01*
X118520749Y-67189786D01*
X118511320Y-67192850D01*
X118491906Y-67206956D01*
X118475054Y-67217282D01*
X118453680Y-67228172D01*
X117748772Y-67933080D01*
X117737877Y-67954463D01*
X117727553Y-67971309D01*
X117713451Y-67990719D01*
X117710387Y-68000150D01*
X117710385Y-68000153D01*
X117706036Y-68013537D01*
X117698472Y-68031798D01*
X117694749Y-68039105D01*
X117687581Y-68053174D01*
X117686030Y-68062968D01*
X117683828Y-68076870D01*
X117679214Y-68096090D01*
X117671800Y-68118907D01*
X117671800Y-69145370D01*
X117651798Y-69213491D01*
X117628629Y-69240319D01*
X117587373Y-69276309D01*
X117572904Y-69288931D01*
X117569218Y-69294176D01*
X117509205Y-69331149D01*
X117476013Y-69335600D01*
X114210938Y-69335600D01*
X114142817Y-69315598D01*
X114121843Y-69298695D01*
X114035625Y-69212477D01*
X114001599Y-69150165D01*
X113999977Y-69105629D01*
X114001609Y-69094163D01*
X114001609Y-69094157D01*
X114002190Y-69090078D01*
X114002345Y-69075300D01*
X114001766Y-69070511D01*
X113991982Y-68989665D01*
X113981976Y-68906980D01*
X113927168Y-68761935D01*
X113924729Y-68755480D01*
X113922045Y-68748377D01*
X113916303Y-68740022D01*
X113830314Y-68614908D01*
X113830313Y-68614907D01*
X113826012Y-68608649D01*
X113764379Y-68553736D01*
X113726825Y-68493486D01*
X113722200Y-68459661D01*
X113722200Y-67373338D01*
X113742202Y-67305217D01*
X113759105Y-67284243D01*
X114833043Y-66210305D01*
X114895355Y-66176279D01*
X114922138Y-66173400D01*
X117018734Y-66173400D01*
X117086855Y-66193402D01*
X117105431Y-66209531D01*
X117105930Y-66208983D01*
X117225712Y-66317977D01*
X117225716Y-66317980D01*
X117231333Y-66323091D01*
X117238006Y-66326714D01*
X117238010Y-66326717D01*
X117373658Y-66400367D01*
X117373660Y-66400368D01*
X117380335Y-66403992D01*
X117387684Y-66405920D01*
X117536983Y-66445088D01*
X117536985Y-66445088D01*
X117544333Y-66447016D01*
X117630709Y-66448373D01*
X117706261Y-66449560D01*
X117706264Y-66449560D01*
X117713860Y-66449679D01*
X117721265Y-66447983D01*
X117721266Y-66447983D01*
X117793514Y-66431436D01*
X117879129Y-66411828D01*
X118030598Y-66335647D01*
X118144788Y-66238119D01*
X118153751Y-66230464D01*
X118153752Y-66230463D01*
X118159523Y-66225534D01*
X118258461Y-66087847D01*
X118261294Y-66080800D01*
X118318866Y-65937587D01*
X118318867Y-65937585D01*
X118321701Y-65930534D01*
X118336632Y-65825620D01*
X118345009Y-65766762D01*
X118345009Y-65766759D01*
X118345590Y-65762678D01*
X118345745Y-65747900D01*
X118325376Y-65579580D01*
X118265445Y-65420977D01*
X118226321Y-65364051D01*
X118173714Y-65287508D01*
X118173713Y-65287507D01*
X118169412Y-65281249D01*
X118165857Y-65278081D01*
X118136325Y-65214846D01*
X118145830Y-65144489D01*
X118171790Y-65106758D01*
X119328843Y-63949705D01*
X119391155Y-63915679D01*
X119417938Y-63912800D01*
X119863534Y-63912800D01*
X119931655Y-63932802D01*
X119950231Y-63948931D01*
X119950730Y-63948383D01*
X120070512Y-64057377D01*
X120070516Y-64057380D01*
X120076133Y-64062491D01*
X120082806Y-64066114D01*
X120082810Y-64066117D01*
X120218458Y-64139767D01*
X120218460Y-64139768D01*
X120225135Y-64143392D01*
X120232484Y-64145320D01*
X120381783Y-64184488D01*
X120381785Y-64184488D01*
X120389133Y-64186416D01*
X120475509Y-64187773D01*
X120551061Y-64188960D01*
X120551064Y-64188960D01*
X120558660Y-64189079D01*
X120566065Y-64187383D01*
X120566066Y-64187383D01*
X120632197Y-64172237D01*
X120723929Y-64151228D01*
X120875398Y-64075047D01*
X121004323Y-63964934D01*
X121103261Y-63827247D01*
X121106094Y-63820200D01*
X121163666Y-63676987D01*
X121163667Y-63676985D01*
X121166501Y-63669934D01*
X121185876Y-63533794D01*
X121189809Y-63506162D01*
X121189809Y-63506159D01*
X121190390Y-63502078D01*
X121190545Y-63487300D01*
X121170176Y-63318980D01*
X121110245Y-63160377D01*
X121097031Y-63141151D01*
X121018514Y-63026908D01*
X121018513Y-63026907D01*
X121014212Y-63020649D01*
X120955687Y-62968505D01*
X120918133Y-62908255D01*
X120919114Y-62837265D01*
X120950413Y-62785335D01*
X122239562Y-61496186D01*
X122301874Y-61462160D01*
X122372689Y-61467225D01*
X122388778Y-61474550D01*
X122479054Y-61523565D01*
X122479057Y-61523566D01*
X122485735Y-61527192D01*
X122493084Y-61529120D01*
X122642383Y-61568288D01*
X122642385Y-61568288D01*
X122649733Y-61570216D01*
X122736109Y-61571573D01*
X122811661Y-61572760D01*
X122811664Y-61572760D01*
X122819260Y-61572879D01*
X122826665Y-61571183D01*
X122826666Y-61571183D01*
X122887086Y-61557345D01*
X122984529Y-61535028D01*
X123135998Y-61458847D01*
X123264923Y-61348734D01*
X123363861Y-61211047D01*
X123366694Y-61204000D01*
X123424266Y-61060787D01*
X123424267Y-61060785D01*
X123427101Y-61053734D01*
X123435400Y-60995420D01*
X123464800Y-60930797D01*
X123471047Y-60924078D01*
X123907875Y-60487250D01*
X124346319Y-60048805D01*
X124408632Y-60014780D01*
X124435415Y-60011900D01*
X150919767Y-60011900D01*
X150987888Y-60031902D01*
X151034381Y-60085558D01*
X151044485Y-60155832D01*
X151014991Y-60220412D01*
X151002596Y-60232849D01*
X150885004Y-60335431D01*
X150880637Y-60341645D01*
X150793322Y-60465882D01*
X150787513Y-60474147D01*
X150725924Y-60632113D01*
X150703794Y-60800211D01*
X150722399Y-60968735D01*
X150780666Y-61127956D01*
X150875230Y-61268683D01*
X150880842Y-61273790D01*
X150880845Y-61273793D01*
X150995012Y-61377677D01*
X150995016Y-61377680D01*
X151000633Y-61382791D01*
X151007306Y-61386414D01*
X151007310Y-61386417D01*
X151142958Y-61460067D01*
X151142960Y-61460068D01*
X151149635Y-61463692D01*
X151156984Y-61465620D01*
X151306283Y-61504788D01*
X151306285Y-61504788D01*
X151313633Y-61506716D01*
X151400009Y-61508073D01*
X151475561Y-61509260D01*
X151475564Y-61509260D01*
X151483160Y-61509379D01*
X151490565Y-61507683D01*
X151490566Y-61507683D01*
X151550986Y-61493845D01*
X151648429Y-61471528D01*
X151799898Y-61395347D01*
X151928823Y-61285234D01*
X151933254Y-61279067D01*
X151938084Y-61273815D01*
X151998916Y-61237209D01*
X152030833Y-61233100D01*
X152374762Y-61233100D01*
X152442883Y-61253102D01*
X152463857Y-61270005D01*
X153410795Y-62216943D01*
X153444821Y-62279255D01*
X153447700Y-62306038D01*
X153447700Y-62350870D01*
X153427698Y-62418991D01*
X153404529Y-62445819D01*
X153384888Y-62462953D01*
X153348804Y-62494431D01*
X153330062Y-62521098D01*
X153265071Y-62613572D01*
X153251313Y-62633147D01*
X153189724Y-62791113D01*
X153188732Y-62798646D01*
X153188732Y-62798647D01*
X153168911Y-62949208D01*
X153167594Y-62959211D01*
X153168428Y-62966763D01*
X153172015Y-62999261D01*
X153159609Y-63069165D01*
X153135871Y-63102181D01*
X151778057Y-64459995D01*
X151715745Y-64494021D01*
X151688962Y-64496900D01*
X150887666Y-64496900D01*
X150819545Y-64476898D01*
X150796845Y-64457398D01*
X150795712Y-64455749D01*
X150780707Y-64442380D01*
X150674792Y-64348012D01*
X150674788Y-64348010D01*
X150669121Y-64342960D01*
X150654985Y-64335475D01*
X150559993Y-64285180D01*
X150519281Y-64263624D01*
X150354841Y-64222319D01*
X150347243Y-64222279D01*
X150347241Y-64222279D01*
X150270068Y-64221875D01*
X150185295Y-64221431D01*
X150177908Y-64223205D01*
X150177904Y-64223205D01*
X150073388Y-64248298D01*
X150020432Y-64261012D01*
X150013688Y-64264493D01*
X150013685Y-64264494D01*
X149878276Y-64334384D01*
X149869769Y-64338775D01*
X149864047Y-64343767D01*
X149864045Y-64343768D01*
X149821162Y-64381177D01*
X149742004Y-64450231D01*
X149714121Y-64489905D01*
X149649095Y-64582428D01*
X149644513Y-64588947D01*
X149582924Y-64746913D01*
X149581932Y-64754446D01*
X149581932Y-64754447D01*
X149562300Y-64903574D01*
X149560794Y-64915011D01*
X149579399Y-65083535D01*
X149592487Y-65119300D01*
X149631944Y-65227119D01*
X149637666Y-65242756D01*
X149732230Y-65383483D01*
X149737842Y-65388590D01*
X149737845Y-65388593D01*
X149852012Y-65492477D01*
X149852016Y-65492480D01*
X149857633Y-65497591D01*
X149864306Y-65501214D01*
X149864310Y-65501217D01*
X149999958Y-65574867D01*
X149999960Y-65574868D01*
X150006635Y-65578492D01*
X150088941Y-65600084D01*
X150149756Y-65636717D01*
X150181111Y-65700415D01*
X150173052Y-65770952D01*
X150139796Y-65816909D01*
X150100975Y-65850775D01*
X150046804Y-65898031D01*
X150011850Y-65947765D01*
X149956647Y-66026312D01*
X149949313Y-66036747D01*
X149887724Y-66194713D01*
X149886732Y-66202246D01*
X149886732Y-66202247D01*
X149867140Y-66351071D01*
X149865594Y-66362811D01*
X149884199Y-66531335D01*
X149942466Y-66690556D01*
X150037030Y-66831283D01*
X150042642Y-66836390D01*
X150042645Y-66836393D01*
X150156812Y-66940277D01*
X150156816Y-66940280D01*
X150162433Y-66945391D01*
X150169106Y-66949014D01*
X150169110Y-66949017D01*
X150304758Y-67022667D01*
X150304760Y-67022668D01*
X150311435Y-67026292D01*
X150318784Y-67028220D01*
X150468083Y-67067388D01*
X150468085Y-67067388D01*
X150475433Y-67069316D01*
X150561809Y-67070673D01*
X150637361Y-67071860D01*
X150637364Y-67071860D01*
X150644960Y-67071979D01*
X150652365Y-67070283D01*
X150652366Y-67070283D01*
X150802828Y-67035823D01*
X150810229Y-67034128D01*
X150817014Y-67030716D01*
X150820818Y-67029346D01*
X150891687Y-67025089D01*
X150953606Y-67059823D01*
X150986918Y-67122520D01*
X150989500Y-67147896D01*
X150989501Y-67332708D01*
X150989501Y-67519776D01*
X150996149Y-67580980D01*
X151001616Y-67595562D01*
X151004085Y-67602149D01*
X151009269Y-67672956D01*
X150975349Y-67735325D01*
X150913094Y-67769455D01*
X150886104Y-67772380D01*
X150657327Y-67772380D01*
X150647900Y-67775443D01*
X150647893Y-67775444D01*
X150634508Y-67779793D01*
X150615289Y-67784407D01*
X150601392Y-67786608D01*
X150601385Y-67786610D01*
X150591594Y-67788161D01*
X150570218Y-67799053D01*
X150551957Y-67806616D01*
X150529139Y-67814030D01*
X150521117Y-67819859D01*
X150521116Y-67819859D01*
X150509731Y-67828131D01*
X150492876Y-67838461D01*
X150471500Y-67849352D01*
X149944660Y-68376192D01*
X149882348Y-68410218D01*
X149854905Y-68413095D01*
X149799453Y-68412805D01*
X149728095Y-68412431D01*
X149720708Y-68414205D01*
X149720704Y-68414205D01*
X149621678Y-68437980D01*
X149563232Y-68452012D01*
X149556488Y-68455493D01*
X149556485Y-68455494D01*
X149419317Y-68526292D01*
X149412569Y-68529775D01*
X149406847Y-68534767D01*
X149406845Y-68534768D01*
X149382339Y-68556146D01*
X149284804Y-68641231D01*
X149275549Y-68654400D01*
X149192145Y-68773072D01*
X149187313Y-68779947D01*
X149125724Y-68937913D01*
X149124732Y-68945446D01*
X149124732Y-68945447D01*
X149105001Y-69095326D01*
X149103594Y-69106011D01*
X149122199Y-69274535D01*
X149140423Y-69324334D01*
X149174253Y-69416777D01*
X149180466Y-69433756D01*
X149275030Y-69574483D01*
X149280642Y-69579590D01*
X149280645Y-69579593D01*
X149394812Y-69683477D01*
X149394816Y-69683480D01*
X149400433Y-69688591D01*
X149407110Y-69692216D01*
X149407111Y-69692217D01*
X149527999Y-69757854D01*
X149578321Y-69807937D01*
X149593577Y-69877275D01*
X149568924Y-69943854D01*
X149556972Y-69957680D01*
X149498161Y-70016491D01*
X149487266Y-70037874D01*
X149476942Y-70054720D01*
X149462840Y-70074130D01*
X149459776Y-70083561D01*
X149459774Y-70083564D01*
X149455425Y-70096948D01*
X149447861Y-70115209D01*
X149444226Y-70122344D01*
X149436970Y-70136585D01*
X149434471Y-70152364D01*
X149433217Y-70160281D01*
X149428603Y-70179501D01*
X149421189Y-70202318D01*
X149421189Y-72251073D01*
X149401187Y-72319194D01*
X149384284Y-72340168D01*
X148733523Y-72990929D01*
X148671211Y-73024955D01*
X148600396Y-73019890D01*
X148543560Y-72977343D01*
X148532766Y-72960208D01*
X148532230Y-72959182D01*
X148529545Y-72952077D01*
X148525246Y-72945822D01*
X148525244Y-72945818D01*
X148437814Y-72818608D01*
X148437813Y-72818607D01*
X148433512Y-72812349D01*
X148427319Y-72806831D01*
X148312592Y-72704612D01*
X148312588Y-72704610D01*
X148306921Y-72699560D01*
X148296619Y-72694105D01*
X148221687Y-72654431D01*
X148157081Y-72620224D01*
X147992641Y-72578919D01*
X147985043Y-72578879D01*
X147985041Y-72578879D01*
X147907868Y-72578475D01*
X147823095Y-72578031D01*
X147815708Y-72579805D01*
X147815704Y-72579805D01*
X147712929Y-72604480D01*
X147658232Y-72617612D01*
X147651488Y-72621093D01*
X147651485Y-72621094D01*
X147515743Y-72691156D01*
X147507569Y-72695375D01*
X147501847Y-72700367D01*
X147501845Y-72700368D01*
X147412771Y-72778072D01*
X147379804Y-72806831D01*
X147376118Y-72812076D01*
X147316105Y-72849049D01*
X147282913Y-72853500D01*
X147081664Y-72853500D01*
X147013543Y-72833498D01*
X146967050Y-72779842D01*
X146963688Y-72771745D01*
X146959726Y-72761176D01*
X146954346Y-72753997D01*
X146954344Y-72753994D01*
X146879128Y-72653635D01*
X146873746Y-72646454D01*
X146857923Y-72634595D01*
X146766206Y-72565856D01*
X146766203Y-72565854D01*
X146759024Y-72560474D01*
X146659525Y-72523174D01*
X146632175Y-72512921D01*
X146632173Y-72512921D01*
X146624780Y-72510149D01*
X146616930Y-72509296D01*
X146616929Y-72509296D01*
X146566974Y-72503869D01*
X146566973Y-72503869D01*
X146563577Y-72503500D01*
X146316273Y-72503500D01*
X146068824Y-72503501D01*
X146065430Y-72503870D01*
X146065424Y-72503870D01*
X146015478Y-72509295D01*
X146015474Y-72509296D01*
X146007620Y-72510149D01*
X145873376Y-72560474D01*
X145866197Y-72565854D01*
X145866194Y-72565856D01*
X145774477Y-72634595D01*
X145758654Y-72646454D01*
X145753272Y-72653635D01*
X145678056Y-72753994D01*
X145678054Y-72753997D01*
X145672674Y-72761176D01*
X145622349Y-72895420D01*
X145621496Y-72903269D01*
X145621496Y-72903270D01*
X145616462Y-72949606D01*
X145589219Y-73015168D01*
X145530856Y-73055594D01*
X145459901Y-73058048D01*
X145398884Y-73021752D01*
X145367176Y-72958230D01*
X145365936Y-72949602D01*
X145364716Y-72938364D01*
X145360051Y-72895420D01*
X145309726Y-72761176D01*
X145304346Y-72753997D01*
X145304344Y-72753994D01*
X145229128Y-72653635D01*
X145223746Y-72646454D01*
X145207923Y-72634595D01*
X145116206Y-72565856D01*
X145116203Y-72565854D01*
X145109024Y-72560474D01*
X145009525Y-72523174D01*
X144982175Y-72512921D01*
X144982173Y-72512921D01*
X144974780Y-72510149D01*
X144966930Y-72509296D01*
X144966929Y-72509296D01*
X144916974Y-72503869D01*
X144916973Y-72503869D01*
X144913577Y-72503500D01*
X144666273Y-72503500D01*
X144418824Y-72503501D01*
X144415430Y-72503870D01*
X144415424Y-72503870D01*
X144365478Y-72509295D01*
X144365474Y-72509296D01*
X144357620Y-72510149D01*
X144259575Y-72546904D01*
X144258129Y-72547446D01*
X144187322Y-72552629D01*
X144124953Y-72518708D01*
X144090824Y-72456452D01*
X144087900Y-72429464D01*
X144087900Y-69171337D01*
X144107902Y-69103216D01*
X144138334Y-69070511D01*
X144219946Y-69009346D01*
X144252942Y-68965320D01*
X144300544Y-68901806D01*
X144300546Y-68901803D01*
X144305926Y-68894624D01*
X144350517Y-68775676D01*
X144353479Y-68767775D01*
X144353479Y-68767773D01*
X144356251Y-68760380D01*
X144358235Y-68742119D01*
X144362138Y-68706194D01*
X144389381Y-68640632D01*
X144447744Y-68600206D01*
X144518699Y-68597752D01*
X144579716Y-68634048D01*
X144611424Y-68697570D01*
X144612663Y-68706190D01*
X144618549Y-68760380D01*
X144668874Y-68894624D01*
X144674254Y-68901803D01*
X144674256Y-68901806D01*
X144721858Y-68965320D01*
X144754854Y-69009346D01*
X144762035Y-69014728D01*
X144862394Y-69089944D01*
X144862397Y-69089946D01*
X144869576Y-69095326D01*
X144940709Y-69121992D01*
X144996425Y-69142879D01*
X144996427Y-69142879D01*
X145003820Y-69145651D01*
X145011670Y-69146504D01*
X145011671Y-69146504D01*
X145061617Y-69151930D01*
X145065023Y-69152300D01*
X145312327Y-69152300D01*
X145559776Y-69152299D01*
X145563170Y-69151930D01*
X145563176Y-69151930D01*
X145613122Y-69146505D01*
X145613126Y-69146504D01*
X145620980Y-69145651D01*
X145755224Y-69095326D01*
X145762403Y-69089946D01*
X145762406Y-69089944D01*
X145862765Y-69014728D01*
X145869946Y-69009346D01*
X145902942Y-68965320D01*
X145950544Y-68901806D01*
X145950546Y-68901803D01*
X145955926Y-68894624D01*
X145959882Y-68884070D01*
X145961251Y-68882248D01*
X145963388Y-68878345D01*
X145963951Y-68878653D01*
X146002522Y-68827307D01*
X146069084Y-68802606D01*
X146077864Y-68802300D01*
X146190634Y-68802300D01*
X146258755Y-68822302D01*
X146277331Y-68838431D01*
X146277830Y-68837883D01*
X146397612Y-68946877D01*
X146397616Y-68946880D01*
X146403233Y-68951991D01*
X146409906Y-68955614D01*
X146409910Y-68955617D01*
X146545558Y-69029267D01*
X146545560Y-69029268D01*
X146552235Y-69032892D01*
X146559584Y-69034820D01*
X146708883Y-69073988D01*
X146708885Y-69073988D01*
X146716233Y-69075916D01*
X146802609Y-69077273D01*
X146878161Y-69078460D01*
X146878164Y-69078460D01*
X146885760Y-69078579D01*
X146893165Y-69076883D01*
X146893166Y-69076883D01*
X146974151Y-69058335D01*
X147051029Y-69040728D01*
X147202498Y-68964547D01*
X147331423Y-68854434D01*
X147430361Y-68716747D01*
X147433194Y-68709700D01*
X147490766Y-68566487D01*
X147490767Y-68566485D01*
X147493601Y-68559434D01*
X147507801Y-68459661D01*
X147516909Y-68395662D01*
X147516909Y-68395659D01*
X147517490Y-68391578D01*
X147517645Y-68376800D01*
X147515840Y-68361880D01*
X147506612Y-68285631D01*
X147497276Y-68208480D01*
X147437345Y-68049877D01*
X147415972Y-68018779D01*
X147345614Y-67916408D01*
X147345613Y-67916407D01*
X147341312Y-67910149D01*
X147332001Y-67901853D01*
X147220392Y-67802412D01*
X147220388Y-67802410D01*
X147214721Y-67797360D01*
X147205777Y-67792624D01*
X147142902Y-67759334D01*
X147064881Y-67718024D01*
X146900441Y-67676719D01*
X146892843Y-67676679D01*
X146892841Y-67676679D01*
X146815668Y-67676275D01*
X146730895Y-67675831D01*
X146723508Y-67677605D01*
X146723504Y-67677605D01*
X146602669Y-67706616D01*
X146566032Y-67715412D01*
X146559288Y-67718893D01*
X146559285Y-67718894D01*
X146429433Y-67785916D01*
X146415369Y-67793175D01*
X146409647Y-67798167D01*
X146409645Y-67798168D01*
X146305597Y-67888935D01*
X146287604Y-67904631D01*
X146283918Y-67909876D01*
X146223905Y-67946849D01*
X146190713Y-67951300D01*
X146077864Y-67951300D01*
X146009743Y-67931298D01*
X145963250Y-67877642D01*
X145959888Y-67869545D01*
X145955926Y-67858976D01*
X145950546Y-67851797D01*
X145950544Y-67851794D01*
X145875328Y-67751435D01*
X145869946Y-67744254D01*
X145839135Y-67721162D01*
X145762406Y-67663656D01*
X145762403Y-67663654D01*
X145755224Y-67658274D01*
X145642150Y-67615885D01*
X145628375Y-67610721D01*
X145628373Y-67610721D01*
X145620980Y-67607949D01*
X145613130Y-67607096D01*
X145613129Y-67607096D01*
X145563174Y-67601669D01*
X145563173Y-67601669D01*
X145559777Y-67601300D01*
X145312473Y-67601300D01*
X145065024Y-67601301D01*
X145061630Y-67601670D01*
X145061624Y-67601670D01*
X145011678Y-67607095D01*
X145011674Y-67607096D01*
X145003820Y-67607949D01*
X144869576Y-67658274D01*
X144862397Y-67663654D01*
X144862394Y-67663656D01*
X144785665Y-67721162D01*
X144754854Y-67744254D01*
X144749472Y-67751435D01*
X144674256Y-67851794D01*
X144674254Y-67851797D01*
X144668874Y-67858976D01*
X144641762Y-67931298D01*
X144625614Y-67974375D01*
X144618549Y-67993220D01*
X144617696Y-68001069D01*
X144617696Y-68001070D01*
X144612662Y-68047406D01*
X144585419Y-68112968D01*
X144527056Y-68153394D01*
X144456101Y-68155848D01*
X144395084Y-68119552D01*
X144363376Y-68056030D01*
X144362136Y-68047402D01*
X144361021Y-68037131D01*
X144357518Y-68004880D01*
X144357105Y-68001079D01*
X144357104Y-68001076D01*
X144356251Y-67993220D01*
X144305926Y-67858976D01*
X144300546Y-67851797D01*
X144300544Y-67851794D01*
X144225328Y-67751435D01*
X144219946Y-67744254D01*
X144189133Y-67721161D01*
X144146619Y-67664302D01*
X144138700Y-67620336D01*
X144138700Y-67386038D01*
X144158702Y-67317917D01*
X144175605Y-67296943D01*
X144836928Y-66635620D01*
X144847823Y-66614237D01*
X144858147Y-66597391D01*
X144866420Y-66586004D01*
X144872249Y-66577981D01*
X144875313Y-66568550D01*
X144875315Y-66568547D01*
X144879664Y-66555163D01*
X144887228Y-66536902D01*
X144893616Y-66524364D01*
X144893616Y-66524363D01*
X144898119Y-66515526D01*
X144901872Y-66491829D01*
X144906486Y-66472610D01*
X144913900Y-66449793D01*
X144913900Y-64853337D01*
X144933902Y-64785216D01*
X144964334Y-64752511D01*
X145045946Y-64691346D01*
X145069089Y-64660467D01*
X145126544Y-64583806D01*
X145126546Y-64583803D01*
X145131926Y-64576624D01*
X145172082Y-64469506D01*
X145179479Y-64449775D01*
X145179479Y-64449773D01*
X145182251Y-64442380D01*
X145183105Y-64434521D01*
X145188138Y-64388194D01*
X145215381Y-64322632D01*
X145273744Y-64282206D01*
X145344699Y-64279752D01*
X145405716Y-64316048D01*
X145437424Y-64379570D01*
X145438663Y-64388190D01*
X145444549Y-64442380D01*
X145494874Y-64576624D01*
X145500254Y-64583803D01*
X145500256Y-64583806D01*
X145557711Y-64660467D01*
X145580854Y-64691346D01*
X145588035Y-64696728D01*
X145688394Y-64771944D01*
X145688397Y-64771946D01*
X145695576Y-64777326D01*
X145761891Y-64802186D01*
X145822425Y-64824879D01*
X145822427Y-64824879D01*
X145829820Y-64827651D01*
X145837670Y-64828504D01*
X145837671Y-64828504D01*
X145848524Y-64829683D01*
X145891023Y-64834300D01*
X146138327Y-64834300D01*
X146385776Y-64834299D01*
X146389170Y-64833930D01*
X146389176Y-64833930D01*
X146439122Y-64828505D01*
X146439126Y-64828504D01*
X146446980Y-64827651D01*
X146581224Y-64777326D01*
X146588403Y-64771946D01*
X146588406Y-64771944D01*
X146688765Y-64696728D01*
X146695946Y-64691346D01*
X146719089Y-64660467D01*
X146776544Y-64583806D01*
X146776546Y-64583803D01*
X146781926Y-64576624D01*
X146785882Y-64566070D01*
X146787251Y-64564248D01*
X146789388Y-64560345D01*
X146789951Y-64560653D01*
X146828522Y-64509307D01*
X146895084Y-64484606D01*
X146903864Y-64484300D01*
X147134807Y-64484300D01*
X147202928Y-64504302D01*
X147219606Y-64517106D01*
X147267464Y-64560653D01*
X147292233Y-64583191D01*
X147315874Y-64596027D01*
X147434558Y-64660467D01*
X147434560Y-64660468D01*
X147441235Y-64664092D01*
X147448584Y-64666020D01*
X147597883Y-64705188D01*
X147597885Y-64705188D01*
X147605233Y-64707116D01*
X147691609Y-64708473D01*
X147767161Y-64709660D01*
X147767164Y-64709660D01*
X147774760Y-64709779D01*
X147782165Y-64708083D01*
X147782166Y-64708083D01*
X147855244Y-64691346D01*
X147940029Y-64671928D01*
X148091498Y-64595747D01*
X148210603Y-64494021D01*
X148214651Y-64490564D01*
X148214652Y-64490563D01*
X148220423Y-64485634D01*
X148319361Y-64347947D01*
X148327348Y-64328080D01*
X148379766Y-64197687D01*
X148379767Y-64197685D01*
X148382601Y-64190634D01*
X148391997Y-64124613D01*
X148405909Y-64026862D01*
X148405909Y-64026859D01*
X148406490Y-64022778D01*
X148406645Y-64008000D01*
X148386276Y-63839680D01*
X148326345Y-63681077D01*
X148292768Y-63632223D01*
X148234614Y-63547608D01*
X148234613Y-63547607D01*
X148230312Y-63541349D01*
X148224119Y-63535831D01*
X148109392Y-63433612D01*
X148109388Y-63433610D01*
X148103721Y-63428560D01*
X148086599Y-63419494D01*
X148034860Y-63392100D01*
X147953881Y-63349224D01*
X147789441Y-63307919D01*
X147781843Y-63307879D01*
X147781841Y-63307879D01*
X147704668Y-63307475D01*
X147619895Y-63307031D01*
X147612508Y-63308805D01*
X147612504Y-63308805D01*
X147494551Y-63337124D01*
X147455032Y-63346612D01*
X147448288Y-63350093D01*
X147448285Y-63350094D01*
X147328147Y-63412102D01*
X147304369Y-63424375D01*
X147298647Y-63429367D01*
X147298645Y-63429368D01*
X147215296Y-63502078D01*
X147176604Y-63535831D01*
X147145737Y-63579751D01*
X147090202Y-63623982D01*
X147042650Y-63633300D01*
X146903864Y-63633300D01*
X146835743Y-63613298D01*
X146789250Y-63559642D01*
X146785888Y-63551545D01*
X146781926Y-63540976D01*
X146776546Y-63533797D01*
X146776544Y-63533794D01*
X146701328Y-63433435D01*
X146695946Y-63426254D01*
X146677063Y-63412102D01*
X146588406Y-63345656D01*
X146588403Y-63345654D01*
X146581224Y-63340274D01*
X146461270Y-63295306D01*
X146454375Y-63292721D01*
X146454373Y-63292721D01*
X146446980Y-63289949D01*
X146439130Y-63289096D01*
X146439129Y-63289096D01*
X146389174Y-63283669D01*
X146389173Y-63283669D01*
X146385777Y-63283300D01*
X146138473Y-63283300D01*
X145891024Y-63283301D01*
X145887630Y-63283670D01*
X145887624Y-63283670D01*
X145837678Y-63289095D01*
X145837674Y-63289096D01*
X145829820Y-63289949D01*
X145695576Y-63340274D01*
X145688397Y-63345654D01*
X145688394Y-63345656D01*
X145599737Y-63412102D01*
X145580854Y-63426254D01*
X145575472Y-63433435D01*
X145500256Y-63533794D01*
X145500254Y-63533797D01*
X145494874Y-63540976D01*
X145463851Y-63623730D01*
X145448237Y-63665383D01*
X145444549Y-63675220D01*
X145443696Y-63683069D01*
X145443696Y-63683070D01*
X145438662Y-63729406D01*
X145411419Y-63794968D01*
X145353056Y-63835394D01*
X145282101Y-63837848D01*
X145221084Y-63801552D01*
X145189376Y-63738030D01*
X145188136Y-63729402D01*
X145183105Y-63683079D01*
X145183104Y-63683076D01*
X145182251Y-63675220D01*
X145131926Y-63540976D01*
X145126546Y-63533797D01*
X145126544Y-63533794D01*
X145051328Y-63433435D01*
X145045946Y-63426254D01*
X145027063Y-63412102D01*
X144938406Y-63345656D01*
X144938403Y-63345654D01*
X144931224Y-63340274D01*
X144811270Y-63295306D01*
X144804375Y-63292721D01*
X144804373Y-63292721D01*
X144796980Y-63289949D01*
X144789130Y-63289096D01*
X144789129Y-63289096D01*
X144739174Y-63283669D01*
X144739173Y-63283669D01*
X144735777Y-63283300D01*
X144488473Y-63283300D01*
X144241024Y-63283301D01*
X144237630Y-63283670D01*
X144237624Y-63283670D01*
X144187678Y-63289095D01*
X144187674Y-63289096D01*
X144179820Y-63289949D01*
X144045576Y-63340274D01*
X144038397Y-63345654D01*
X144038394Y-63345656D01*
X143949737Y-63412102D01*
X143930854Y-63426254D01*
X143925472Y-63433435D01*
X143850256Y-63533794D01*
X143850254Y-63533797D01*
X143844874Y-63540976D01*
X143813851Y-63623730D01*
X143798237Y-63665383D01*
X143794549Y-63675220D01*
X143793696Y-63683070D01*
X143793696Y-63683071D01*
X143790067Y-63716475D01*
X143787900Y-63736423D01*
X143787901Y-64381176D01*
X143788270Y-64384570D01*
X143788270Y-64384576D01*
X143788664Y-64388198D01*
X143794549Y-64442380D01*
X143844874Y-64576624D01*
X143850254Y-64583803D01*
X143850256Y-64583806D01*
X143907711Y-64660467D01*
X143930854Y-64691346D01*
X144012466Y-64752511D01*
X144054980Y-64809371D01*
X144062900Y-64853337D01*
X144062900Y-66153962D01*
X144042898Y-66222083D01*
X144025995Y-66243057D01*
X143364672Y-66904380D01*
X143353777Y-66925763D01*
X143343453Y-66942609D01*
X143329351Y-66962019D01*
X143326287Y-66971450D01*
X143326285Y-66971453D01*
X143321936Y-66984837D01*
X143314372Y-67003098D01*
X143303481Y-67024474D01*
X143299728Y-67048170D01*
X143295114Y-67067388D01*
X143287700Y-67090207D01*
X143287700Y-67547764D01*
X143267698Y-67615885D01*
X143223997Y-67656617D01*
X143219576Y-67658274D01*
X143212391Y-67663659D01*
X143212389Y-67663660D01*
X143135665Y-67721162D01*
X143104854Y-67744254D01*
X143099472Y-67751435D01*
X143024256Y-67851794D01*
X143024254Y-67851797D01*
X143018874Y-67858976D01*
X142991762Y-67931298D01*
X142975614Y-67974375D01*
X142968549Y-67993220D01*
X142961900Y-68054423D01*
X142961901Y-68699176D01*
X142962270Y-68702570D01*
X142962270Y-68702576D01*
X142966580Y-68742251D01*
X142968549Y-68760380D01*
X143018874Y-68894624D01*
X143024254Y-68901803D01*
X143024256Y-68901806D01*
X143071858Y-68965320D01*
X143104854Y-69009346D01*
X143186466Y-69070511D01*
X143228980Y-69127371D01*
X143236900Y-69171337D01*
X143236900Y-72863793D01*
X143244314Y-72886610D01*
X143248928Y-72905829D01*
X143252681Y-72929526D01*
X143257184Y-72938363D01*
X143257184Y-72938364D01*
X143263572Y-72950902D01*
X143271136Y-72969163D01*
X143275485Y-72982547D01*
X143275487Y-72982550D01*
X143278551Y-72991981D01*
X143284380Y-73000004D01*
X143292653Y-73011391D01*
X143302977Y-73028237D01*
X143313872Y-73049620D01*
X143891780Y-73627528D01*
X143913163Y-73638423D01*
X143930009Y-73648747D01*
X143949420Y-73662850D01*
X143947181Y-73665932D01*
X143985081Y-73701712D01*
X143994258Y-73721024D01*
X143997438Y-73729507D01*
X144022674Y-73796824D01*
X144028054Y-73804003D01*
X144028056Y-73804006D01*
X144092056Y-73889400D01*
X144108654Y-73911546D01*
X144180259Y-73965211D01*
X144190266Y-73972711D01*
X144232780Y-74029571D01*
X144240700Y-74073537D01*
X144240700Y-76763193D01*
X144248114Y-76786010D01*
X144252728Y-76805229D01*
X144256481Y-76828926D01*
X144260984Y-76837763D01*
X144260984Y-76837764D01*
X144267372Y-76850302D01*
X144274936Y-76868563D01*
X144279285Y-76881947D01*
X144279287Y-76881950D01*
X144282351Y-76891381D01*
X144288180Y-76899404D01*
X144296453Y-76910791D01*
X144306777Y-76927637D01*
X144317672Y-76949020D01*
X144341646Y-76972994D01*
X145066471Y-77697818D01*
X145066472Y-77697820D01*
X145161780Y-77793128D01*
X145160384Y-77794524D01*
X145196935Y-77842548D01*
X145201932Y-77855877D01*
X145241874Y-77962424D01*
X145247254Y-77969603D01*
X145247256Y-77969606D01*
X145301902Y-78042519D01*
X145327854Y-78077146D01*
X145409466Y-78138311D01*
X145451980Y-78195171D01*
X145459900Y-78239137D01*
X145459900Y-78744393D01*
X145467314Y-78767210D01*
X145471928Y-78786429D01*
X145475681Y-78810126D01*
X145480184Y-78818963D01*
X145480184Y-78818964D01*
X145486572Y-78831502D01*
X145494136Y-78849763D01*
X145498485Y-78863147D01*
X145498487Y-78863150D01*
X145501551Y-78872581D01*
X145507380Y-78880604D01*
X145515653Y-78891991D01*
X145525977Y-78908837D01*
X145536872Y-78930220D01*
X145892557Y-79285905D01*
X145926583Y-79348217D01*
X145921518Y-79419032D01*
X145892557Y-79464095D01*
X145677072Y-79679580D01*
X145666177Y-79700963D01*
X145655853Y-79717809D01*
X145641751Y-79737219D01*
X145638687Y-79746650D01*
X145638685Y-79746653D01*
X145634336Y-79760037D01*
X145626772Y-79778298D01*
X145620798Y-79790023D01*
X145615881Y-79799674D01*
X145614330Y-79809468D01*
X145612128Y-79823370D01*
X145607514Y-79842590D01*
X145600100Y-79865407D01*
X145600100Y-79867126D01*
X145571635Y-79927167D01*
X145511365Y-79964692D01*
X145477601Y-79969300D01*
X145330954Y-79969300D01*
X145327250Y-79969741D01*
X145327247Y-79969741D01*
X145319854Y-79970621D01*
X145304754Y-79972418D01*
X145202447Y-80017861D01*
X145123359Y-80097087D01*
X145078094Y-80199473D01*
X145075100Y-80225154D01*
X145075100Y-81214446D01*
X145078218Y-81240646D01*
X145123661Y-81342953D01*
X145202887Y-81422041D01*
X145213524Y-81426744D01*
X145213526Y-81426745D01*
X145273062Y-81453065D01*
X145305273Y-81467306D01*
X145330954Y-81470300D01*
X146720246Y-81470300D01*
X146723950Y-81469859D01*
X146723953Y-81469859D01*
X146731346Y-81468979D01*
X146746446Y-81467182D01*
X146848753Y-81421739D01*
X146927841Y-81342513D01*
X146973106Y-81240127D01*
X146976100Y-81214446D01*
X146976100Y-80225154D01*
X146972982Y-80198954D01*
X146927539Y-80096647D01*
X146848313Y-80017559D01*
X146850809Y-80015059D01*
X146818481Y-79975466D01*
X146810438Y-79904926D01*
X146841808Y-79841236D01*
X146902632Y-79804617D01*
X146934577Y-79800500D01*
X151705393Y-79800500D01*
X151728210Y-79793086D01*
X151747429Y-79788472D01*
X151771126Y-79784719D01*
X151779964Y-79780216D01*
X151792502Y-79773828D01*
X151810763Y-79766264D01*
X151824147Y-79761915D01*
X151824150Y-79761913D01*
X151833581Y-79758849D01*
X151852991Y-79744747D01*
X151869837Y-79734423D01*
X151891220Y-79723528D01*
X152900928Y-78713820D01*
X152911823Y-78692437D01*
X152922147Y-78675591D01*
X152922958Y-78674475D01*
X152936249Y-78656181D01*
X152939313Y-78646750D01*
X152939315Y-78646747D01*
X152943664Y-78633363D01*
X152951228Y-78615102D01*
X152957616Y-78602564D01*
X152957616Y-78602563D01*
X152962119Y-78593726D01*
X152965872Y-78570029D01*
X152970486Y-78550810D01*
X152977900Y-78527993D01*
X152977900Y-78438664D01*
X152997902Y-78370543D01*
X153051558Y-78324050D01*
X153059655Y-78320688D01*
X153070224Y-78316726D01*
X153077403Y-78311346D01*
X153077406Y-78311344D01*
X153177765Y-78236128D01*
X153184946Y-78230746D01*
X153246112Y-78149134D01*
X153302971Y-78106620D01*
X153346937Y-78098700D01*
X154499393Y-78098700D01*
X154522210Y-78091286D01*
X154541429Y-78086672D01*
X154565126Y-78082919D01*
X154574433Y-78078177D01*
X154586502Y-78072028D01*
X154604763Y-78064464D01*
X154618147Y-78060115D01*
X154618150Y-78060113D01*
X154627581Y-78057049D01*
X154646991Y-78042947D01*
X154663837Y-78032623D01*
X154685220Y-78021728D01*
X155821928Y-76885020D01*
X155832823Y-76863637D01*
X155843147Y-76846791D01*
X155851420Y-76835404D01*
X155857249Y-76827381D01*
X155860313Y-76817950D01*
X155860315Y-76817947D01*
X155864664Y-76804563D01*
X155872228Y-76786302D01*
X155878616Y-76773764D01*
X155878616Y-76773763D01*
X155883119Y-76764926D01*
X155886872Y-76741229D01*
X155891486Y-76722010D01*
X155898900Y-76699193D01*
X155898900Y-76444264D01*
X155918902Y-76376143D01*
X155972558Y-76329650D01*
X155980655Y-76326288D01*
X155991224Y-76322326D01*
X155998403Y-76316946D01*
X155998406Y-76316944D01*
X156098765Y-76241728D01*
X156105946Y-76236346D01*
X156167112Y-76154734D01*
X156223971Y-76112220D01*
X156267937Y-76104300D01*
X156569993Y-76104300D01*
X156592810Y-76096886D01*
X156612029Y-76092272D01*
X156635726Y-76088519D01*
X156656970Y-76077695D01*
X156657102Y-76077628D01*
X156675363Y-76070064D01*
X156688747Y-76065715D01*
X156688750Y-76065713D01*
X156698181Y-76062649D01*
X156717591Y-76048547D01*
X156734437Y-76038223D01*
X156755820Y-76027328D01*
X158463528Y-74319620D01*
X158474423Y-74298237D01*
X158484747Y-74281391D01*
X158493020Y-74270004D01*
X158498849Y-74261981D01*
X158501913Y-74252550D01*
X158501915Y-74252547D01*
X158506264Y-74239163D01*
X158513828Y-74220902D01*
X158520216Y-74208364D01*
X158520216Y-74208363D01*
X158524719Y-74199526D01*
X158528472Y-74175829D01*
X158533086Y-74156610D01*
X158540500Y-74133793D01*
X158540500Y-73116864D01*
X158560502Y-73048743D01*
X158614158Y-73002250D01*
X158622255Y-72998888D01*
X158632824Y-72994926D01*
X158640003Y-72989546D01*
X158640006Y-72989544D01*
X158740365Y-72914328D01*
X158747546Y-72908946D01*
X158764291Y-72886603D01*
X158828144Y-72801406D01*
X158828146Y-72801403D01*
X158833526Y-72794224D01*
X158871387Y-72693229D01*
X158881079Y-72667375D01*
X158881079Y-72667373D01*
X158883851Y-72659980D01*
X158885321Y-72646454D01*
X158890131Y-72602174D01*
X158890131Y-72602173D01*
X158890500Y-72598777D01*
X158890499Y-72104024D01*
X158890130Y-72100624D01*
X158884705Y-72050678D01*
X158884704Y-72050674D01*
X158883851Y-72042820D01*
X158833526Y-71908576D01*
X158828146Y-71901397D01*
X158828144Y-71901394D01*
X158752928Y-71801035D01*
X158747546Y-71793854D01*
X158704470Y-71761570D01*
X158640006Y-71713256D01*
X158640003Y-71713254D01*
X158632824Y-71707874D01*
X158538020Y-71672334D01*
X158505975Y-71660321D01*
X158505973Y-71660321D01*
X158498580Y-71657549D01*
X158490731Y-71656696D01*
X158490730Y-71656696D01*
X158444394Y-71651662D01*
X158378832Y-71624419D01*
X158338406Y-71566056D01*
X158335952Y-71495101D01*
X158372248Y-71434084D01*
X158435770Y-71402376D01*
X158444390Y-71401137D01*
X158464396Y-71398964D01*
X158490721Y-71396105D01*
X158490724Y-71396104D01*
X158498580Y-71395251D01*
X158632824Y-71344926D01*
X158640003Y-71339546D01*
X158640006Y-71339544D01*
X158740365Y-71264328D01*
X158747546Y-71258946D01*
X158818134Y-71164762D01*
X158828144Y-71151406D01*
X158828146Y-71151403D01*
X158833526Y-71144224D01*
X158870102Y-71046656D01*
X158881079Y-71017375D01*
X158881079Y-71017373D01*
X158883851Y-71009980D01*
X158888150Y-70970413D01*
X158890131Y-70952174D01*
X158890131Y-70952173D01*
X158890500Y-70948777D01*
X158890499Y-70454024D01*
X158889608Y-70445819D01*
X158884705Y-70400678D01*
X158884704Y-70400674D01*
X158883851Y-70392820D01*
X158833526Y-70258576D01*
X158828146Y-70251397D01*
X158828144Y-70251394D01*
X158752928Y-70151035D01*
X158747546Y-70143854D01*
X158722415Y-70125019D01*
X158640006Y-70063256D01*
X158640003Y-70063254D01*
X158632824Y-70057874D01*
X158522433Y-70016491D01*
X158505975Y-70010321D01*
X158505973Y-70010321D01*
X158498580Y-70007549D01*
X158490730Y-70006696D01*
X158490729Y-70006696D01*
X158440774Y-70001269D01*
X158440773Y-70001269D01*
X158437377Y-70000900D01*
X158234038Y-70000900D01*
X158165917Y-69980898D01*
X158144943Y-69963995D01*
X157834820Y-69653872D01*
X157813437Y-69642977D01*
X157796591Y-69632653D01*
X157785204Y-69624380D01*
X157777181Y-69618551D01*
X157767750Y-69615487D01*
X157767747Y-69615485D01*
X157754363Y-69611136D01*
X157736102Y-69603572D01*
X157723564Y-69597184D01*
X157723563Y-69597184D01*
X157714726Y-69592681D01*
X157691029Y-69588928D01*
X157671810Y-69584314D01*
X157648993Y-69576900D01*
X157440866Y-69576900D01*
X157372745Y-69556898D01*
X157350045Y-69537398D01*
X157348912Y-69535749D01*
X157337126Y-69525248D01*
X157227992Y-69428012D01*
X157227988Y-69428010D01*
X157222321Y-69422960D01*
X157214006Y-69418557D01*
X157147565Y-69383379D01*
X157079299Y-69347234D01*
X157028457Y-69297682D01*
X157012475Y-69228508D01*
X157035937Y-69162354D01*
X157077927Y-69103919D01*
X157077930Y-69103913D01*
X157082361Y-69097747D01*
X157088359Y-69082826D01*
X157142766Y-68947487D01*
X157142767Y-68947485D01*
X157145601Y-68940434D01*
X157158264Y-68851460D01*
X157168909Y-68776662D01*
X157168909Y-68776659D01*
X157169490Y-68772578D01*
X157169645Y-68757800D01*
X157167715Y-68741847D01*
X157160624Y-68683256D01*
X157149276Y-68589480D01*
X157089345Y-68430877D01*
X157051761Y-68376192D01*
X156997614Y-68297408D01*
X156997613Y-68297407D01*
X156993312Y-68291149D01*
X156931679Y-68236236D01*
X156894125Y-68175986D01*
X156889500Y-68142161D01*
X156889500Y-66801838D01*
X156909502Y-66733717D01*
X156926405Y-66712743D01*
X158482943Y-65156205D01*
X158545255Y-65122179D01*
X158572038Y-65119300D01*
X159156562Y-65119300D01*
X159224683Y-65139302D01*
X159245657Y-65156205D01*
X160778795Y-66689343D01*
X160812821Y-66751655D01*
X160815700Y-66778438D01*
X160815700Y-67901925D01*
X160792787Y-67974375D01*
X160744313Y-68043347D01*
X160741554Y-68050422D01*
X160741553Y-68050425D01*
X160703987Y-68146777D01*
X160682724Y-68201313D01*
X160681732Y-68208846D01*
X160681732Y-68208847D01*
X160663595Y-68346617D01*
X160660594Y-68369411D01*
X160679199Y-68537935D01*
X160699609Y-68593707D01*
X160725958Y-68665708D01*
X160737466Y-68697156D01*
X160741702Y-68703459D01*
X160741704Y-68703464D01*
X160794282Y-68781709D01*
X160815700Y-68851984D01*
X160815700Y-80212385D01*
X160795698Y-80280506D01*
X160778795Y-80301480D01*
X152757958Y-88322318D01*
X152754149Y-88325971D01*
X152708444Y-88367999D01*
X152685501Y-88405002D01*
X152678800Y-88414752D01*
X152652488Y-88449417D01*
X152646954Y-88463395D01*
X152636893Y-88483399D01*
X152628965Y-88496186D01*
X152626568Y-88504437D01*
X152626567Y-88504439D01*
X152616825Y-88537972D01*
X152612980Y-88549202D01*
X152596964Y-88589653D01*
X152596066Y-88598194D01*
X152596066Y-88598195D01*
X152595392Y-88604608D01*
X152591080Y-88626583D01*
X152586885Y-88641025D01*
X152586100Y-88651715D01*
X152586100Y-88686417D01*
X152585410Y-88699587D01*
X152581199Y-88739654D01*
X152582631Y-88748119D01*
X152582631Y-88748128D01*
X152584335Y-88758200D01*
X152586100Y-88779213D01*
X152586100Y-95743007D01*
X152585989Y-95748283D01*
X152583390Y-95810294D01*
X152585352Y-95818659D01*
X152593327Y-95852662D01*
X152595490Y-95864333D01*
X152601394Y-95907432D01*
X152604806Y-95915316D01*
X152604806Y-95915317D01*
X152607365Y-95921230D01*
X152614399Y-95942499D01*
X152617832Y-95957136D01*
X152621969Y-95964661D01*
X152621970Y-95964664D01*
X152638795Y-95995268D01*
X152644011Y-96005913D01*
X152661295Y-96045855D01*
X152670758Y-96057541D01*
X152683245Y-96076125D01*
X152690493Y-96089308D01*
X152697497Y-96097422D01*
X152722033Y-96121958D01*
X152730858Y-96131759D01*
X152750806Y-96156392D01*
X152756214Y-96163070D01*
X152763212Y-96168043D01*
X152763217Y-96168048D01*
X152771548Y-96173968D01*
X152787654Y-96187579D01*
X153383480Y-96783405D01*
X153417506Y-96845717D01*
X153412441Y-96916532D01*
X153369894Y-96973368D01*
X153303374Y-96998179D01*
X153294385Y-96998500D01*
X131296729Y-96998500D01*
X131228608Y-96978498D01*
X131182115Y-96924842D01*
X131172011Y-96854568D01*
X131201505Y-96789988D01*
X131239522Y-96760236D01*
X131256220Y-96751728D01*
X131351528Y-96656420D01*
X137667218Y-90340729D01*
X137667220Y-90340728D01*
X137762528Y-90245420D01*
X137773421Y-90224041D01*
X137783749Y-90207188D01*
X137792021Y-90195803D01*
X137792022Y-90195801D01*
X137797849Y-90187781D01*
X137800914Y-90178349D01*
X137805264Y-90164963D01*
X137812828Y-90146702D01*
X137819216Y-90134164D01*
X137819216Y-90134163D01*
X137823719Y-90125326D01*
X137827472Y-90101629D01*
X137832086Y-90082410D01*
X137839500Y-90059593D01*
X137839500Y-86004238D01*
X137859502Y-85936117D01*
X137876405Y-85915143D01*
X139610743Y-84180805D01*
X139673055Y-84146779D01*
X139699838Y-84143900D01*
X141837136Y-84143900D01*
X141905257Y-84163902D01*
X141951750Y-84217558D01*
X141955112Y-84225655D01*
X141959074Y-84236224D01*
X141964454Y-84243403D01*
X141964456Y-84243406D01*
X142039672Y-84343765D01*
X142045054Y-84350946D01*
X142052235Y-84356328D01*
X142152594Y-84431544D01*
X142152597Y-84431546D01*
X142159776Y-84436926D01*
X142230247Y-84463344D01*
X142286625Y-84484479D01*
X142286627Y-84484479D01*
X142294020Y-84487251D01*
X142301870Y-84488104D01*
X142301871Y-84488104D01*
X142351817Y-84493530D01*
X142355223Y-84493900D01*
X142602527Y-84493900D01*
X142849976Y-84493899D01*
X142853370Y-84493530D01*
X142853376Y-84493530D01*
X142903322Y-84488105D01*
X142903326Y-84488104D01*
X142911180Y-84487251D01*
X143045424Y-84436926D01*
X143052603Y-84431546D01*
X143052606Y-84431544D01*
X143152965Y-84356328D01*
X143160146Y-84350946D01*
X143165528Y-84343765D01*
X143240744Y-84243406D01*
X143240746Y-84243403D01*
X143246126Y-84236224D01*
X143296451Y-84101980D01*
X143297305Y-84094121D01*
X143302338Y-84047794D01*
X143329581Y-83982232D01*
X143387944Y-83941806D01*
X143458899Y-83939352D01*
X143519916Y-83975648D01*
X143551624Y-84039170D01*
X143552864Y-84047798D01*
X143557663Y-84091979D01*
X143558749Y-84101980D01*
X143609074Y-84236224D01*
X143614454Y-84243403D01*
X143614456Y-84243406D01*
X143689672Y-84343765D01*
X143695054Y-84350946D01*
X143702235Y-84356328D01*
X143802594Y-84431544D01*
X143802597Y-84431546D01*
X143809776Y-84436926D01*
X143880247Y-84463344D01*
X143936625Y-84484479D01*
X143936627Y-84484479D01*
X143944020Y-84487251D01*
X143951870Y-84488104D01*
X143951871Y-84488104D01*
X144001817Y-84493530D01*
X144005223Y-84493900D01*
X144252527Y-84493900D01*
X144499976Y-84493899D01*
X144503370Y-84493530D01*
X144503376Y-84493530D01*
X144553322Y-84488105D01*
X144553326Y-84488104D01*
X144561180Y-84487251D01*
X144695424Y-84436926D01*
X144702603Y-84431546D01*
X144702606Y-84431544D01*
X144802965Y-84356328D01*
X144810146Y-84350946D01*
X144816137Y-84342953D01*
X144880427Y-84257171D01*
X144937287Y-84214656D01*
X145008105Y-84209631D01*
X145070398Y-84243690D01*
X145096401Y-84281583D01*
X145123661Y-84342953D01*
X145202887Y-84422041D01*
X145213524Y-84426744D01*
X145213526Y-84426745D01*
X145273062Y-84453065D01*
X145305273Y-84467306D01*
X145330954Y-84470300D01*
X146720246Y-84470300D01*
X146723950Y-84469859D01*
X146723953Y-84469859D01*
X146731346Y-84468979D01*
X146746446Y-84467182D01*
X146807471Y-84440076D01*
X146838118Y-84426463D01*
X146848753Y-84421739D01*
X146927841Y-84342513D01*
X146973106Y-84240127D01*
X146976100Y-84214446D01*
X146976100Y-83225154D01*
X146972982Y-83198954D01*
X146927539Y-83096647D01*
X146848313Y-83017559D01*
X146837676Y-83012856D01*
X146837674Y-83012855D01*
X146778138Y-82986535D01*
X146745927Y-82972294D01*
X146720246Y-82969300D01*
X145330954Y-82969300D01*
X145327250Y-82969741D01*
X145327247Y-82969741D01*
X145319854Y-82970621D01*
X145304754Y-82972418D01*
X145296114Y-82976256D01*
X145296113Y-82976256D01*
X145230825Y-83005256D01*
X145202447Y-83017861D01*
X145123359Y-83097087D01*
X145118656Y-83107724D01*
X145118655Y-83107726D01*
X145097284Y-83156067D01*
X145051446Y-83210283D01*
X144983573Y-83231110D01*
X144915215Y-83211936D01*
X144881218Y-83180685D01*
X144826538Y-83107726D01*
X144810146Y-83085854D01*
X144802965Y-83080472D01*
X144702606Y-83005256D01*
X144702603Y-83005254D01*
X144695424Y-82999874D01*
X144606039Y-82966366D01*
X144568575Y-82952321D01*
X144568573Y-82952321D01*
X144561180Y-82949549D01*
X144553330Y-82948696D01*
X144553329Y-82948696D01*
X144503374Y-82943269D01*
X144503373Y-82943269D01*
X144499977Y-82942900D01*
X144252673Y-82942900D01*
X144005224Y-82942901D01*
X144001830Y-82943270D01*
X144001824Y-82943270D01*
X143951878Y-82948695D01*
X143951874Y-82948696D01*
X143944020Y-82949549D01*
X143809776Y-82999874D01*
X143802597Y-83005254D01*
X143802594Y-83005256D01*
X143702235Y-83080472D01*
X143695054Y-83085854D01*
X143689672Y-83093035D01*
X143614456Y-83193394D01*
X143614454Y-83193397D01*
X143609074Y-83200576D01*
X143575566Y-83289961D01*
X143561630Y-83327136D01*
X143558749Y-83334820D01*
X143557896Y-83342669D01*
X143557896Y-83342670D01*
X143552862Y-83389006D01*
X143525619Y-83454568D01*
X143467256Y-83494994D01*
X143396301Y-83497448D01*
X143335284Y-83461152D01*
X143303576Y-83397630D01*
X143302336Y-83389002D01*
X143297305Y-83342679D01*
X143297304Y-83342676D01*
X143296451Y-83334820D01*
X143246126Y-83200576D01*
X143240746Y-83193397D01*
X143240744Y-83193394D01*
X143165528Y-83093035D01*
X143160146Y-83085854D01*
X143152965Y-83080472D01*
X143052606Y-83005256D01*
X143052603Y-83005254D01*
X143045424Y-82999874D01*
X142956039Y-82966366D01*
X142918575Y-82952321D01*
X142918573Y-82952321D01*
X142911180Y-82949549D01*
X142903330Y-82948696D01*
X142903329Y-82948696D01*
X142853374Y-82943269D01*
X142853373Y-82943269D01*
X142849977Y-82942900D01*
X142602673Y-82942900D01*
X142355224Y-82942901D01*
X142351830Y-82943270D01*
X142351824Y-82943270D01*
X142301878Y-82948695D01*
X142301874Y-82948696D01*
X142294020Y-82949549D01*
X142159776Y-82999874D01*
X142152597Y-83005254D01*
X142152594Y-83005256D01*
X142052235Y-83080472D01*
X142045054Y-83085854D01*
X142039672Y-83093035D01*
X141964456Y-83193394D01*
X141964454Y-83193397D01*
X141959074Y-83200576D01*
X141955118Y-83211130D01*
X141953749Y-83212952D01*
X141951612Y-83216855D01*
X141951049Y-83216547D01*
X141912478Y-83267893D01*
X141845916Y-83292594D01*
X141837136Y-83292900D01*
X139404007Y-83292900D01*
X139381190Y-83300314D01*
X139361971Y-83304928D01*
X139338274Y-83308681D01*
X139329437Y-83313184D01*
X139329436Y-83313184D01*
X139316898Y-83319572D01*
X139298637Y-83327136D01*
X139285253Y-83331485D01*
X139285250Y-83331487D01*
X139275819Y-83334551D01*
X139267796Y-83340380D01*
X139256409Y-83348653D01*
X139239563Y-83358977D01*
X139218180Y-83369872D01*
X137065472Y-85522580D01*
X137054577Y-85543963D01*
X137044253Y-85560809D01*
X137030151Y-85580219D01*
X137027087Y-85589650D01*
X137027085Y-85589653D01*
X137022736Y-85603037D01*
X137015172Y-85621298D01*
X137004281Y-85642674D01*
X137002730Y-85652468D01*
X137000528Y-85666370D01*
X136995914Y-85685590D01*
X136988500Y-85708407D01*
X136988500Y-89763763D01*
X136968498Y-89831884D01*
X136951595Y-89852858D01*
X130863657Y-95940795D01*
X130801345Y-95974821D01*
X130774562Y-95977700D01*
X127859980Y-95977700D01*
X127791859Y-95957698D01*
X127756141Y-95923068D01*
X127751059Y-95915674D01*
X127746339Y-95905047D01*
X127721938Y-95880688D01*
X127699652Y-95858441D01*
X127667113Y-95825959D01*
X127656476Y-95821256D01*
X127656474Y-95821255D01*
X127596938Y-95794935D01*
X127564727Y-95780694D01*
X127539046Y-95777700D01*
X127049754Y-95777700D01*
X127046050Y-95778141D01*
X127046047Y-95778141D01*
X127038654Y-95779021D01*
X127023554Y-95780818D01*
X127014914Y-95784656D01*
X127014913Y-95784656D01*
X126932517Y-95821255D01*
X126921247Y-95826261D01*
X126913028Y-95834494D01*
X126913027Y-95834495D01*
X126898395Y-95849153D01*
X126842159Y-95905487D01*
X126837456Y-95916124D01*
X126837455Y-95916126D01*
X126826957Y-95939872D01*
X126796894Y-96007873D01*
X126793900Y-96033554D01*
X126793900Y-96772846D01*
X126797018Y-96799046D01*
X126806926Y-96821353D01*
X126816299Y-96891727D01*
X126786137Y-96955997D01*
X126726015Y-96993758D01*
X126691775Y-96998500D01*
X126596967Y-96998500D01*
X126528846Y-96978498D01*
X126482353Y-96924842D01*
X126472249Y-96854568D01*
X126481726Y-96821554D01*
X126488075Y-96807193D01*
X126488075Y-96807192D01*
X126491906Y-96798527D01*
X126494900Y-96772846D01*
X126494900Y-96033554D01*
X126491782Y-96007354D01*
X126481903Y-95985112D01*
X126451063Y-95915682D01*
X126446339Y-95905047D01*
X126421938Y-95880688D01*
X126399652Y-95858441D01*
X126367113Y-95825959D01*
X126356476Y-95821256D01*
X126356474Y-95821255D01*
X126296938Y-95794935D01*
X126264727Y-95780694D01*
X126239046Y-95777700D01*
X125749754Y-95777700D01*
X125746050Y-95778141D01*
X125746047Y-95778141D01*
X125738654Y-95779021D01*
X125723554Y-95780818D01*
X125714914Y-95784656D01*
X125714913Y-95784656D01*
X125632517Y-95821255D01*
X125621247Y-95826261D01*
X125613028Y-95834494D01*
X125613027Y-95834495D01*
X125550380Y-95897251D01*
X125550379Y-95897253D01*
X125542159Y-95905487D01*
X125537456Y-95916126D01*
X125532828Y-95922886D01*
X125477838Y-95967793D01*
X125428863Y-95977700D01*
X124382407Y-95977700D01*
X124359590Y-95985114D01*
X124340371Y-95989728D01*
X124316674Y-95993481D01*
X124307837Y-95997984D01*
X124307836Y-95997984D01*
X124295298Y-96004372D01*
X124277037Y-96011936D01*
X124263651Y-96016286D01*
X124263650Y-96016287D01*
X124254219Y-96019351D01*
X124246199Y-96025178D01*
X124246197Y-96025179D01*
X124234812Y-96033451D01*
X124217959Y-96043779D01*
X124196580Y-96054672D01*
X124101272Y-96149980D01*
X124101271Y-96149982D01*
X123941595Y-96309658D01*
X123879283Y-96343684D01*
X123808468Y-96338619D01*
X123751632Y-96296072D01*
X123726821Y-96229552D01*
X123726500Y-96220563D01*
X123726500Y-95316100D01*
X123746502Y-95247979D01*
X123800158Y-95201486D01*
X123852500Y-95190100D01*
X124179834Y-95190100D01*
X124197752Y-95188406D01*
X124203722Y-95187842D01*
X124203723Y-95187842D01*
X124211369Y-95187119D01*
X124339184Y-95142234D01*
X124346754Y-95136642D01*
X124346757Y-95136641D01*
X124440579Y-95067342D01*
X124448150Y-95061750D01*
X124493085Y-95000913D01*
X124523041Y-94960357D01*
X124523042Y-94960354D01*
X124528634Y-94952784D01*
X124573519Y-94824969D01*
X124576500Y-94793434D01*
X124576500Y-94385766D01*
X124573519Y-94354231D01*
X124528634Y-94226416D01*
X124523042Y-94218846D01*
X124523041Y-94218843D01*
X124453742Y-94125021D01*
X124448150Y-94117450D01*
X124440579Y-94111858D01*
X124440576Y-94111855D01*
X124364888Y-94055951D01*
X124321977Y-93999390D01*
X124316457Y-93928608D01*
X124350081Y-93866079D01*
X124364888Y-93853249D01*
X124440576Y-93797345D01*
X124440579Y-93797342D01*
X124448150Y-93791750D01*
X124453742Y-93784179D01*
X124455916Y-93782005D01*
X124518228Y-93747979D01*
X124545011Y-93745100D01*
X125498276Y-93745100D01*
X125566397Y-93765102D01*
X125612890Y-93818758D01*
X125622994Y-93889032D01*
X125593500Y-93953612D01*
X125587449Y-93960118D01*
X125542159Y-94005487D01*
X125537456Y-94016124D01*
X125537455Y-94016126D01*
X125525521Y-94043121D01*
X125496894Y-94107873D01*
X125493900Y-94133554D01*
X125493900Y-94872846D01*
X125497018Y-94899046D01*
X125500856Y-94907686D01*
X125500856Y-94907687D01*
X125520887Y-94952784D01*
X125542461Y-95001353D01*
X125621687Y-95080441D01*
X125632324Y-95085144D01*
X125632326Y-95085145D01*
X125669391Y-95101531D01*
X125724073Y-95125706D01*
X125749754Y-95128700D01*
X126239046Y-95128700D01*
X126242750Y-95128259D01*
X126242753Y-95128259D01*
X126255861Y-95126699D01*
X126255862Y-95126699D01*
X126265246Y-95125582D01*
X126273884Y-95121745D01*
X126283002Y-95119239D01*
X126283800Y-95122142D01*
X126338740Y-95114825D01*
X126356121Y-95119911D01*
X126356265Y-95119383D01*
X126365411Y-95121876D01*
X126374073Y-95125706D01*
X126383482Y-95126803D01*
X126384773Y-95126953D01*
X126399754Y-95128700D01*
X126889046Y-95128700D01*
X126892750Y-95128259D01*
X126892753Y-95128259D01*
X126900146Y-95127379D01*
X126915246Y-95125582D01*
X126928014Y-95119911D01*
X127006918Y-95084863D01*
X127017553Y-95080139D01*
X127052812Y-95044819D01*
X127078278Y-95019308D01*
X127096641Y-95000913D01*
X127122745Y-94941869D01*
X127138075Y-94907192D01*
X127141906Y-94898527D01*
X127144900Y-94872846D01*
X127144900Y-94133554D01*
X127141782Y-94107354D01*
X127126190Y-94072250D01*
X127101063Y-94015682D01*
X127096339Y-94005047D01*
X127091246Y-93999963D01*
X127069900Y-93931215D01*
X127069900Y-93734807D01*
X127062486Y-93711990D01*
X127057872Y-93692770D01*
X127055670Y-93678868D01*
X127054119Y-93669074D01*
X127043228Y-93647698D01*
X127035664Y-93629437D01*
X127031315Y-93616053D01*
X127031313Y-93616050D01*
X127028249Y-93606619D01*
X127014147Y-93587209D01*
X127003823Y-93570363D01*
X126992928Y-93548980D01*
X126852643Y-93408695D01*
X126818617Y-93346383D01*
X126823682Y-93275568D01*
X126852643Y-93230505D01*
X127450128Y-92633020D01*
X127461023Y-92611637D01*
X127471347Y-92594791D01*
X127479620Y-92583404D01*
X127485449Y-92575381D01*
X127488513Y-92565950D01*
X127488515Y-92565947D01*
X127492864Y-92552563D01*
X127500428Y-92534302D01*
X127506816Y-92521764D01*
X127506816Y-92521763D01*
X127511319Y-92512926D01*
X127515072Y-92489229D01*
X127519686Y-92470010D01*
X127527100Y-92447193D01*
X127527100Y-88553207D01*
X127519686Y-88530390D01*
X127515072Y-88511170D01*
X127512870Y-88497268D01*
X127511319Y-88487474D01*
X127500428Y-88466098D01*
X127492864Y-88447837D01*
X127488515Y-88434453D01*
X127488513Y-88434450D01*
X127485449Y-88425019D01*
X127471347Y-88405609D01*
X127461023Y-88388763D01*
X127450128Y-88367380D01*
X124382340Y-85299592D01*
X124348314Y-85237280D01*
X124353379Y-85166465D01*
X124395870Y-85109671D01*
X124408446Y-85100246D01*
X124413828Y-85093065D01*
X124489044Y-84992706D01*
X124489046Y-84992703D01*
X124494426Y-84985524D01*
X124544751Y-84851280D01*
X124545605Y-84843421D01*
X124550638Y-84797094D01*
X124577881Y-84731532D01*
X124636244Y-84691106D01*
X124707199Y-84688652D01*
X124768216Y-84724948D01*
X124799924Y-84788470D01*
X124801163Y-84797090D01*
X124807049Y-84851280D01*
X124857374Y-84985524D01*
X124862754Y-84992703D01*
X124862756Y-84992706D01*
X124937972Y-85093065D01*
X124943354Y-85100246D01*
X124950535Y-85105628D01*
X125050894Y-85180844D01*
X125050897Y-85180846D01*
X125058076Y-85186226D01*
X125128547Y-85212644D01*
X125184925Y-85233779D01*
X125184927Y-85233779D01*
X125192320Y-85236551D01*
X125200170Y-85237404D01*
X125200171Y-85237404D01*
X125250117Y-85242830D01*
X125253523Y-85243200D01*
X125500827Y-85243200D01*
X125748276Y-85243199D01*
X125751670Y-85242830D01*
X125751676Y-85242830D01*
X125801622Y-85237405D01*
X125801626Y-85237404D01*
X125809480Y-85236551D01*
X125943724Y-85186226D01*
X125950903Y-85180846D01*
X125950906Y-85180844D01*
X126051265Y-85105628D01*
X126058446Y-85100246D01*
X126064437Y-85092253D01*
X126080554Y-85070748D01*
X126124835Y-85011665D01*
X126181693Y-84969150D01*
X126252512Y-84964124D01*
X126314805Y-84998184D01*
X126340809Y-85036077D01*
X126365761Y-85092253D01*
X126444987Y-85171341D01*
X126455624Y-85176044D01*
X126455626Y-85176045D01*
X126515162Y-85202365D01*
X126547373Y-85216606D01*
X126573054Y-85219600D01*
X127962346Y-85219600D01*
X127966050Y-85219159D01*
X127966053Y-85219159D01*
X127973513Y-85218271D01*
X127988546Y-85216482D01*
X128049571Y-85189376D01*
X128080218Y-85175763D01*
X128090853Y-85171039D01*
X128100465Y-85161411D01*
X128161296Y-85100473D01*
X128169941Y-85091813D01*
X128215206Y-84989427D01*
X128218200Y-84963746D01*
X128218200Y-83974454D01*
X128215082Y-83948254D01*
X128169639Y-83845947D01*
X128090413Y-83766859D01*
X128079776Y-83762156D01*
X128079774Y-83762155D01*
X128020238Y-83735835D01*
X127988027Y-83721594D01*
X127962346Y-83718600D01*
X126573054Y-83718600D01*
X126569350Y-83719041D01*
X126569347Y-83719041D01*
X126561954Y-83719921D01*
X126546854Y-83721718D01*
X126538214Y-83725556D01*
X126538213Y-83725556D01*
X126472925Y-83754556D01*
X126444547Y-83767161D01*
X126365459Y-83846387D01*
X126360756Y-83857024D01*
X126360755Y-83857026D01*
X126341684Y-83900164D01*
X126295846Y-83954380D01*
X126227972Y-83975207D01*
X126159614Y-83956033D01*
X126125618Y-83924781D01*
X126063828Y-83842335D01*
X126058446Y-83835154D01*
X126051265Y-83829772D01*
X125950906Y-83754556D01*
X125950903Y-83754554D01*
X125943724Y-83749174D01*
X125854339Y-83715666D01*
X125816875Y-83701621D01*
X125816873Y-83701621D01*
X125809480Y-83698849D01*
X125801630Y-83697996D01*
X125801629Y-83697996D01*
X125751674Y-83692569D01*
X125751673Y-83692569D01*
X125748277Y-83692200D01*
X125500973Y-83692200D01*
X125253524Y-83692201D01*
X125250130Y-83692570D01*
X125250124Y-83692570D01*
X125200178Y-83697995D01*
X125200174Y-83697996D01*
X125192320Y-83698849D01*
X125058076Y-83749174D01*
X125050897Y-83754554D01*
X125050894Y-83754556D01*
X124950535Y-83829772D01*
X124943354Y-83835154D01*
X124937972Y-83842335D01*
X124862756Y-83942694D01*
X124862754Y-83942697D01*
X124857374Y-83949876D01*
X124807049Y-84084120D01*
X124806196Y-84091969D01*
X124806196Y-84091970D01*
X124801162Y-84138306D01*
X124773919Y-84203868D01*
X124715556Y-84244294D01*
X124644601Y-84246748D01*
X124583584Y-84210452D01*
X124551876Y-84146930D01*
X124550636Y-84138302D01*
X124545605Y-84091979D01*
X124545604Y-84091976D01*
X124544751Y-84084120D01*
X124494426Y-83949876D01*
X124489046Y-83942697D01*
X124489044Y-83942694D01*
X124413828Y-83842335D01*
X124408446Y-83835154D01*
X124401265Y-83829772D01*
X124300906Y-83754556D01*
X124300903Y-83754554D01*
X124293724Y-83749174D01*
X124204339Y-83715666D01*
X124166875Y-83701621D01*
X124166873Y-83701621D01*
X124159480Y-83698849D01*
X124151630Y-83697996D01*
X124151629Y-83697996D01*
X124101674Y-83692569D01*
X124101673Y-83692569D01*
X124098277Y-83692200D01*
X123850973Y-83692200D01*
X123603524Y-83692201D01*
X123600130Y-83692570D01*
X123600124Y-83692570D01*
X123550178Y-83697995D01*
X123550174Y-83697996D01*
X123542320Y-83698849D01*
X123408076Y-83749174D01*
X123400897Y-83754554D01*
X123400894Y-83754556D01*
X123300535Y-83829772D01*
X123293354Y-83835154D01*
X123287972Y-83842335D01*
X123212756Y-83942694D01*
X123212754Y-83942697D01*
X123207374Y-83949876D01*
X123157049Y-84084120D01*
X123156196Y-84091970D01*
X123156196Y-84091971D01*
X123155109Y-84101980D01*
X123150400Y-84145323D01*
X123150401Y-84790076D01*
X123150770Y-84793470D01*
X123150770Y-84793476D01*
X123151164Y-84797098D01*
X123157049Y-84851280D01*
X123207374Y-84985524D01*
X123212754Y-84992703D01*
X123212756Y-84992706D01*
X123287972Y-85093065D01*
X123293354Y-85100246D01*
X123374966Y-85161411D01*
X123417480Y-85218271D01*
X123425400Y-85262237D01*
X123425400Y-85437293D01*
X123432814Y-85460110D01*
X123437428Y-85479329D01*
X123441181Y-85503026D01*
X123445684Y-85511863D01*
X123445684Y-85511864D01*
X123452072Y-85524402D01*
X123459636Y-85542663D01*
X123463985Y-85556047D01*
X123463987Y-85556050D01*
X123467051Y-85565481D01*
X123472880Y-85573504D01*
X123481153Y-85584891D01*
X123491477Y-85601737D01*
X123502372Y-85623120D01*
X126639195Y-88759943D01*
X126673221Y-88822255D01*
X126676100Y-88849038D01*
X126676100Y-92151362D01*
X126656098Y-92219483D01*
X126639195Y-92240457D01*
X126022457Y-92857195D01*
X125960145Y-92891221D01*
X125933362Y-92894100D01*
X124545011Y-92894100D01*
X124476890Y-92874098D01*
X124455916Y-92857195D01*
X124453742Y-92855021D01*
X124448150Y-92847450D01*
X124440579Y-92841858D01*
X124440576Y-92841855D01*
X124364888Y-92785951D01*
X124321977Y-92729390D01*
X124316457Y-92658608D01*
X124350081Y-92596079D01*
X124364888Y-92583249D01*
X124440571Y-92527348D01*
X124448150Y-92521750D01*
X124488593Y-92466994D01*
X124527939Y-92433658D01*
X124528581Y-92433449D01*
X124547991Y-92419347D01*
X124564837Y-92409023D01*
X124586220Y-92398128D01*
X125545128Y-91439220D01*
X125556023Y-91417837D01*
X125566347Y-91400991D01*
X125574620Y-91389604D01*
X125580449Y-91381581D01*
X125583513Y-91372150D01*
X125583515Y-91372147D01*
X125587864Y-91358763D01*
X125595428Y-91340502D01*
X125601816Y-91327964D01*
X125601816Y-91327963D01*
X125606319Y-91319126D01*
X125610072Y-91295429D01*
X125614686Y-91276210D01*
X125622100Y-91253393D01*
X125622100Y-89162807D01*
X125619037Y-89153380D01*
X125619036Y-89153373D01*
X125614687Y-89139988D01*
X125610073Y-89120769D01*
X125607872Y-89106872D01*
X125607870Y-89106865D01*
X125606319Y-89097074D01*
X125595427Y-89075698D01*
X125587864Y-89057437D01*
X125583514Y-89044050D01*
X125580450Y-89034619D01*
X125566349Y-89015211D01*
X125556017Y-88998352D01*
X125549631Y-88985818D01*
X125545128Y-88976980D01*
X121538220Y-84970072D01*
X121516837Y-84959177D01*
X121499991Y-84948853D01*
X121488604Y-84940580D01*
X121480581Y-84934751D01*
X121471150Y-84931687D01*
X121471147Y-84931685D01*
X121457763Y-84927336D01*
X121439502Y-84919772D01*
X121426964Y-84913384D01*
X121426963Y-84913384D01*
X121418126Y-84908881D01*
X121394429Y-84905128D01*
X121375210Y-84900514D01*
X121352393Y-84893100D01*
X115020007Y-84893100D01*
X115010580Y-84896163D01*
X115010573Y-84896164D01*
X114997188Y-84900513D01*
X114977969Y-84905127D01*
X114964072Y-84907328D01*
X114964065Y-84907330D01*
X114954274Y-84908881D01*
X114932899Y-84919772D01*
X114914637Y-84927336D01*
X114891819Y-84934750D01*
X114883797Y-84940579D01*
X114883796Y-84940579D01*
X114872411Y-84948851D01*
X114855556Y-84959181D01*
X114834180Y-84970072D01*
X111843272Y-87960980D01*
X111832377Y-87982363D01*
X111822053Y-87999209D01*
X111807951Y-88018619D01*
X111804887Y-88028050D01*
X111804885Y-88028053D01*
X111800536Y-88041437D01*
X111792972Y-88059698D01*
X111782081Y-88081074D01*
X111780530Y-88090868D01*
X111778328Y-88104770D01*
X111773714Y-88123990D01*
X111766300Y-88146807D01*
X111766300Y-92802793D01*
X102814400Y-92802793D01*
X102814400Y-57830000D01*
X102834402Y-57761879D01*
X102888058Y-57715386D01*
X102940400Y-57704000D01*
X169830200Y-57704000D01*
X169898321Y-57724002D01*
G37*
%TD.AperFunction*%
%TD*%
M02*
