%TF.GenerationSoftware,KiCad,Pcbnew,(6.0.0-0)*%
%TF.CreationDate,2022-07-31T01:07:45-04:00*%
%TF.ProjectId,sam-bday-21,73616d2d-6264-4617-992d-32312e6b6963,v1*%
%TF.SameCoordinates,Original*%
%TF.FileFunction,Legend,Top*%
%TF.FilePolarity,Positive*%
%FSLAX46Y46*%
G04 Gerber Fmt 4.6, Leading zero omitted, Abs format (unit mm)*
G04 Created by KiCad (PCBNEW (6.0.0-0)) date 2022-07-31 01:07:45*
%MOMM*%
%LPD*%
G01*
G04 APERTURE LIST*
G04 Aperture macros list*
%AMRoundRect*
0 Rectangle with rounded corners*
0 $1 Rounding radius*
0 $2 $3 $4 $5 $6 $7 $8 $9 X,Y pos of 4 corners*
0 Add a 4 corners polygon primitive as box body*
4,1,4,$2,$3,$4,$5,$6,$7,$8,$9,$2,$3,0*
0 Add four circle primitives for the rounded corners*
1,1,$1+$1,$2,$3*
1,1,$1+$1,$4,$5*
1,1,$1+$1,$6,$7*
1,1,$1+$1,$8,$9*
0 Add four rect primitives between the rounded corners*
20,1,$1+$1,$2,$3,$4,$5,0*
20,1,$1+$1,$4,$5,$6,$7,0*
20,1,$1+$1,$6,$7,$8,$9,0*
20,1,$1+$1,$8,$9,$2,$3,0*%
G04 Aperture macros list end*
%ADD10C,0.150000*%
%ADD11C,0.300000*%
%ADD12C,0.120000*%
%ADD13RoundRect,0.243750X0.491645X-0.160820X0.406992X0.319274X-0.491645X0.160820X-0.406992X-0.319274X0*%
%ADD14RoundRect,0.243750X0.433270X-0.282587X0.475758X0.203058X-0.433270X0.282587X-0.475758X-0.203058X0*%
%ADD15RoundRect,0.243750X0.456250X-0.243750X0.456250X0.243750X-0.456250X0.243750X-0.456250X-0.243750X0*%
%ADD16RoundRect,0.243750X0.512102X-0.073003X0.345367X0.385097X-0.512102X0.073003X-0.345367X-0.385097X0*%
%ADD17RoundRect,0.243750X0.406992X-0.319274X0.491645X0.160820X-0.406992X0.319274X-0.491645X-0.160820X0*%
%ADD18RoundRect,0.243750X0.243750X0.456250X-0.243750X0.456250X-0.243750X-0.456250X0.243750X-0.456250X0*%
%ADD19RoundRect,0.243750X0.345367X-0.385097X0.512102X0.073003X-0.345367X0.385097X-0.512102X-0.073003X0*%
%ADD20RoundRect,0.243750X0.475758X-0.203058X0.433270X0.282587X-0.475758X0.203058X-0.433270X-0.282587X0*%
%ADD21C,2.000000*%
%ADD22R,2.000000X2.000000*%
%ADD23C,2.640000*%
%ADD24RoundRect,0.243750X-0.243750X-0.456250X0.243750X-0.456250X0.243750X0.456250X-0.243750X0.456250X0*%
G04 APERTURE END LIST*
D10*
X129612238Y-116346266D02*
X130088428Y-116346266D01*
X129517000Y-116631980D02*
X129850333Y-115631980D01*
X130183666Y-116631980D01*
X130945571Y-115965314D02*
X130945571Y-116631980D01*
X130517000Y-115965314D02*
X130517000Y-116489123D01*
X130564619Y-116584361D01*
X130659857Y-116631980D01*
X130802714Y-116631980D01*
X130897952Y-116584361D01*
X130945571Y-116536742D01*
X131850333Y-115965314D02*
X131850333Y-116774838D01*
X131802714Y-116870076D01*
X131755095Y-116917695D01*
X131659857Y-116965314D01*
X131517000Y-116965314D01*
X131421761Y-116917695D01*
X131850333Y-116584361D02*
X131755095Y-116631980D01*
X131564619Y-116631980D01*
X131469380Y-116584361D01*
X131421761Y-116536742D01*
X131374142Y-116441504D01*
X131374142Y-116155790D01*
X131421761Y-116060552D01*
X131469380Y-116012933D01*
X131564619Y-115965314D01*
X131755095Y-115965314D01*
X131850333Y-116012933D01*
X132755095Y-115965314D02*
X132755095Y-116631980D01*
X132326523Y-115965314D02*
X132326523Y-116489123D01*
X132374142Y-116584361D01*
X132469380Y-116631980D01*
X132612238Y-116631980D01*
X132707476Y-116584361D01*
X132755095Y-116536742D01*
X133183666Y-116584361D02*
X133278904Y-116631980D01*
X133469380Y-116631980D01*
X133564619Y-116584361D01*
X133612238Y-116489123D01*
X133612238Y-116441504D01*
X133564619Y-116346266D01*
X133469380Y-116298647D01*
X133326523Y-116298647D01*
X133231285Y-116251028D01*
X133183666Y-116155790D01*
X133183666Y-116108171D01*
X133231285Y-116012933D01*
X133326523Y-115965314D01*
X133469380Y-115965314D01*
X133564619Y-116012933D01*
X133897952Y-115965314D02*
X134278904Y-115965314D01*
X134040809Y-115631980D02*
X134040809Y-116489123D01*
X134088428Y-116584361D01*
X134183666Y-116631980D01*
X134278904Y-116631980D01*
X135802714Y-115965314D02*
X135802714Y-116631980D01*
X135564619Y-115584361D02*
X135326523Y-116298647D01*
X135945571Y-116298647D01*
X136183666Y-115965314D02*
X136564619Y-115965314D01*
X136326523Y-115631980D02*
X136326523Y-116489123D01*
X136374142Y-116584361D01*
X136469380Y-116631980D01*
X136564619Y-116631980D01*
X136897952Y-116631980D02*
X136897952Y-115631980D01*
X137326523Y-116631980D02*
X137326523Y-116108171D01*
X137278904Y-116012933D01*
X137183666Y-115965314D01*
X137040809Y-115965314D01*
X136945571Y-116012933D01*
X136897952Y-116060552D01*
X137850333Y-116584361D02*
X137850333Y-116631980D01*
X137802714Y-116727219D01*
X137755095Y-116774838D01*
X138993190Y-115727219D02*
X139040809Y-115679600D01*
X139136047Y-115631980D01*
X139374142Y-115631980D01*
X139469380Y-115679600D01*
X139517000Y-115727219D01*
X139564619Y-115822457D01*
X139564619Y-115917695D01*
X139517000Y-116060552D01*
X138945571Y-116631980D01*
X139564619Y-116631980D01*
X140183666Y-115631980D02*
X140278904Y-115631980D01*
X140374142Y-115679600D01*
X140421761Y-115727219D01*
X140469380Y-115822457D01*
X140517000Y-116012933D01*
X140517000Y-116251028D01*
X140469380Y-116441504D01*
X140421761Y-116536742D01*
X140374142Y-116584361D01*
X140278904Y-116631980D01*
X140183666Y-116631980D01*
X140088428Y-116584361D01*
X140040809Y-116536742D01*
X139993190Y-116441504D01*
X139945571Y-116251028D01*
X139945571Y-116012933D01*
X139993190Y-115822457D01*
X140040809Y-115727219D01*
X140088428Y-115679600D01*
X140183666Y-115631980D01*
X140897952Y-115727219D02*
X140945571Y-115679600D01*
X141040809Y-115631980D01*
X141278904Y-115631980D01*
X141374142Y-115679600D01*
X141421761Y-115727219D01*
X141469380Y-115822457D01*
X141469380Y-115917695D01*
X141421761Y-116060552D01*
X140850333Y-116631980D01*
X141469380Y-116631980D01*
X141850333Y-115727219D02*
X141897952Y-115679600D01*
X141993190Y-115631980D01*
X142231285Y-115631980D01*
X142326523Y-115679600D01*
X142374142Y-115727219D01*
X142421761Y-115822457D01*
X142421761Y-115917695D01*
X142374142Y-116060552D01*
X141802714Y-116631980D01*
X142421761Y-116631980D01*
D11*
X115485428Y-112786942D02*
X115485428Y-109786942D01*
X115485428Y-111215514D02*
X117199714Y-111215514D01*
X117199714Y-112786942D02*
X117199714Y-109786942D01*
X119914000Y-112786942D02*
X119914000Y-111215514D01*
X119771142Y-110929800D01*
X119485428Y-110786942D01*
X118914000Y-110786942D01*
X118628285Y-110929800D01*
X119914000Y-112644085D02*
X119628285Y-112786942D01*
X118914000Y-112786942D01*
X118628285Y-112644085D01*
X118485428Y-112358371D01*
X118485428Y-112072657D01*
X118628285Y-111786942D01*
X118914000Y-111644085D01*
X119628285Y-111644085D01*
X119914000Y-111501228D01*
X121342571Y-110786942D02*
X121342571Y-113786942D01*
X121342571Y-110929800D02*
X121628285Y-110786942D01*
X122199714Y-110786942D01*
X122485428Y-110929800D01*
X122628285Y-111072657D01*
X122771142Y-111358371D01*
X122771142Y-112215514D01*
X122628285Y-112501228D01*
X122485428Y-112644085D01*
X122199714Y-112786942D01*
X121628285Y-112786942D01*
X121342571Y-112644085D01*
X124056857Y-110786942D02*
X124056857Y-113786942D01*
X124056857Y-110929800D02*
X124342571Y-110786942D01*
X124914000Y-110786942D01*
X125199714Y-110929800D01*
X125342571Y-111072657D01*
X125485428Y-111358371D01*
X125485428Y-112215514D01*
X125342571Y-112501228D01*
X125199714Y-112644085D01*
X124914000Y-112786942D01*
X124342571Y-112786942D01*
X124056857Y-112644085D01*
X126485428Y-110786942D02*
X127199714Y-112786942D01*
X127914000Y-110786942D02*
X127199714Y-112786942D01*
X126914000Y-113501228D01*
X126771142Y-113644085D01*
X126485428Y-113786942D01*
X131199714Y-110072657D02*
X131342571Y-109929800D01*
X131628285Y-109786942D01*
X132342571Y-109786942D01*
X132628285Y-109929800D01*
X132771142Y-110072657D01*
X132914000Y-110358371D01*
X132914000Y-110644085D01*
X132771142Y-111072657D01*
X131056857Y-112786942D01*
X132914000Y-112786942D01*
X135771142Y-112786942D02*
X134056857Y-112786942D01*
X134914000Y-112786942D02*
X134914000Y-109786942D01*
X134628285Y-110215514D01*
X134342571Y-110501228D01*
X134056857Y-110644085D01*
X136914000Y-112644085D02*
X137199714Y-112786942D01*
X137771142Y-112786942D01*
X138056857Y-112644085D01*
X138199714Y-112358371D01*
X138199714Y-112215514D01*
X138056857Y-111929800D01*
X137771142Y-111786942D01*
X137342571Y-111786942D01*
X137056857Y-111644085D01*
X136914000Y-111358371D01*
X136914000Y-111215514D01*
X137056857Y-110929800D01*
X137342571Y-110786942D01*
X137771142Y-110786942D01*
X138056857Y-110929800D01*
X139056857Y-110786942D02*
X140199714Y-110786942D01*
X139485428Y-109786942D02*
X139485428Y-112358371D01*
X139628285Y-112644085D01*
X139914000Y-112786942D01*
X140199714Y-112786942D01*
X143342571Y-112644085D02*
X143771142Y-112786942D01*
X144485428Y-112786942D01*
X144771142Y-112644085D01*
X144914000Y-112501228D01*
X145056857Y-112215514D01*
X145056857Y-111929800D01*
X144914000Y-111644085D01*
X144771142Y-111501228D01*
X144485428Y-111358371D01*
X143914000Y-111215514D01*
X143628285Y-111072657D01*
X143485428Y-110929800D01*
X143342571Y-110644085D01*
X143342571Y-110358371D01*
X143485428Y-110072657D01*
X143628285Y-109929800D01*
X143914000Y-109786942D01*
X144628285Y-109786942D01*
X145056857Y-109929800D01*
X147628285Y-112786942D02*
X147628285Y-111215514D01*
X147485428Y-110929800D01*
X147199714Y-110786942D01*
X146628285Y-110786942D01*
X146342571Y-110929800D01*
X147628285Y-112644085D02*
X147342571Y-112786942D01*
X146628285Y-112786942D01*
X146342571Y-112644085D01*
X146199714Y-112358371D01*
X146199714Y-112072657D01*
X146342571Y-111786942D01*
X146628285Y-111644085D01*
X147342571Y-111644085D01*
X147628285Y-111501228D01*
X149056857Y-112786942D02*
X149056857Y-110786942D01*
X149056857Y-111072657D02*
X149199714Y-110929800D01*
X149485428Y-110786942D01*
X149914000Y-110786942D01*
X150199714Y-110929800D01*
X150342571Y-111215514D01*
X150342571Y-112786942D01*
X150342571Y-111215514D02*
X150485428Y-110929800D01*
X150771142Y-110786942D01*
X151199714Y-110786942D01*
X151485428Y-110929800D01*
X151628285Y-111215514D01*
X151628285Y-112786942D01*
X153056857Y-112786942D02*
X153056857Y-110786942D01*
X153056857Y-111072657D02*
X153199714Y-110929800D01*
X153485428Y-110786942D01*
X153914000Y-110786942D01*
X154199714Y-110929800D01*
X154342571Y-111215514D01*
X154342571Y-112786942D01*
X154342571Y-111215514D02*
X154485428Y-110929800D01*
X154771142Y-110786942D01*
X155199714Y-110786942D01*
X155485428Y-110929800D01*
X155628285Y-111215514D01*
X155628285Y-112786942D01*
X156771142Y-110786942D02*
X157485428Y-112786942D01*
X158199714Y-110786942D02*
X157485428Y-112786942D01*
X157199714Y-113501228D01*
X157056857Y-113644085D01*
X156771142Y-113786942D01*
X159342571Y-112501228D02*
X159485428Y-112644085D01*
X159342571Y-112786942D01*
X159199714Y-112644085D01*
X159342571Y-112501228D01*
X159342571Y-112786942D01*
X159342571Y-111644085D02*
X159199714Y-109929800D01*
X159342571Y-109786942D01*
X159485428Y-109929800D01*
X159342571Y-111644085D01*
X159342571Y-109786942D01*
D10*
X121640600Y-93954600D02*
X110464600Y-89890600D01*
X115544600Y-69545200D02*
X106908600Y-104114600D01*
X124180600Y-104114600D02*
X108432600Y-98526600D01*
X106908600Y-104114600D02*
X124180600Y-104114600D01*
X119608600Y-85826600D02*
X112496600Y-82270600D01*
X110464600Y-89890600D02*
X119608600Y-85826600D01*
X108432600Y-98526600D02*
X121640600Y-93954600D01*
X118084600Y-79730600D02*
X113512600Y-77698600D01*
X114020600Y-75666600D02*
X117576600Y-77698600D01*
X122656600Y-98526600D02*
X106908600Y-104114600D01*
X117576600Y-77698600D02*
X113004600Y-79730600D01*
X124206000Y-104114600D02*
X115544600Y-69545200D01*
X120624600Y-89890600D02*
X109448600Y-93954600D01*
X114528600Y-73634600D02*
X116052600Y-71602600D01*
X113512600Y-77698600D02*
X117068600Y-75666600D01*
X117068600Y-75666600D02*
X114528600Y-73634600D01*
X113004600Y-79730600D02*
X118592600Y-82270600D01*
X112496600Y-82270600D02*
X118084600Y-79730600D01*
X118592600Y-82270600D02*
X111480600Y-85826600D01*
X114020600Y-75666600D02*
X116560600Y-73634600D01*
X111480600Y-85826600D02*
X120624600Y-89890600D01*
X115036600Y-71602600D02*
X116560600Y-73634600D01*
X109448600Y-93954600D02*
X122656600Y-98526600D01*
X158978600Y-68986400D02*
X150342600Y-103555800D01*
X167640000Y-103555800D02*
X158978600Y-68986400D01*
X150342600Y-103555800D02*
X167614600Y-103555800D01*
X157962600Y-73075800D02*
X159486600Y-71043800D01*
X158470600Y-71043800D02*
X159994600Y-73075800D01*
X157454600Y-75107800D02*
X159994600Y-73075800D01*
X160502600Y-75107800D02*
X157962600Y-73075800D01*
X156946600Y-77139800D02*
X160502600Y-75107800D01*
X161518600Y-79171800D02*
X156946600Y-77139800D01*
X155930600Y-81711800D02*
X161518600Y-79171800D01*
X163042600Y-85267800D02*
X155930600Y-81711800D01*
X153898600Y-89331800D02*
X163042600Y-85267800D01*
X165074600Y-93395800D02*
X153898600Y-89331800D01*
X151866600Y-97967800D02*
X165074600Y-93395800D01*
X167614600Y-103555800D02*
X151866600Y-97967800D01*
X166090600Y-97967800D02*
X150342600Y-103555800D01*
X152882600Y-93395800D02*
X166090600Y-97967800D01*
X164058600Y-89331800D02*
X152882600Y-93395800D01*
X154914600Y-85267800D02*
X164058600Y-89331800D01*
X162026600Y-81711800D02*
X154914600Y-85267800D01*
X156438600Y-79171800D02*
X162026600Y-81711800D01*
X161010600Y-77139800D02*
X156438600Y-79171800D01*
X157454600Y-75107800D02*
X161010600Y-77139800D01*
D12*
%TO.C,D7*%
X121535687Y-67209546D02*
X123426518Y-66876142D01*
X121069441Y-64565337D02*
X121535687Y-67209546D01*
X123426518Y-66876142D02*
X122960272Y-64231933D01*
%TO.C,D6*%
X154174709Y-65747536D02*
X153940696Y-68422319D01*
X153940696Y-68422319D02*
X155853389Y-68589658D01*
X155853389Y-68589658D02*
X156087403Y-65914875D01*
%TO.C,D10*%
X150994656Y-67775162D02*
X150994656Y-70460162D01*
X150994656Y-70460162D02*
X152914656Y-70460162D01*
X152914656Y-70460162D02*
X152914656Y-67775162D01*
%TO.C,D12*%
X153660264Y-74241418D02*
X153194018Y-71597209D01*
X151769433Y-74574822D02*
X153660264Y-74241418D01*
X151303187Y-71930613D02*
X151769433Y-74574822D01*
%TO.C,D14*%
X148541975Y-74404171D02*
X149460299Y-76927245D01*
X151264509Y-76270567D02*
X150346185Y-73747492D01*
X149460299Y-76927245D02*
X151264509Y-76270567D01*
%TO.C,D18*%
X147870494Y-65524309D02*
X147404248Y-68168518D01*
X149295079Y-68501922D02*
X149761325Y-65857713D01*
X147404248Y-68168518D02*
X149295079Y-68501922D01*
%TO.C,D17*%
X124555487Y-72472999D02*
X126446318Y-72806403D01*
X125021733Y-69828790D02*
X124555487Y-72472999D01*
X126446318Y-72806403D02*
X126912564Y-70162194D01*
%TO.C,D8*%
X153024269Y-66657708D02*
X153490515Y-64013499D01*
X151133438Y-66324304D02*
X153024269Y-66657708D01*
X151599684Y-63680095D02*
X151133438Y-66324304D01*
%TO.C,D9*%
X121645300Y-68255400D02*
X121645300Y-70940400D01*
X123565300Y-70940400D02*
X123565300Y-68255400D01*
X121645300Y-70940400D02*
X123565300Y-70940400D01*
%TO.C,D13*%
X124324699Y-64764021D02*
X126128909Y-64107343D01*
X126128909Y-64107343D02*
X125210585Y-61584268D01*
X123406375Y-62240947D02*
X124324699Y-64764021D01*
%TO.C,D5*%
X118611909Y-70306836D02*
X118377896Y-72981619D01*
X120290589Y-73148958D02*
X120524603Y-70474175D01*
X118377896Y-72981619D02*
X120290589Y-73148958D01*
%TO.C,D1*%
X117244600Y-68534900D02*
X114559600Y-68534900D01*
X114559600Y-70454900D02*
X117244600Y-70454900D01*
X117244600Y-70454900D02*
X117244600Y-68534900D01*
%TO.C,D19*%
X124239171Y-74233468D02*
X123320847Y-76756543D01*
X123320847Y-76756543D02*
X125125057Y-77413221D01*
X125125057Y-77413221D02*
X126043381Y-74890147D01*
%TO.C,D15*%
X127006113Y-68129599D02*
X126539867Y-65485390D01*
X125115282Y-68463003D02*
X127006113Y-68129599D01*
X124649036Y-65818794D02*
X125115282Y-68463003D01*
%TO.C,D4*%
X154031306Y-69973008D02*
X154265320Y-72647791D01*
X154265320Y-72647791D02*
X156178013Y-72480452D01*
X156178013Y-72480452D02*
X155944000Y-69805669D01*
%TO.C,D11*%
X122993723Y-74923460D02*
X123459969Y-72279251D01*
X121102892Y-74590056D02*
X122993723Y-74923460D01*
X121569138Y-71945847D02*
X121102892Y-74590056D01*
%TO.C,D3*%
X120584304Y-69118519D02*
X120350291Y-66443736D01*
X118671611Y-69285858D02*
X120584304Y-69118519D01*
X118437597Y-66611075D02*
X118671611Y-69285858D01*
%TO.C,D2*%
X157319000Y-69768600D02*
X160004000Y-69768600D01*
X157319000Y-67848600D02*
X157319000Y-69768600D01*
X160004000Y-67848600D02*
X157319000Y-67848600D01*
%TO.C,D16*%
X149901064Y-72435718D02*
X149434818Y-69791509D01*
X147543987Y-70124913D02*
X148010233Y-72769122D01*
X148010233Y-72769122D02*
X149901064Y-72435718D01*
%TO.C,D20*%
X148282291Y-63789843D02*
X150086501Y-64446521D01*
X149200615Y-61266768D02*
X148282291Y-63789843D01*
X150086501Y-64446521D02*
X151004825Y-61923447D01*
%TD*%
%LPC*%
D13*
%TO.C,D7*%
X122025710Y-64460186D03*
X122351300Y-66306700D03*
%TD*%
D14*
%TO.C,D6*%
X155125609Y-65893467D03*
X154962191Y-67761333D03*
%TD*%
D15*
%TO.C,D10*%
X151954656Y-67837662D03*
X151954656Y-69712662D03*
%TD*%
D13*
%TO.C,D12*%
X152585046Y-73671976D03*
X152259456Y-71825462D03*
%TD*%
D16*
%TO.C,D14*%
X150106744Y-75896486D03*
X149465456Y-74134562D03*
%TD*%
D17*
%TO.C,D18*%
X148479466Y-67599076D03*
X148805056Y-65752562D03*
%TD*%
%TO.C,D17*%
X125956295Y-70057043D03*
X125630705Y-71903557D03*
%TD*%
%TO.C,D8*%
X152534246Y-63908348D03*
X152208656Y-65754862D03*
%TD*%
D15*
%TO.C,D9*%
X122605300Y-68317900D03*
X122605300Y-70192900D03*
%TD*%
D16*
%TO.C,D13*%
X124329856Y-61971338D03*
X124971144Y-63733262D03*
%TD*%
D14*
%TO.C,D5*%
X119562809Y-70452767D03*
X119399391Y-72320633D03*
%TD*%
D18*
%TO.C,D1*%
X114622100Y-69494900D03*
X116497100Y-69494900D03*
%TD*%
D19*
%TO.C,D19*%
X124478612Y-76382462D03*
X125119900Y-74620538D03*
%TD*%
D13*
%TO.C,D15*%
X125605305Y-65713643D03*
X125930895Y-67560157D03*
%TD*%
D20*
%TO.C,D4*%
X154993100Y-69951600D03*
X155156518Y-71819466D03*
%TD*%
D21*
%TO.C,BT1*%
X110646200Y-112064800D03*
D22*
X162636200Y-112064800D03*
D23*
X159886200Y-106069800D03*
X113406200Y-118059800D03*
%TD*%
D17*
%TO.C,D11*%
X122503700Y-72174100D03*
X122178110Y-74020614D03*
%TD*%
D20*
%TO.C,D3*%
X119399391Y-66589667D03*
X119562809Y-68457533D03*
%TD*%
D24*
%TO.C,D2*%
X159941500Y-68808600D03*
X158066500Y-68808600D03*
%TD*%
D13*
%TO.C,D16*%
X148500256Y-70019762D03*
X148825846Y-71866276D03*
%TD*%
D19*
%TO.C,D20*%
X149440056Y-63415762D03*
X150081344Y-61653838D03*
%TD*%
M02*
