%TF.GenerationSoftware,KiCad,Pcbnew,(6.0.0-0)*%
%TF.CreationDate,2022-07-31T01:07:44-04:00*%
%TF.ProjectId,sam-bday-21,73616d2d-6264-4617-992d-32312e6b6963,v1*%
%TF.SameCoordinates,Original*%
%TF.FileFunction,Copper,L1,Top*%
%TF.FilePolarity,Positive*%
%FSLAX46Y46*%
G04 Gerber Fmt 4.6, Leading zero omitted, Abs format (unit mm)*
G04 Created by KiCad (PCBNEW (6.0.0-0)) date 2022-07-31 01:07:44*
%MOMM*%
%LPD*%
G01*
G04 APERTURE LIST*
G04 Aperture macros list*
%AMRoundRect*
0 Rectangle with rounded corners*
0 $1 Rounding radius*
0 $2 $3 $4 $5 $6 $7 $8 $9 X,Y pos of 4 corners*
0 Add a 4 corners polygon primitive as box body*
4,1,4,$2,$3,$4,$5,$6,$7,$8,$9,$2,$3,0*
0 Add four circle primitives for the rounded corners*
1,1,$1+$1,$2,$3*
1,1,$1+$1,$4,$5*
1,1,$1+$1,$6,$7*
1,1,$1+$1,$8,$9*
0 Add four rect primitives between the rounded corners*
20,1,$1+$1,$2,$3,$4,$5,0*
20,1,$1+$1,$4,$5,$6,$7,0*
20,1,$1+$1,$6,$7,$8,$9,0*
20,1,$1+$1,$8,$9,$2,$3,0*%
G04 Aperture macros list end*
%TA.AperFunction,SMDPad,CuDef*%
%ADD10RoundRect,0.243750X0.491645X-0.160820X0.406992X0.319274X-0.491645X0.160820X-0.406992X-0.319274X0*%
%TD*%
%TA.AperFunction,SMDPad,CuDef*%
%ADD11RoundRect,0.243750X0.433270X-0.282587X0.475758X0.203058X-0.433270X0.282587X-0.475758X-0.203058X0*%
%TD*%
%TA.AperFunction,SMDPad,CuDef*%
%ADD12RoundRect,0.243750X0.456250X-0.243750X0.456250X0.243750X-0.456250X0.243750X-0.456250X-0.243750X0*%
%TD*%
%TA.AperFunction,SMDPad,CuDef*%
%ADD13RoundRect,0.243750X0.512102X-0.073003X0.345367X0.385097X-0.512102X0.073003X-0.345367X-0.385097X0*%
%TD*%
%TA.AperFunction,SMDPad,CuDef*%
%ADD14RoundRect,0.243750X0.406992X-0.319274X0.491645X0.160820X-0.406992X0.319274X-0.491645X-0.160820X0*%
%TD*%
%TA.AperFunction,SMDPad,CuDef*%
%ADD15RoundRect,0.243750X0.243750X0.456250X-0.243750X0.456250X-0.243750X-0.456250X0.243750X-0.456250X0*%
%TD*%
%TA.AperFunction,SMDPad,CuDef*%
%ADD16RoundRect,0.243750X0.345367X-0.385097X0.512102X0.073003X-0.345367X0.385097X-0.512102X-0.073003X0*%
%TD*%
%TA.AperFunction,SMDPad,CuDef*%
%ADD17RoundRect,0.243750X0.475758X-0.203058X0.433270X0.282587X-0.475758X0.203058X-0.433270X-0.282587X0*%
%TD*%
%TA.AperFunction,ComponentPad*%
%ADD18C,2.000000*%
%TD*%
%TA.AperFunction,ComponentPad*%
%ADD19R,2.000000X2.000000*%
%TD*%
%TA.AperFunction,SMDPad,CuDef*%
%ADD20RoundRect,0.243750X-0.243750X-0.456250X0.243750X-0.456250X0.243750X0.456250X-0.243750X0.456250X0*%
%TD*%
%TA.AperFunction,ViaPad*%
%ADD21C,0.800000*%
%TD*%
%TA.AperFunction,Conductor*%
%ADD22C,0.250000*%
%TD*%
G04 APERTURE END LIST*
D10*
%TO.P,D7,2,A*%
%TO.N,+5V*%
X122025710Y-64460186D03*
%TO.P,D7,1,K*%
%TO.N,Net-(D7-Pad1)*%
X122351300Y-66306700D03*
%TD*%
D11*
%TO.P,D6,2,A*%
%TO.N,+5V*%
X155125609Y-65893467D03*
%TO.P,D6,1,K*%
%TO.N,Net-(D6-Pad1)*%
X154962191Y-67761333D03*
%TD*%
D12*
%TO.P,D10,2,A*%
%TO.N,+5V*%
X151954656Y-67837662D03*
%TO.P,D10,1,K*%
%TO.N,Net-(D10-Pad1)*%
X151954656Y-69712662D03*
%TD*%
D10*
%TO.P,D12,1,K*%
%TO.N,Net-(D12-Pad1)*%
X152585046Y-73671976D03*
%TO.P,D12,2,A*%
%TO.N,+5V*%
X152259456Y-71825462D03*
%TD*%
D13*
%TO.P,D14,1,K*%
%TO.N,Net-(D14-Pad1)*%
X150106744Y-75896486D03*
%TO.P,D14,2,A*%
%TO.N,+5V*%
X149465456Y-74134562D03*
%TD*%
D14*
%TO.P,D18,1,K*%
%TO.N,Net-(D18-Pad1)*%
X148479466Y-67599076D03*
%TO.P,D18,2,A*%
%TO.N,+5V*%
X148805056Y-65752562D03*
%TD*%
%TO.P,D17,2,A*%
%TO.N,+5V*%
X125956295Y-70057043D03*
%TO.P,D17,1,K*%
%TO.N,Net-(D17-Pad1)*%
X125630705Y-71903557D03*
%TD*%
%TO.P,D8,2,A*%
%TO.N,+5V*%
X152534246Y-63908348D03*
%TO.P,D8,1,K*%
%TO.N,Net-(D8-Pad1)*%
X152208656Y-65754862D03*
%TD*%
D12*
%TO.P,D9,2,A*%
%TO.N,+5V*%
X122605300Y-68317900D03*
%TO.P,D9,1,K*%
%TO.N,Net-(D9-Pad1)*%
X122605300Y-70192900D03*
%TD*%
D13*
%TO.P,D13,2,A*%
%TO.N,+5V*%
X124329856Y-61971338D03*
%TO.P,D13,1,K*%
%TO.N,Net-(D13-Pad1)*%
X124971144Y-63733262D03*
%TD*%
D11*
%TO.P,D5,2,A*%
%TO.N,+5V*%
X119562809Y-70452767D03*
%TO.P,D5,1,K*%
%TO.N,Net-(D5-Pad1)*%
X119399391Y-72320633D03*
%TD*%
D15*
%TO.P,D1,2,A*%
%TO.N,+5V*%
X114622100Y-69494900D03*
%TO.P,D1,1,K*%
%TO.N,Net-(D1-Pad1)*%
X116497100Y-69494900D03*
%TD*%
D16*
%TO.P,D19,1,K*%
%TO.N,Net-(D19-Pad1)*%
X124478612Y-76382462D03*
%TO.P,D19,2,A*%
%TO.N,+5V*%
X125119900Y-74620538D03*
%TD*%
D10*
%TO.P,D15,2,A*%
%TO.N,+5V*%
X125605305Y-65713643D03*
%TO.P,D15,1,K*%
%TO.N,Net-(D15-Pad1)*%
X125930895Y-67560157D03*
%TD*%
D17*
%TO.P,D4,2,A*%
%TO.N,+5V*%
X154993100Y-69951600D03*
%TO.P,D4,1,K*%
%TO.N,Net-(D4-Pad1)*%
X155156518Y-71819466D03*
%TD*%
D18*
%TO.P,BT1,2,-*%
%TO.N,GND*%
X110646200Y-112064800D03*
D19*
%TO.P,BT1,1,+*%
%TO.N,Net-(BT1-Pad1)*%
X162636200Y-112064800D03*
%TD*%
D14*
%TO.P,D11,2,A*%
%TO.N,+5V*%
X122503700Y-72174100D03*
%TO.P,D11,1,K*%
%TO.N,Net-(D11-Pad1)*%
X122178110Y-74020614D03*
%TD*%
D17*
%TO.P,D3,2,A*%
%TO.N,+5V*%
X119399391Y-66589667D03*
%TO.P,D3,1,K*%
%TO.N,Net-(D3-Pad1)*%
X119562809Y-68457533D03*
%TD*%
D20*
%TO.P,D2,2,A*%
%TO.N,+5V*%
X159941500Y-68808600D03*
%TO.P,D2,1,K*%
%TO.N,Net-(D2-Pad1)*%
X158066500Y-68808600D03*
%TD*%
D10*
%TO.P,D16,2,A*%
%TO.N,+5V*%
X148500256Y-70019762D03*
%TO.P,D16,1,K*%
%TO.N,Net-(D16-Pad1)*%
X148825846Y-71866276D03*
%TD*%
D16*
%TO.P,D20,1,K*%
%TO.N,Net-(D20-Pad1)*%
X149440056Y-63415762D03*
%TO.P,D20,2,A*%
%TO.N,+5V*%
X150081344Y-61653838D03*
%TD*%
D21*
%TO.N,+5V*%
X123367800Y-97485200D03*
X119837200Y-89001600D03*
X161366200Y-68376800D03*
%TO.N,Net-(D2-Pad1)*%
X156819600Y-70002400D03*
%TO.N,Net-(D4-Pad1)*%
X153974800Y-73126600D03*
%TO.N,+5V*%
X156464000Y-68757800D03*
%TO.N,Net-(D6-Pad1)*%
X153492200Y-68681600D03*
%TO.N,+5V*%
X155752800Y-64693800D03*
X153873200Y-62966600D03*
%TO.N,Net-(D8-Pad1)*%
X150571200Y-66370200D03*
%TO.N,+5V*%
X153416000Y-67157600D03*
%TO.N,Net-(D10-Pad1)*%
X150571200Y-70688200D03*
%TO.N,+5V*%
X153441400Y-70789800D03*
%TO.N,Net-(D12-Pad1)*%
X151358600Y-74930000D03*
%TO.N,Net-(D14-Pad1)*%
X149250400Y-77444600D03*
%TO.N,+5V*%
X150622000Y-73177400D03*
%TO.N,Net-(D16-Pad1)*%
X147904200Y-73279000D03*
%TO.N,+5V*%
X149809200Y-69113400D03*
%TO.N,Net-(D18-Pad1)*%
X146812000Y-68376800D03*
%TO.N,+5V*%
X150266400Y-64922400D03*
%TO.N,Net-(D20-Pad1)*%
X147701000Y-64008000D03*
%TO.N,+5V*%
X151409400Y-60807600D03*
X120484900Y-63487300D03*
X124675900Y-69126100D03*
X124269500Y-72809100D03*
X123837700Y-65189100D03*
X118097300Y-69761100D03*
X122745500Y-60871100D03*
X120992900Y-71234300D03*
X121043700Y-67576700D03*
X117640100Y-65747900D03*
X113296700Y-69075300D03*
%TO.N,Net-(D1-Pad1)*%
X116510300Y-71145900D03*
%TO.N,Net-(D3-Pad1)*%
X121081300Y-69430900D03*
%TO.N,Net-(D5-Pad1)*%
X120383300Y-73952100D03*
%TO.N,Net-(D7-Pad1)*%
X123964700Y-66687700D03*
%TO.N,Net-(D9-Pad1)*%
X124193300Y-70726300D03*
%TO.N,Net-(D11-Pad1)*%
X122720100Y-75526900D03*
%TO.N,Net-(D13-Pad1)*%
X126555500Y-64300100D03*
%TO.N,Net-(D15-Pad1)*%
X126504700Y-68846700D03*
%TO.N,Net-(D17-Pad1)*%
X125717300Y-73393300D03*
%TO.N,Net-(D19-Pad1)*%
X123976900Y-77508100D03*
%TD*%
D22*
%TO.N,+5V*%
X119837200Y-89001600D02*
X120878600Y-90043000D01*
X120878600Y-90043000D02*
X120878600Y-96418400D01*
X120878600Y-96418400D02*
X121945400Y-97485200D01*
X121945400Y-97485200D02*
X123367800Y-97485200D01*
X151954656Y-67837662D02*
X151954656Y-67348944D01*
X155125609Y-65168591D02*
X155125609Y-65893467D01*
%TO.N,Net-(D10-Pad1)*%
X150571200Y-70205600D02*
X151064138Y-69712662D01*
X150571200Y-70688200D02*
X150571200Y-70205600D01*
X151064138Y-69712662D02*
X151954656Y-69712662D01*
%TO.N,+5V*%
X156464000Y-68757800D02*
X155651200Y-68757800D01*
X155651200Y-68757800D02*
X154993100Y-69415900D01*
X154993100Y-69415900D02*
X154993100Y-69951600D01*
X161366200Y-68427600D02*
X160985200Y-68808600D01*
X160985200Y-68808600D02*
X159941500Y-68808600D01*
%TO.N,Net-(D2-Pad1)*%
X156819600Y-70002400D02*
X156819600Y-69621400D01*
X157632400Y-68808600D02*
X158066500Y-68808600D01*
X156819600Y-69621400D02*
X157632400Y-68808600D01*
%TO.N,Net-(D4-Pad1)*%
X153974800Y-73126600D02*
X153974800Y-72720200D01*
X153974800Y-72720200D02*
X154875534Y-71819466D01*
%TO.N,Net-(D6-Pad1)*%
X153492200Y-68681600D02*
X153492200Y-68351400D01*
X153492200Y-68351400D02*
X154082267Y-67761333D01*
X154082267Y-67761333D02*
X154962191Y-67761333D01*
%TO.N,+5V*%
X155752800Y-64693800D02*
X155600400Y-64693800D01*
X155600400Y-64693800D02*
X155125609Y-65168591D01*
X153416000Y-62966600D02*
X152534246Y-63848354D01*
X153873200Y-62966600D02*
X153416000Y-62966600D01*
%TO.N,Net-(D8-Pad1)*%
X150571200Y-66243200D02*
X151059538Y-65754862D01*
X150571200Y-66370200D02*
X150571200Y-66243200D01*
X151059538Y-65754862D02*
X152208656Y-65754862D01*
%TO.N,Net-(D12-Pad1)*%
X151358600Y-74930000D02*
X151358600Y-74898422D01*
X151358600Y-74898422D02*
X152585046Y-73671976D01*
%TO.N,+5V*%
X153441400Y-70789800D02*
X152450800Y-70789800D01*
X152450800Y-70789800D02*
X152259456Y-70981144D01*
X152259456Y-70981144D02*
X152259456Y-71825462D01*
X150622000Y-73177400D02*
X149733000Y-73177400D01*
X149733000Y-73177400D02*
X149465456Y-73444944D01*
X149465456Y-73444944D02*
X149465456Y-74134562D01*
%TO.N,Net-(D14-Pad1)*%
X149250400Y-77444600D02*
X149250400Y-76752830D01*
X149250400Y-76752830D02*
X150106744Y-75896486D01*
%TO.N,Net-(D16-Pad1)*%
X147904200Y-73279000D02*
X147904200Y-72787922D01*
X147904200Y-72787922D02*
X148825846Y-71866276D01*
%TO.N,+5V*%
X149809200Y-69113400D02*
X149301200Y-69113400D01*
X149301200Y-69113400D02*
X148500256Y-69914344D01*
%TO.N,Net-(D18-Pad1)*%
X146812000Y-68376800D02*
X147589724Y-67599076D01*
X147589724Y-67599076D02*
X148479466Y-67599076D01*
%TO.N,+5V*%
X150266400Y-64922400D02*
X149479000Y-64922400D01*
X149479000Y-64922400D02*
X148805056Y-65596344D01*
%TO.N,Net-(D20-Pad1)*%
X147701000Y-64008000D02*
X148293238Y-63415762D01*
X148293238Y-63415762D02*
X149440056Y-63415762D01*
%TO.N,+5V*%
X151409400Y-60807600D02*
X150672800Y-60807600D01*
X150672800Y-60807600D02*
X150081344Y-61399056D01*
X152146000Y-67157600D02*
X153416000Y-67157600D01*
X151954656Y-67348944D02*
X152146000Y-67157600D01*
%TO.N,Net-(D13-Pad1)*%
X125988662Y-63733262D02*
X124971144Y-63733262D01*
%TO.N,+5V*%
X122745500Y-60871100D02*
X123229618Y-60871100D01*
%TO.N,Net-(D13-Pad1)*%
X126555500Y-64300100D02*
X125988662Y-63733262D01*
%TO.N,+5V*%
X123229618Y-60871100D02*
X124329856Y-61971338D01*
X123837700Y-65189100D02*
X125080762Y-65189100D01*
X125080762Y-65189100D02*
X125605305Y-65713643D01*
%TO.N,Net-(D15-Pad1)*%
X126504700Y-68846700D02*
X126504700Y-68133962D01*
X126504700Y-68133962D02*
X125930895Y-67560157D01*
%TO.N,Net-(D17-Pad1)*%
X125717300Y-73393300D02*
X125717300Y-71990152D01*
%TO.N,+5V*%
X124269500Y-72809100D02*
X124269500Y-73770138D01*
X124269500Y-73770138D02*
X125119900Y-74620538D01*
%TO.N,Net-(D19-Pad1)*%
X124478612Y-76382462D02*
X124478612Y-77006388D01*
X124478612Y-77006388D02*
X123976900Y-77508100D01*
%TO.N,+5V*%
X124675900Y-69126100D02*
X125025352Y-69126100D01*
X125025352Y-69126100D02*
X125956295Y-70057043D01*
X120484900Y-63487300D02*
X121052824Y-63487300D01*
X118557624Y-65747900D02*
X119399391Y-66589667D01*
X120992900Y-71234300D02*
X121563900Y-71234300D01*
X117640100Y-65747900D02*
X118557624Y-65747900D01*
X121563900Y-71234300D02*
X122503700Y-72174100D01*
X113296700Y-69075300D02*
X113716300Y-69494900D01*
X118097300Y-69761100D02*
X118871142Y-69761100D01*
X118871142Y-69761100D02*
X119562809Y-70452767D01*
X121043700Y-67576700D02*
X121864100Y-67576700D01*
X113716300Y-69494900D02*
X114622100Y-69494900D01*
X121864100Y-67576700D02*
X122605300Y-68317900D01*
X121052824Y-63487300D02*
X122025710Y-64460186D01*
%TO.N,Net-(D1-Pad1)*%
X116497100Y-71132700D02*
X116510300Y-71145900D01*
X116497100Y-69494900D02*
X116497100Y-71132700D01*
%TO.N,Net-(D3-Pad1)*%
X121081300Y-69430900D02*
X120107933Y-68457533D01*
%TO.N,Net-(D5-Pad1)*%
X120383300Y-73304542D02*
X119399391Y-72320633D01*
X120383300Y-73952100D02*
X120383300Y-73304542D01*
%TO.N,Net-(D7-Pad1)*%
X123964700Y-66687700D02*
X123583700Y-66306700D01*
X123583700Y-66306700D02*
X122351300Y-66306700D01*
%TO.N,Net-(D9-Pad1)*%
X124193300Y-70726300D02*
X123659900Y-70192900D01*
X123659900Y-70192900D02*
X122605300Y-70192900D01*
%TO.N,Net-(D11-Pad1)*%
X122720100Y-75526900D02*
X122178110Y-74984910D01*
X122178110Y-74984910D02*
X122178110Y-74020614D01*
%TD*%
M02*
