%FSLAX45Y45*%
G04 Gerber Fmt 4.5, Leading zero omitted, Abs format (unit mm)*
G04 Created by KiCad (PCBNEW (6.0.0-0)) date 2022-07-31 01:09:14*
%MOMM*%
%LPD*%
G01*
G04 APERTURE LIST*
%TA.AperFunction,Profile*%
%ADD10C,0.100000*%
%TD*%
%ADD11C,0.200000*%
%ADD12C,0.264000*%
G04 APERTURE END LIST*
D10*
X10251440Y-5740400D02*
X17025620Y-5740400D01*
X17025620Y-5740400D02*
X17025620Y-12214860D01*
X17025620Y-12214860D02*
X10251440Y-12214860D01*
X10251440Y-12214860D02*
X10251440Y-5740400D01*
D11*
D12*
X11208620Y-11673980D02*
X11472620Y-11937980D01*
X11472620Y-11673980D02*
X11208620Y-11937980D01*
X15856620Y-10474980D02*
X16120620Y-10738980D01*
X16120620Y-10474980D02*
X15856620Y-10738980D01*
D11*
X10504059Y-12530336D02*
X10504059Y-12330336D01*
X10551678Y-12330336D01*
X10580250Y-12339860D01*
X10599297Y-12358908D01*
X10608821Y-12377955D01*
X10618345Y-12416050D01*
X10618345Y-12444622D01*
X10608821Y-12482717D01*
X10599297Y-12501765D01*
X10580250Y-12520812D01*
X10551678Y-12530336D01*
X10504059Y-12530336D01*
X10704059Y-12530336D02*
X10704059Y-12397003D01*
X10704059Y-12435098D02*
X10713583Y-12416050D01*
X10723107Y-12406527D01*
X10742154Y-12397003D01*
X10761202Y-12397003D01*
X10827869Y-12530336D02*
X10827869Y-12397003D01*
X10827869Y-12330336D02*
X10818345Y-12339860D01*
X10827869Y-12349384D01*
X10837392Y-12339860D01*
X10827869Y-12330336D01*
X10827869Y-12349384D01*
X10951678Y-12530336D02*
X10932630Y-12520812D01*
X10923107Y-12501765D01*
X10923107Y-12330336D01*
X11056440Y-12530336D02*
X11037392Y-12520812D01*
X11027869Y-12501765D01*
X11027869Y-12330336D01*
X11285011Y-12530336D02*
X11285011Y-12330336D01*
X11351678Y-12473193D01*
X11418345Y-12330336D01*
X11418345Y-12530336D01*
X11599297Y-12530336D02*
X11599297Y-12425574D01*
X11589773Y-12406527D01*
X11570726Y-12397003D01*
X11532630Y-12397003D01*
X11513583Y-12406527D01*
X11599297Y-12520812D02*
X11580249Y-12530336D01*
X11532630Y-12530336D01*
X11513583Y-12520812D01*
X11504059Y-12501765D01*
X11504059Y-12482717D01*
X11513583Y-12463669D01*
X11532630Y-12454146D01*
X11580249Y-12454146D01*
X11599297Y-12444622D01*
X11694535Y-12397003D02*
X11694535Y-12597003D01*
X11694535Y-12406527D02*
X11713583Y-12397003D01*
X11751678Y-12397003D01*
X11770726Y-12406527D01*
X11780249Y-12416050D01*
X11789773Y-12435098D01*
X11789773Y-12492241D01*
X11780249Y-12511288D01*
X11770726Y-12520812D01*
X11751678Y-12530336D01*
X11713583Y-12530336D01*
X11694535Y-12520812D01*
X11875488Y-12511288D02*
X11885011Y-12520812D01*
X11875488Y-12530336D01*
X11865964Y-12520812D01*
X11875488Y-12511288D01*
X11875488Y-12530336D01*
X11875488Y-12406527D02*
X11885011Y-12416050D01*
X11875488Y-12425574D01*
X11865964Y-12416050D01*
X11875488Y-12406527D01*
X11875488Y-12425574D01*
X10046440Y-12759860D02*
X10246440Y-12959860D01*
X10246440Y-12759860D02*
X10046440Y-12959860D01*
X10494535Y-12769384D02*
X10504059Y-12759860D01*
X10523107Y-12750336D01*
X10570726Y-12750336D01*
X10589773Y-12759860D01*
X10599297Y-12769384D01*
X10608821Y-12788431D01*
X10608821Y-12807479D01*
X10599297Y-12836050D01*
X10485011Y-12950336D01*
X10608821Y-12950336D01*
X10694535Y-12931288D02*
X10704059Y-12940812D01*
X10694535Y-12950336D01*
X10685011Y-12940812D01*
X10694535Y-12931288D01*
X10694535Y-12950336D01*
X10875488Y-12750336D02*
X10837392Y-12750336D01*
X10818345Y-12759860D01*
X10808821Y-12769384D01*
X10789773Y-12797955D01*
X10780250Y-12836050D01*
X10780250Y-12912241D01*
X10789773Y-12931288D01*
X10799297Y-12940812D01*
X10818345Y-12950336D01*
X10856440Y-12950336D01*
X10875488Y-12940812D01*
X10885011Y-12931288D01*
X10894535Y-12912241D01*
X10894535Y-12864622D01*
X10885011Y-12845574D01*
X10875488Y-12836050D01*
X10856440Y-12826527D01*
X10818345Y-12826527D01*
X10799297Y-12836050D01*
X10789773Y-12845574D01*
X10780250Y-12864622D01*
X11065964Y-12817003D02*
X11065964Y-12950336D01*
X11018345Y-12740812D02*
X10970726Y-12883669D01*
X11094535Y-12883669D01*
X11208821Y-12750336D02*
X11227868Y-12750336D01*
X11246916Y-12759860D01*
X11256440Y-12769384D01*
X11265964Y-12788431D01*
X11275488Y-12826527D01*
X11275488Y-12874146D01*
X11265964Y-12912241D01*
X11256440Y-12931288D01*
X11246916Y-12940812D01*
X11227868Y-12950336D01*
X11208821Y-12950336D01*
X11189773Y-12940812D01*
X11180250Y-12931288D01*
X11170726Y-12912241D01*
X11161202Y-12874146D01*
X11161202Y-12826527D01*
X11170726Y-12788431D01*
X11180250Y-12769384D01*
X11189773Y-12759860D01*
X11208821Y-12750336D01*
X11361202Y-12950336D02*
X11361202Y-12817003D01*
X11361202Y-12836050D02*
X11370726Y-12826527D01*
X11389773Y-12817003D01*
X11418345Y-12817003D01*
X11437392Y-12826527D01*
X11446916Y-12845574D01*
X11446916Y-12950336D01*
X11446916Y-12845574D02*
X11456440Y-12826527D01*
X11475488Y-12817003D01*
X11504059Y-12817003D01*
X11523107Y-12826527D01*
X11532630Y-12845574D01*
X11532630Y-12950336D01*
X11627868Y-12950336D02*
X11627868Y-12817003D01*
X11627868Y-12836050D02*
X11637392Y-12826527D01*
X11656440Y-12817003D01*
X11685011Y-12817003D01*
X11704059Y-12826527D01*
X11713583Y-12845574D01*
X11713583Y-12950336D01*
X11713583Y-12845574D02*
X11723107Y-12826527D01*
X11742154Y-12817003D01*
X11770726Y-12817003D01*
X11789773Y-12826527D01*
X11799297Y-12845574D01*
X11799297Y-12950336D01*
X12189773Y-12740812D02*
X12018345Y-12997955D01*
X12446916Y-12750336D02*
X12465964Y-12750336D01*
X12485011Y-12759860D01*
X12494535Y-12769384D01*
X12504059Y-12788431D01*
X12513583Y-12826527D01*
X12513583Y-12874146D01*
X12504059Y-12912241D01*
X12494535Y-12931288D01*
X12485011Y-12940812D01*
X12465964Y-12950336D01*
X12446916Y-12950336D01*
X12427868Y-12940812D01*
X12418345Y-12931288D01*
X12408821Y-12912241D01*
X12399297Y-12874146D01*
X12399297Y-12826527D01*
X12408821Y-12788431D01*
X12418345Y-12769384D01*
X12427868Y-12759860D01*
X12446916Y-12750336D01*
X12599297Y-12931288D02*
X12608821Y-12940812D01*
X12599297Y-12950336D01*
X12589773Y-12940812D01*
X12599297Y-12931288D01*
X12599297Y-12950336D01*
X12799297Y-12950336D02*
X12685011Y-12950336D01*
X12742154Y-12950336D02*
X12742154Y-12750336D01*
X12723107Y-12778908D01*
X12704059Y-12797955D01*
X12685011Y-12807479D01*
X12923107Y-12750336D02*
X12942154Y-12750336D01*
X12961202Y-12759860D01*
X12970726Y-12769384D01*
X12980249Y-12788431D01*
X12989773Y-12826527D01*
X12989773Y-12874146D01*
X12980249Y-12912241D01*
X12970726Y-12931288D01*
X12961202Y-12940812D01*
X12942154Y-12950336D01*
X12923107Y-12950336D01*
X12904059Y-12940812D01*
X12894535Y-12931288D01*
X12885011Y-12912241D01*
X12875488Y-12874146D01*
X12875488Y-12826527D01*
X12885011Y-12788431D01*
X12894535Y-12769384D01*
X12904059Y-12759860D01*
X12923107Y-12750336D01*
X13056440Y-12750336D02*
X13180249Y-12750336D01*
X13113583Y-12826527D01*
X13142154Y-12826527D01*
X13161202Y-12836050D01*
X13170726Y-12845574D01*
X13180249Y-12864622D01*
X13180249Y-12912241D01*
X13170726Y-12931288D01*
X13161202Y-12940812D01*
X13142154Y-12950336D01*
X13085011Y-12950336D01*
X13065964Y-12940812D01*
X13056440Y-12931288D01*
X13275488Y-12950336D02*
X13313583Y-12950336D01*
X13332630Y-12940812D01*
X13342154Y-12931288D01*
X13361202Y-12902717D01*
X13370726Y-12864622D01*
X13370726Y-12788431D01*
X13361202Y-12769384D01*
X13351678Y-12759860D01*
X13332630Y-12750336D01*
X13294535Y-12750336D01*
X13275488Y-12759860D01*
X13265964Y-12769384D01*
X13256440Y-12788431D01*
X13256440Y-12836050D01*
X13265964Y-12855098D01*
X13275488Y-12864622D01*
X13294535Y-12874146D01*
X13332630Y-12874146D01*
X13351678Y-12864622D01*
X13361202Y-12855098D01*
X13370726Y-12836050D01*
X13446916Y-12750336D02*
X13446916Y-12788431D01*
X13523107Y-12750336D02*
X13523107Y-12788431D01*
X13818345Y-13026527D02*
X13808821Y-13017003D01*
X13789773Y-12988431D01*
X13780249Y-12969384D01*
X13770726Y-12940812D01*
X13761202Y-12893193D01*
X13761202Y-12855098D01*
X13770726Y-12807479D01*
X13780249Y-12778908D01*
X13789773Y-12759860D01*
X13808821Y-12731288D01*
X13818345Y-12721765D01*
X13885011Y-12769384D02*
X13894535Y-12759860D01*
X13913583Y-12750336D01*
X13961202Y-12750336D01*
X13980249Y-12759860D01*
X13989773Y-12769384D01*
X13999297Y-12788431D01*
X13999297Y-12807479D01*
X13989773Y-12836050D01*
X13875488Y-12950336D01*
X13999297Y-12950336D01*
X14237392Y-12950336D02*
X14237392Y-12750336D01*
X14323107Y-12950336D02*
X14323107Y-12845574D01*
X14313583Y-12826527D01*
X14294535Y-12817003D01*
X14265964Y-12817003D01*
X14246916Y-12826527D01*
X14237392Y-12836050D01*
X14446916Y-12950336D02*
X14427868Y-12940812D01*
X14418345Y-12931288D01*
X14408821Y-12912241D01*
X14408821Y-12855098D01*
X14418345Y-12836050D01*
X14427868Y-12826527D01*
X14446916Y-12817003D01*
X14475488Y-12817003D01*
X14494535Y-12826527D01*
X14504059Y-12836050D01*
X14513583Y-12855098D01*
X14513583Y-12912241D01*
X14504059Y-12931288D01*
X14494535Y-12940812D01*
X14475488Y-12950336D01*
X14446916Y-12950336D01*
X14627868Y-12950336D02*
X14608821Y-12940812D01*
X14599297Y-12921765D01*
X14599297Y-12750336D01*
X14780249Y-12940812D02*
X14761202Y-12950336D01*
X14723107Y-12950336D01*
X14704059Y-12940812D01*
X14694535Y-12921765D01*
X14694535Y-12845574D01*
X14704059Y-12826527D01*
X14723107Y-12817003D01*
X14761202Y-12817003D01*
X14780249Y-12826527D01*
X14789773Y-12845574D01*
X14789773Y-12864622D01*
X14694535Y-12883669D01*
X14865964Y-12940812D02*
X14885011Y-12950336D01*
X14923107Y-12950336D01*
X14942154Y-12940812D01*
X14951678Y-12921765D01*
X14951678Y-12912241D01*
X14942154Y-12893193D01*
X14923107Y-12883669D01*
X14894535Y-12883669D01*
X14875488Y-12874146D01*
X14865964Y-12855098D01*
X14865964Y-12845574D01*
X14875488Y-12826527D01*
X14894535Y-12817003D01*
X14923107Y-12817003D01*
X14942154Y-12826527D01*
X15018345Y-13026527D02*
X15027868Y-13017003D01*
X15046916Y-12988431D01*
X15056440Y-12969384D01*
X15065964Y-12940812D01*
X15075488Y-12893193D01*
X15075488Y-12855098D01*
X15065964Y-12807479D01*
X15056440Y-12778908D01*
X15046916Y-12759860D01*
X15027868Y-12731288D01*
X15018345Y-12721765D01*
X15380249Y-13026527D02*
X15370726Y-13017003D01*
X15351678Y-12988431D01*
X15342154Y-12969384D01*
X15332630Y-12940812D01*
X15323107Y-12893193D01*
X15323107Y-12855098D01*
X15332630Y-12807479D01*
X15342154Y-12778908D01*
X15351678Y-12759860D01*
X15370726Y-12731288D01*
X15380249Y-12721765D01*
X15456440Y-12817003D02*
X15456440Y-12950336D01*
X15456440Y-12836050D02*
X15465964Y-12826527D01*
X15485011Y-12817003D01*
X15513583Y-12817003D01*
X15532630Y-12826527D01*
X15542154Y-12845574D01*
X15542154Y-12950336D01*
X15665964Y-12950336D02*
X15646916Y-12940812D01*
X15637392Y-12931288D01*
X15627868Y-12912241D01*
X15627868Y-12855098D01*
X15637392Y-12836050D01*
X15646916Y-12826527D01*
X15665964Y-12817003D01*
X15694535Y-12817003D01*
X15713583Y-12826527D01*
X15723107Y-12836050D01*
X15732630Y-12855098D01*
X15732630Y-12912241D01*
X15723107Y-12931288D01*
X15713583Y-12940812D01*
X15694535Y-12950336D01*
X15665964Y-12950336D01*
X15789773Y-12817003D02*
X15865964Y-12817003D01*
X15818345Y-12750336D02*
X15818345Y-12921765D01*
X15827868Y-12940812D01*
X15846916Y-12950336D01*
X15865964Y-12950336D01*
X16085011Y-12817003D02*
X16085011Y-13017003D01*
X16085011Y-12826527D02*
X16104059Y-12817003D01*
X16142154Y-12817003D01*
X16161202Y-12826527D01*
X16170726Y-12836050D01*
X16180249Y-12855098D01*
X16180249Y-12912241D01*
X16170726Y-12931288D01*
X16161202Y-12940812D01*
X16142154Y-12950336D01*
X16104059Y-12950336D01*
X16085011Y-12940812D01*
X16294535Y-12950336D02*
X16275488Y-12940812D01*
X16265964Y-12921765D01*
X16265964Y-12750336D01*
X16456440Y-12950336D02*
X16456440Y-12845574D01*
X16446916Y-12826527D01*
X16427868Y-12817003D01*
X16389773Y-12817003D01*
X16370726Y-12826527D01*
X16456440Y-12940812D02*
X16437392Y-12950336D01*
X16389773Y-12950336D01*
X16370726Y-12940812D01*
X16361202Y-12921765D01*
X16361202Y-12902717D01*
X16370726Y-12883669D01*
X16389773Y-12874146D01*
X16437392Y-12874146D01*
X16456440Y-12864622D01*
X16523107Y-12817003D02*
X16599297Y-12817003D01*
X16551678Y-12750336D02*
X16551678Y-12921765D01*
X16561202Y-12940812D01*
X16580249Y-12950336D01*
X16599297Y-12950336D01*
X16742154Y-12940812D02*
X16723107Y-12950336D01*
X16685011Y-12950336D01*
X16665964Y-12940812D01*
X16656440Y-12921765D01*
X16656440Y-12845574D01*
X16665964Y-12826527D01*
X16685011Y-12817003D01*
X16723107Y-12817003D01*
X16742154Y-12826527D01*
X16751678Y-12845574D01*
X16751678Y-12864622D01*
X16656440Y-12883669D01*
X16923107Y-12950336D02*
X16923107Y-12750336D01*
X16923107Y-12940812D02*
X16904059Y-12950336D01*
X16865964Y-12950336D01*
X16846916Y-12940812D01*
X16837392Y-12931288D01*
X16827869Y-12912241D01*
X16827869Y-12855098D01*
X16837392Y-12836050D01*
X16846916Y-12826527D01*
X16865964Y-12817003D01*
X16904059Y-12817003D01*
X16923107Y-12826527D01*
X16999297Y-13026527D02*
X17008821Y-13017003D01*
X17027869Y-12988431D01*
X17037392Y-12969384D01*
X17046916Y-12940812D01*
X17056440Y-12893193D01*
X17056440Y-12855098D01*
X17046916Y-12807479D01*
X17037392Y-12778908D01*
X17027869Y-12759860D01*
X17008821Y-12731288D01*
X16999297Y-12721765D01*
M02*
