%TF.GenerationSoftware,KiCad,Pcbnew,(6.0.0-0)*%
%TF.CreationDate,2022-07-31T01:07:44-04:00*%
%TF.ProjectId,sam-bday-21,73616d2d-6264-4617-992d-32312e6b6963,v1*%
%TF.SameCoordinates,Original*%
%TF.FileFunction,Paste,Top*%
%TF.FilePolarity,Positive*%
%FSLAX46Y46*%
G04 Gerber Fmt 4.6, Leading zero omitted, Abs format (unit mm)*
G04 Created by KiCad (PCBNEW (6.0.0-0)) date 2022-07-31 01:07:44*
%MOMM*%
%LPD*%
G01*
G04 APERTURE LIST*
G04 Aperture macros list*
%AMRoundRect*
0 Rectangle with rounded corners*
0 $1 Rounding radius*
0 $2 $3 $4 $5 $6 $7 $8 $9 X,Y pos of 4 corners*
0 Add a 4 corners polygon primitive as box body*
4,1,4,$2,$3,$4,$5,$6,$7,$8,$9,$2,$3,0*
0 Add four circle primitives for the rounded corners*
1,1,$1+$1,$2,$3*
1,1,$1+$1,$4,$5*
1,1,$1+$1,$6,$7*
1,1,$1+$1,$8,$9*
0 Add four rect primitives between the rounded corners*
20,1,$1+$1,$2,$3,$4,$5,0*
20,1,$1+$1,$4,$5,$6,$7,0*
20,1,$1+$1,$6,$7,$8,$9,0*
20,1,$1+$1,$8,$9,$2,$3,0*%
G04 Aperture macros list end*
%ADD10RoundRect,0.243750X0.491645X-0.160820X0.406992X0.319274X-0.491645X0.160820X-0.406992X-0.319274X0*%
%ADD11RoundRect,0.243750X0.433270X-0.282587X0.475758X0.203058X-0.433270X0.282587X-0.475758X-0.203058X0*%
%ADD12RoundRect,0.243750X0.456250X-0.243750X0.456250X0.243750X-0.456250X0.243750X-0.456250X-0.243750X0*%
%ADD13RoundRect,0.243750X0.512102X-0.073003X0.345367X0.385097X-0.512102X0.073003X-0.345367X-0.385097X0*%
%ADD14RoundRect,0.243750X0.406992X-0.319274X0.491645X0.160820X-0.406992X0.319274X-0.491645X-0.160820X0*%
%ADD15RoundRect,0.243750X0.243750X0.456250X-0.243750X0.456250X-0.243750X-0.456250X0.243750X-0.456250X0*%
%ADD16RoundRect,0.243750X0.345367X-0.385097X0.512102X0.073003X-0.345367X0.385097X-0.512102X-0.073003X0*%
%ADD17RoundRect,0.243750X0.475758X-0.203058X0.433270X0.282587X-0.475758X0.203058X-0.433270X-0.282587X0*%
%ADD18RoundRect,0.243750X-0.243750X-0.456250X0.243750X-0.456250X0.243750X0.456250X-0.243750X0.456250X0*%
G04 APERTURE END LIST*
D10*
%TO.C,D7*%
X122025710Y-64460186D03*
X122351300Y-66306700D03*
%TD*%
D11*
%TO.C,D6*%
X155125609Y-65893467D03*
X154962191Y-67761333D03*
%TD*%
D12*
%TO.C,D10*%
X151954656Y-67837662D03*
X151954656Y-69712662D03*
%TD*%
D10*
%TO.C,D12*%
X152585046Y-73671976D03*
X152259456Y-71825462D03*
%TD*%
D13*
%TO.C,D14*%
X150106744Y-75896486D03*
X149465456Y-74134562D03*
%TD*%
D14*
%TO.C,D18*%
X148479466Y-67599076D03*
X148805056Y-65752562D03*
%TD*%
%TO.C,D17*%
X125956295Y-70057043D03*
X125630705Y-71903557D03*
%TD*%
%TO.C,D8*%
X152534246Y-63908348D03*
X152208656Y-65754862D03*
%TD*%
D12*
%TO.C,D9*%
X122605300Y-68317900D03*
X122605300Y-70192900D03*
%TD*%
D13*
%TO.C,D13*%
X124329856Y-61971338D03*
X124971144Y-63733262D03*
%TD*%
D11*
%TO.C,D5*%
X119562809Y-70452767D03*
X119399391Y-72320633D03*
%TD*%
D15*
%TO.C,D1*%
X114622100Y-69494900D03*
X116497100Y-69494900D03*
%TD*%
D16*
%TO.C,D19*%
X124478612Y-76382462D03*
X125119900Y-74620538D03*
%TD*%
D10*
%TO.C,D15*%
X125605305Y-65713643D03*
X125930895Y-67560157D03*
%TD*%
D17*
%TO.C,D4*%
X154993100Y-69951600D03*
X155156518Y-71819466D03*
%TD*%
D14*
%TO.C,D11*%
X122503700Y-72174100D03*
X122178110Y-74020614D03*
%TD*%
D17*
%TO.C,D3*%
X119399391Y-66589667D03*
X119562809Y-68457533D03*
%TD*%
D18*
%TO.C,D2*%
X159941500Y-68808600D03*
X158066500Y-68808600D03*
%TD*%
D10*
%TO.C,D16*%
X148500256Y-70019762D03*
X148825846Y-71866276D03*
%TD*%
D16*
%TO.C,D20*%
X149440056Y-63415762D03*
X150081344Y-61653838D03*
%TD*%
M02*
