M48
; DRILL file {KiCad (6.0.0-0)} date Sunday, July 31, 2022 at 01:08:51 AM
; FORMAT={-:-/ absolute / metric / decimal}
; #@! TF.CreationDate,2022-07-31T01:08:51-04:00
; #@! TF.GenerationSoftware,Kicad,Pcbnew,(6.0.0-0)
; #@! TF.FileFunction,Plated,1,2,PTH
FMAT,2
METRIC
; #@! TA.AperFunction,Plated,PTH,ViaDrill
T1C0.400
; #@! TA.AperFunction,Plated,PTH,ComponentDrill
T2C1.020
%
G90
G05
T1
X113.297Y-69.075
X116.51Y-71.146
X117.64Y-65.748
X118.097Y-69.761
X119.837Y-89.002
X120.383Y-73.952
X120.485Y-63.487
X120.993Y-71.234
X121.044Y-67.577
X121.081Y-69.431
X122.72Y-75.527
X122.745Y-60.871
X123.368Y-97.485
X123.838Y-65.189
X123.965Y-66.688
X123.977Y-77.508
X124.193Y-70.726
X124.269Y-72.809
X124.676Y-69.126
X125.717Y-73.393
X126.505Y-68.847
X126.555Y-64.3
X146.812Y-68.377
X147.701Y-64.008
X147.904Y-73.279
X149.25Y-77.445
X149.809Y-69.113
X150.266Y-64.922
X150.571Y-66.37
X150.571Y-70.688
X150.622Y-73.177
X151.359Y-74.93
X151.409Y-60.808
X153.416Y-67.158
X153.441Y-70.79
X153.492Y-68.682
X153.873Y-62.967
X153.975Y-73.127
X155.753Y-64.694
X156.464Y-68.758
X156.82Y-70.002
X161.366Y-68.377
T2
X110.646Y-112.065
X162.636Y-112.065
T0
M30
