%TF.GenerationSoftware,KiCad,Pcbnew,(6.0.0-0)*%
%TF.CreationDate,2022-07-31T01:07:45-04:00*%
%TF.ProjectId,sam-bday-21,73616d2d-6264-4617-992d-32312e6b6963,v1*%
%TF.SameCoordinates,Original*%
%TF.FileFunction,Soldermask,Bot*%
%TF.FilePolarity,Negative*%
%FSLAX46Y46*%
G04 Gerber Fmt 4.6, Leading zero omitted, Abs format (unit mm)*
G04 Created by KiCad (PCBNEW (6.0.0-0)) date 2022-07-31 01:07:45*
%MOMM*%
%LPD*%
G01*
G04 APERTURE LIST*
G04 Aperture macros list*
%AMRoundRect*
0 Rectangle with rounded corners*
0 $1 Rounding radius*
0 $2 $3 $4 $5 $6 $7 $8 $9 X,Y pos of 4 corners*
0 Add a 4 corners polygon primitive as box body*
4,1,4,$2,$3,$4,$5,$6,$7,$8,$9,$2,$3,0*
0 Add four circle primitives for the rounded corners*
1,1,$1+$1,$2,$3*
1,1,$1+$1,$4,$5*
1,1,$1+$1,$6,$7*
1,1,$1+$1,$8,$9*
0 Add four rect primitives between the rounded corners*
20,1,$1+$1,$2,$3,$4,$5,0*
20,1,$1+$1,$4,$5,$6,$7,0*
20,1,$1+$1,$6,$7,$8,$9,0*
20,1,$1+$1,$8,$9,$2,$3,0*%
%AMFreePoly0*
4,1,9,3.862500,-0.866500,0.737500,-0.866500,0.737500,-0.450000,-0.737500,-0.450000,-0.737500,0.450000,0.737500,0.450000,0.737500,0.866500,3.862500,0.866500,3.862500,-0.866500,3.862500,-0.866500,$1*%
G04 Aperture macros list end*
%ADD10RoundRect,0.200000X0.200000X0.275000X-0.200000X0.275000X-0.200000X-0.275000X0.200000X-0.275000X0*%
%ADD11RoundRect,0.200000X-0.275000X0.200000X-0.275000X-0.200000X0.275000X-0.200000X0.275000X0.200000X0*%
%ADD12RoundRect,0.218750X-0.381250X0.218750X-0.381250X-0.218750X0.381250X-0.218750X0.381250X0.218750X0*%
%ADD13R,1.300000X0.900000*%
%ADD14FreePoly0,0.000000*%
%ADD15RoundRect,0.225000X0.250000X-0.225000X0.250000X0.225000X-0.250000X0.225000X-0.250000X-0.225000X0*%
%ADD16RoundRect,0.225000X-0.250000X0.225000X-0.250000X-0.225000X0.250000X-0.225000X0.250000X0.225000X0*%
%ADD17RoundRect,0.200000X-0.200000X-0.275000X0.200000X-0.275000X0.200000X0.275000X-0.200000X0.275000X0*%
%ADD18R,0.400000X0.650000*%
%ADD19C,2.000000*%
%ADD20R,2.000000X2.000000*%
%ADD21C,2.640000*%
%ADD22RoundRect,0.150000X0.825000X0.150000X-0.825000X0.150000X-0.825000X-0.150000X0.825000X-0.150000X0*%
%ADD23RoundRect,0.150000X0.512500X0.150000X-0.512500X0.150000X-0.512500X-0.150000X0.512500X-0.150000X0*%
G04 APERTURE END LIST*
D10*
%TO.C,R17*%
X145885400Y-77444600D03*
X147535400Y-77444600D03*
%TD*%
D11*
%TO.C,R20*%
X115836400Y-90080600D03*
X115836400Y-88430600D03*
%TD*%
D12*
%TO.C,L1*%
X158154387Y-93953719D03*
X158154387Y-91828719D03*
%TD*%
D11*
%TO.C,R15*%
X152552400Y-77673200D03*
X152552400Y-76023200D03*
%TD*%
D13*
%TO.C,Q2*%
X146025600Y-80719800D03*
D14*
X146113100Y-82219800D03*
D13*
X146025600Y-83719800D03*
%TD*%
D11*
%TO.C,R11*%
X151993600Y-72668400D03*
X151993600Y-71018400D03*
%TD*%
D10*
%TO.C,R19*%
X144666200Y-73279000D03*
X146316200Y-73279000D03*
%TD*%
D15*
%TO.C,C2*%
X156286200Y-95999000D03*
X156286200Y-97549000D03*
%TD*%
D16*
%TO.C,C4*%
X118351000Y-97841400D03*
X118351000Y-96291400D03*
%TD*%
D15*
%TO.C,C3*%
X114122200Y-92138400D03*
X114122200Y-93688400D03*
%TD*%
%TO.C,C5*%
X118351000Y-87451600D03*
X118351000Y-89001600D03*
%TD*%
D17*
%TO.C,R13*%
X144252600Y-83718400D03*
X142602600Y-83718400D03*
%TD*%
D15*
%TO.C,C1*%
X162599387Y-96011119D03*
X162599387Y-97561119D03*
%TD*%
D18*
%TO.C,U3*%
X125994400Y-96403200D03*
X127294400Y-96403200D03*
X127294400Y-94503200D03*
X126644400Y-94503200D03*
X125994400Y-94503200D03*
%TD*%
D11*
%TO.C,R4*%
X155473400Y-75678800D03*
X155473400Y-74028800D03*
%TD*%
%TO.C,R21*%
X115824000Y-93751400D03*
X115824000Y-92101400D03*
%TD*%
%TO.C,R7*%
X155041600Y-70180200D03*
X155041600Y-68530200D03*
%TD*%
%TO.C,R5*%
X160440387Y-93711919D03*
X160440387Y-92061919D03*
%TD*%
%TO.C,R2*%
X158115000Y-72351400D03*
X158115000Y-70701400D03*
%TD*%
D19*
%TO.C,BT1*%
X110646200Y-112064800D03*
D20*
X162636200Y-112064800D03*
D21*
X159886200Y-106069800D03*
X113406200Y-118059800D03*
%TD*%
D11*
%TO.C,R9*%
X151765000Y-68922400D03*
X151765000Y-67272400D03*
%TD*%
D10*
%TO.C,R25*%
X144488400Y-64058800D03*
X146138400Y-64058800D03*
%TD*%
%TO.C,R23*%
X143662400Y-68376800D03*
X145312400Y-68376800D03*
%TD*%
D22*
%TO.C,U2*%
X118351000Y-90779600D03*
X118351000Y-92049600D03*
X118351000Y-93319600D03*
X118351000Y-94589600D03*
X123301000Y-94589600D03*
X123301000Y-93319600D03*
X123301000Y-92049600D03*
X123301000Y-90779600D03*
%TD*%
D23*
%TO.C,U1*%
X158159887Y-95645319D03*
X158159887Y-97545319D03*
X160434887Y-97545319D03*
X160434887Y-96595319D03*
X160434887Y-95645319D03*
%TD*%
D11*
%TO.C,R14*%
X121424700Y-78358500D03*
X121424700Y-76708500D03*
%TD*%
%TO.C,R10*%
X122872500Y-73329300D03*
X122872500Y-71679300D03*
%TD*%
D17*
%TO.C,R12*%
X125500900Y-84467700D03*
X123850900Y-84467700D03*
%TD*%
D11*
%TO.C,R6*%
X119037100Y-76567300D03*
X119037100Y-74917300D03*
%TD*%
D17*
%TO.C,R24*%
X128053100Y-77533500D03*
X126403100Y-77533500D03*
%TD*%
%TO.C,R22*%
X129412500Y-73113900D03*
X127762500Y-73113900D03*
%TD*%
D11*
%TO.C,R3*%
X119545100Y-71258700D03*
X119545100Y-69608700D03*
%TD*%
D13*
%TO.C,Q1*%
X127267700Y-81469100D03*
D14*
X127355200Y-82969100D03*
D13*
X127267700Y-84469100D03*
%TD*%
D11*
%TO.C,R8*%
X122491500Y-66789300D03*
X122491500Y-68439300D03*
%TD*%
D17*
%TO.C,R16*%
X130009900Y-63944500D03*
X128359900Y-63944500D03*
%TD*%
%TO.C,R18*%
X130060700Y-68846700D03*
X128410700Y-68846700D03*
%TD*%
D11*
%TO.C,R1*%
X116522500Y-74497700D03*
X116522500Y-72847700D03*
%TD*%
M02*
